EBGaramond12-Italic.ufo
<glyph name="exclam" format="2">
  <advance width="287"/>
  <unicode hex="0021"/>
  <note>
exclam
</note>
  <outline>
    <contour>
      <point x="144" y="205" type="curve" smooth="yes"/>
      <point x="154" y="205"/>
      <point x="165" y="222"/>
      <point x="174" y="244" type="curve" smooth="yes"/>
      <point x="220" y="357"/>
      <point x="294" y="535"/>
      <point x="306" y="574" type="curve" smooth="yes"/>
      <point x="319" y="613"/>
      <point x="308" y="649"/>
      <point x="281" y="649" type="curve" smooth="yes"/>
      <point x="255" y="649"/>
      <point x="228" y="618"/>
      <point x="215" y="574" type="curve" smooth="yes"/>
      <point x="204" y="534"/>
      <point x="162" y="358"/>
      <point x="138" y="244" type="curve" smooth="yes"/>
      <point x="132" y="215"/>
      <point x="134" y="205"/>
    </contour>
    <contour>
      <point x="85" y="-14" type="curve" smooth="yes"/>
      <point x="124" y="-14"/>
      <point x="157" y="16"/>
      <point x="157" y="54" type="curve" smooth="yes"/>
      <point x="157" y="81"/>
      <point x="136" y="106"/>
      <point x="108" y="106" type="curve" smooth="yes"/>
      <point x="68" y="106"/>
      <point x="36" y="76"/>
      <point x="36" y="38" type="curve" smooth="yes"/>
      <point x="36" y="11"/>
      <point x="57" y="-14"/>
    </contour>
  </outline>
</glyph>
<glyph name="dollar" format="2">
  <advance width="483"/>
  <unicode hex="0024"/>
  <note>
dollar
</note>
  <outline>
    <contour>
      <point x="189" y="-15" type="curve" smooth="yes"/>
      <point x="342" y="-15"/>
      <point x="425" y="74"/>
      <point x="425" y="184" type="curve" smooth="yes"/>
      <point x="425" y="240"/>
      <point x="394" y="290"/>
      <point x="323" y="352" type="curve" smooth="yes"/>
      <point x="252" y="415"/>
      <point x="226" y="453"/>
      <point x="226" y="506" type="curve" smooth="yes"/>
      <point x="226" y="566"/>
      <point x="282" y="635"/>
      <point x="356" y="635" type="curve" smooth="yes"/>
      <point x="428" y="635"/>
      <point x="477" y="585"/>
      <point x="477" y="492" type="curve" smooth="yes"/>
      <point x="477" y="477"/>
      <point x="479" y="466"/>
      <point x="490" y="466" type="curve" smooth="yes"/>
      <point x="494" y="466"/>
      <point x="503" y="478"/>
      <point x="506" y="498" type="curve" smooth="yes"/>
      <point x="522" y="601"/>
      <point x="546" y="626"/>
      <point x="546" y="629" type="curve" smooth="yes"/>
      <point x="546" y="634"/>
      <point x="544" y="645"/>
      <point x="533" y="645" type="curve" smooth="yes"/>
      <point x="526" y="645"/>
      <point x="521" y="643"/>
      <point x="516" y="640" type="curve" smooth="yes"/>
      <point x="511" y="637"/>
      <point x="505" y="635"/>
      <point x="496" y="635" type="curve" smooth="yes"/>
      <point x="486" y="635"/>
      <point x="467" y="644"/>
      <point x="440" y="652" type="curve" smooth="yes"/>
      <point x="416" y="658"/>
      <point x="390" y="664"/>
      <point x="368" y="664" type="curve" smooth="yes"/>
      <point x="245" y="664"/>
      <point x="151" y="588"/>
      <point x="151" y="482" type="curve" smooth="yes"/>
      <point x="151" y="401"/>
      <point x="194" y="352"/>
      <point x="256" y="298" type="curve" smooth="yes"/>
      <point x="322" y="238"/>
      <point x="339" y="205"/>
      <point x="339" y="153" type="curve" smooth="yes"/>
      <point x="339" y="77"/>
      <point x="276" y="15"/>
      <point x="186" y="15" type="curve" smooth="yes"/>
      <point x="100" y="15"/>
      <point x="62" y="75"/>
      <point x="62" y="152" type="curve" smooth="yes"/>
      <point x="62" y="179"/>
      <point x="61" y="191"/>
      <point x="50" y="191" type="curve" smooth="yes"/>
      <point x="39" y="191"/>
      <point x="35" y="185"/>
      <point x="33" y="171" type="curve" smooth="yes"/>
      <point x="21" y="92"/>
      <point x="-15" y="31"/>
      <point x="-15" y="19" type="curve" smooth="yes"/>
      <point x="-15" y="11"/>
      <point x="-1" y="0"/>
      <point x="5" y="0" type="curve" smooth="yes"/>
      <point x="10" y="0"/>
      <point x="17" y="5"/>
      <point x="26" y="10" type="curve" smooth="yes"/>
      <point x="33" y="13"/>
      <point x="40" y="16"/>
      <point x="47" y="16" type="curve" smooth="yes"/>
      <point x="52" y="16"/>
      <point x="64" y="11"/>
      <point x="82" y="4" type="curve" smooth="yes"/>
      <point x="117" y="-9"/>
      <point x="154" y="-15"/>
    </contour>
    <contour>
      <point x="93" y="-95" type="curve" smooth="yes"/>
      <point x="103" y="-95"/>
      <point x="117" y="-91"/>
      <point x="121" y="-80" type="curve"/>
      <point x="455" y="712" type="line"/>
      <point x="458" y="720"/>
      <point x="455" y="729"/>
      <point x="448" y="729" type="curve" smooth="yes"/>
      <point x="436" y="729"/>
      <point x="422" y="725"/>
      <point x="416" y="712" type="curve"/>
      <point x="83" y="-80" type="line"/>
      <point x="80" y="-88"/>
      <point x="85" y="-95"/>
    </contour>
  </outline>
</glyph>
<glyph name="ampersand" format="2">
  <advance width="822"/>
  <unicode hex="0026"/>
  <note>
ampersand
</note>
  <guideline x="615" y="607" angle="0"/>
  <outline>
    <contour>
      <point x="413" y="-15" type="curve" smooth="yes"/>
      <point x="615" y="-15"/>
      <point x="757" y="115"/>
      <point x="757" y="300" type="curve" smooth="yes"/>
      <point x="757" y="361"/>
      <point x="748" y="400"/>
      <point x="722" y="446" type="curve" smooth="yes"/>
      <point x="717" y="454"/>
      <point x="721" y="459"/>
      <point x="732" y="459" type="curve" smooth="yes"/>
      <point x="841" y="459"/>
      <point x="910" y="516"/>
      <point x="910" y="607" type="curve" smooth="yes"/>
      <point x="910" y="673"/>
      <point x="875" y="716"/>
      <point x="822" y="716" type="curve" smooth="yes"/>
      <point x="771" y="716"/>
      <point x="733" y="686"/>
      <point x="733" y="647" type="curve" smooth="yes"/>
      <point x="733" y="615"/>
      <point x="755" y="593"/>
      <point x="787" y="593" type="curve" smooth="yes"/>
      <point x="810" y="593"/>
      <point x="828" y="608"/>
      <point x="828" y="627" type="curve" smooth="yes"/>
      <point x="828" y="636"/>
      <point x="823" y="647"/>
      <point x="813" y="650" type="curve" smooth="yes"/>
      <point x="802" y="653"/>
      <point x="798" y="662"/>
      <point x="798" y="671" type="curve" smooth="yes"/>
      <point x="798" y="680"/>
      <point x="806" y="689"/>
      <point x="817" y="689" type="curve" smooth="yes"/>
      <point x="847" y="689"/>
      <point x="869" y="664"/>
      <point x="869" y="630" type="curve" smooth="yes"/>
      <point x="869" y="562"/>
      <point x="822" y="528"/>
      <point x="728" y="527" type="curve" smooth="yes"/>
      <point x="641" y="526" type="line" smooth="yes"/>
      <point x="555" y="525"/>
      <point x="486" y="465"/>
      <point x="486" y="391" type="curve" smooth="yes"/>
      <point x="486" y="327"/>
      <point x="532" y="285"/>
      <point x="601" y="285" type="curve" smooth="yes"/>
      <point x="636" y="285"/>
      <point x="661" y="314"/>
      <point x="662" y="343" type="curve" smooth="yes"/>
      <point x="663" y="367"/>
      <point x="649" y="385"/>
      <point x="619" y="385" type="curve" smooth="yes"/>
      <point x="600" y="385"/>
      <point x="594" y="372"/>
      <point x="588" y="361" type="curve" smooth="yes"/>
      <point x="583" y="352"/>
      <point x="577" y="343"/>
      <point x="563" y="343" type="curve" smooth="yes"/>
      <point x="535" y="343"/>
      <point x="524" y="366"/>
      <point x="524" y="391" type="curve" smooth="yes"/>
      <point x="524" y="430"/>
      <point x="550" y="458"/>
      <point x="595" y="458" type="curve" smooth="yes"/>
      <point x="688" y="458"/>
      <point x="719" y="402"/>
      <point x="719" y="322" type="curve" smooth="yes"/>
      <point x="719" y="191"/>
      <point x="626" y="68"/>
      <point x="436" y="68" type="curve" smooth="yes"/>
      <point x="217" y="68"/>
      <point x="146" y="173"/>
      <point x="146" y="289" type="curve" smooth="yes"/>
      <point x="146" y="392"/>
      <point x="200" y="464"/>
      <point x="287" y="464" type="curve" smooth="yes"/>
      <point x="328" y="464"/>
      <point x="356" y="445"/>
      <point x="356" y="419" type="curve" smooth="yes"/>
      <point x="356" y="388"/>
      <point x="333" y="368"/>
      <point x="297" y="368" type="curve" smooth="yes"/>
      <point x="231" y="368"/>
      <point x="199" y="419"/>
      <point x="199" y="525" type="curve" smooth="yes"/>
      <point x="199" y="603"/>
      <point x="255" y="658"/>
      <point x="322" y="658" type="curve" smooth="yes"/>
      <point x="345" y="658"/>
      <point x="360" y="643"/>
      <point x="360" y="621" type="curve" smooth="yes"/>
      <point x="360" y="607"/>
      <point x="377" y="591"/>
      <point x="392" y="591" type="curve" smooth="yes"/>
      <point x="419" y="591"/>
      <point x="436" y="609"/>
      <point x="436" y="636" type="curve" smooth="yes"/>
      <point x="436" y="686"/>
      <point x="399" y="717"/>
      <point x="340" y="718" type="curve" smooth="yes"/>
      <point x="237" y="720"/>
      <point x="147" y="638"/>
      <point x="147" y="534" type="curve" smooth="yes"/>
      <point x="147" y="412"/>
      <point x="209" y="328"/>
      <point x="299" y="328" type="curve" smooth="yes"/>
      <point x="356" y="328"/>
      <point x="399" y="366"/>
      <point x="399" y="416" type="curve" smooth="yes"/>
      <point x="399" y="465"/>
      <point x="356" y="498"/>
      <point x="290" y="499" type="curve" smooth="yes"/>
      <point x="177" y="500"/>
      <point x="90" y="394"/>
      <point x="90" y="249" type="curve" smooth="yes"/>
      <point x="90" y="93"/>
      <point x="223" y="-15"/>
    </contour>
  </outline>
</glyph>
<glyph name="quotesingle" format="2">
  <advance width="200"/>
  <unicode hex="0027"/>
  <note>
quotesingle
</note>
  <outline>
    <contour>
      <point x="150" y="444" type="curve" smooth="yes"/>
      <point x="155" y="444"/>
      <point x="168" y="457"/>
      <point x="176" y="469" type="curve" smooth="yes"/>
      <point x="201" y="506"/>
      <point x="235" y="555"/>
      <point x="265" y="624" type="curve" smooth="yes"/>
      <point x="274" y="645"/>
      <point x="284" y="676"/>
      <point x="270" y="676" type="curve" smooth="yes"/>
      <point x="255" y="676"/>
      <point x="242" y="667"/>
      <point x="223" y="655" type="curve" smooth="yes"/>
      <point x="212" y="648"/>
      <point x="198" y="633"/>
      <point x="195" y="619" type="curve" smooth="yes"/>
      <point x="186" y="577"/>
      <point x="178" y="547"/>
      <point x="167" y="515" type="curve" smooth="yes"/>
      <point x="162" y="500"/>
      <point x="157" y="484"/>
      <point x="151" y="467" type="curve" smooth="yes"/>
      <point x="148" y="458"/>
      <point x="145" y="444"/>
    </contour>
  </outline>
</glyph>
<glyph name="asterisk" format="2">
  <advance width="339"/>
  <unicode hex="002A"/>
  <note>
asterisk
</note>
  <outline>
    <contour>
      <point x="211" y="378" type="curve" smooth="yes"/>
      <point x="219" y="378"/>
      <point x="225" y="387"/>
      <point x="229" y="395" type="curve" smooth="yes"/>
      <point x="243" y="427"/>
      <point x="255" y="453"/>
      <point x="264" y="480" type="curve"/>
      <point x="283" y="459"/>
      <point x="305" y="441"/>
      <point x="328" y="415" type="curve" smooth="yes"/>
      <point x="331" y="412"/>
      <point x="341" y="405"/>
      <point x="347" y="405" type="curve" smooth="yes"/>
      <point x="354" y="405"/>
      <point x="357" y="408"/>
      <point x="357" y="417" type="curve" smooth="yes"/>
      <point x="357" y="422"/>
      <point x="352" y="433"/>
      <point x="349" y="437" type="curve" smooth="yes"/>
      <point x="329" y="466"/>
      <point x="315" y="485"/>
      <point x="297" y="507" type="curve"/>
      <point x="327" y="514"/>
      <point x="355" y="523"/>
      <point x="385" y="530" type="curve" smooth="yes"/>
      <point x="393" y="532"/>
      <point x="404" y="536.191"/>
      <point x="404" y="545" type="curve" smooth="yes"/>
      <point x="404" y="553.249"/>
      <point x="393" y="558"/>
      <point x="385" y="558" type="curve" smooth="yes"/>
      <point x="377" y="558"/>
      <point x="315.596" y="553.928"/>
      <point x="288" y="549" type="curve"/>
      <point x="296.656" y="577.533"/>
      <point x="312" y="638"/>
      <point x="312" y="645" type="curve" smooth="yes"/>
      <point x="312" y="654"/>
      <point x="312" y="664"/>
      <point x="302" y="664" type="curve" smooth="yes"/>
      <point x="294" y="664"/>
      <point x="289" y="655"/>
      <point x="285" y="647" type="curve" smooth="yes"/>
      <point x="271" y="615"/>
      <point x="258" y="589"/>
      <point x="249" y="562" type="curve"/>
      <point x="230" y="583"/>
      <point x="211" y="601"/>
      <point x="186" y="625" type="curve" smooth="yes"/>
      <point x="183" y="628"/>
      <point x="173" y="636"/>
      <point x="167" y="636" type="curve" smooth="yes"/>
      <point x="160" y="636"/>
      <point x="158" y="633"/>
      <point x="158" y="624" type="curve" smooth="yes"/>
      <point x="158" y="619"/>
      <point x="160" y="613"/>
      <point x="163" y="609" type="curve" smooth="yes"/>
      <point x="183" y="580"/>
      <point x="198" y="557"/>
      <point x="216" y="535" type="curve"/>
      <point x="216" y="535"/>
      <point x="140" y="514"/>
      <point x="128" y="510" type="curve" smooth="yes"/>
      <point x="120" y="508"/>
      <point x="109" y="503"/>
      <point x="109" y="494" type="curve" smooth="yes"/>
      <point x="109" y="486"/>
      <point x="120" y="484"/>
      <point x="128" y="484" type="curve" smooth="yes"/>
      <point x="161" y="485"/>
      <point x="197" y="488"/>
      <point x="225" y="493" type="curve"/>
      <point x="225" y="493"/>
      <point x="204" y="418"/>
      <point x="202" y="404" type="curve" smooth="yes"/>
      <point x="200" y="391"/>
      <point x="200" y="378"/>
    </contour>
  </outline>
</glyph>
<glyph name="comma" format="2">
  <advance width="215"/>
  <unicode hex="002C"/>
  <note>
comma
</note>
  <outline>
    <contour>
      <point x="-32" y="-129" type="curve" smooth="yes"/>
      <point x="29" y="-129"/>
      <point x="125" y="-50"/>
      <point x="125" y="50" type="curve" smooth="yes"/>
      <point x="125" y="97"/>
      <point x="95" y="120"/>
      <point x="59" y="120" type="curve" smooth="yes"/>
      <point x="32" y="120"/>
      <point x="4" y="103"/>
      <point x="4" y="80" type="curve" smooth="yes"/>
      <point x="4" y="60"/>
      <point x="19" y="52"/>
      <point x="34" y="44" type="curve" smooth="yes"/>
      <point x="49" y="37"/>
      <point x="66" y="28"/>
      <point x="66" y="6" type="curve" smooth="yes"/>
      <point x="66" y="-35"/>
      <point x="33" y="-75"/>
      <point x="-25" y="-106" type="curve" smooth="yes"/>
      <point x="-40" y="-114"/>
      <point x="-50" y="-117"/>
      <point x="-50" y="-123" type="curve" smooth="yes"/>
      <point x="-50" y="-130"/>
      <point x="-42" y="-129"/>
    </contour>
  </outline>
</glyph>
<glyph name="hyphen" format="2">
  <advance width="268"/>
  <unicode hex="002D"/>
  <note>
hyphen
</note>
  <outline>
    <contour>
      <point x="38" y="170" type="curve" smooth="yes"/>
      <point x="97" y="178"/>
      <point x="155" y="187"/>
      <point x="214" y="195" type="curve" smooth="yes"/>
      <point x="234" y="198"/>
      <point x="250" y="224"/>
      <point x="250" y="247" type="curve" smooth="yes"/>
      <point x="250" y="254"/>
      <point x="248" y="256"/>
      <point x="242" y="255" type="curve" smooth="yes"/>
      <point x="181" y="247"/>
      <point x="120" y="238"/>
      <point x="59" y="230" type="curve" smooth="yes"/>
      <point x="48" y="229"/>
      <point x="27" y="206"/>
      <point x="27" y="184" type="curve" smooth="yes"/>
      <point x="27" y="177"/>
      <point x="33" y="169"/>
    </contour>
  </outline>
</glyph>
<glyph name="period" format="2">
  <advance width="215"/>
  <unicode hex="002E"/>
  <note>
period
</note>
  <outline>
    <contour>
      <point x="49" y="-14" type="curve" smooth="yes"/>
      <point x="85" y="-14"/>
      <point x="114" y="15"/>
      <point x="114" y="51" type="curve" smooth="yes"/>
      <point x="114" y="77"/>
      <point x="95" y="101"/>
      <point x="69" y="101" type="curve" smooth="yes"/>
      <point x="33" y="101"/>
      <point x="4" y="72"/>
      <point x="4" y="36" type="curve" smooth="yes"/>
      <point x="4" y="10"/>
      <point x="23" y="-14"/>
    </contour>
  </outline>
</glyph>
<glyph name="slash" format="2">
  <advance width="276"/>
  <unicode hex="002F"/>
  <note>
slash
</note>
  <outline>
    <contour>
      <point x="-46" y="-62" type="curve" smooth="yes"/>
      <point x="-30" y="-62"/>
      <point x="-16" y="-61"/>
      <point x="-8" y="-47" type="curve" smooth="yes"/>
      <point x="394" y="648" type="line"/>
      <point x="398" y="654"/>
      <point x="394" y="665"/>
      <point x="387" y="665" type="curve" smooth="yes"/>
      <point x="370" y="665"/>
      <point x="355" y="663"/>
      <point x="346" y="648" type="curve" smooth="yes"/>
      <point x="-56" y="-47" type="line"/>
      <point x="-60" y="-53"/>
      <point x="-53" y="-62"/>
    </contour>
  </outline>
</glyph>
<glyph name="one" format="2">
  <advance width="480"/>
  <unicode hex="0031"/>
  <note>
one.tablining
</note>
  <outline>
    <contour>
      <point x="44" y="-3" type="curve" smooth="yes"/>
      <point x="94" y="-3"/>
      <point x="147" y="2"/>
      <point x="197" y="2" type="curve" smooth="yes"/>
      <point x="242" y="2"/>
      <point x="288" y="-3"/>
      <point x="341" y="-3" type="curve" smooth="yes"/>
      <point x="348" y="-3"/>
      <point x="355" y="2"/>
      <point x="357" y="8" type="curve" smooth="yes"/>
      <point x="359" y="14"/>
      <point x="353" y="20"/>
      <point x="346" y="22" type="curve" smooth="yes"/>
      <point x="290" y="38"/>
      <point x="244" y="37"/>
      <point x="259" y="86" type="curve" smooth="yes"/>
      <point x="404" y="557" type="line" smooth="yes"/>
      <point x="413" y="585"/>
      <point x="421" y="608"/>
      <point x="430" y="628" type="curve"/>
      <point x="432" y="633"/>
      <point x="427" y="637"/>
      <point x="422" y="637" type="curve" smooth="yes"/>
      <point x="418" y="637"/>
      <point x="413" y="635"/>
      <point x="409" y="633" type="curve" smooth="yes"/>
      <point x="366" y="612"/>
      <point x="296" y="579"/>
      <point x="241" y="574" type="curve" smooth="yes"/>
      <point x="231" y="573"/>
      <point x="218" y="567"/>
      <point x="218" y="556" type="curve" smooth="yes"/>
      <point x="218" y="549"/>
      <point x="226" y="544"/>
      <point x="233" y="543" type="curve" smooth="yes"/>
      <point x="286" y="535"/>
      <point x="321" y="524"/>
      <point x="306" y="477" type="curve" smooth="yes"/>
      <point x="190" y="103" type="line" smooth="yes"/>
      <point x="174" y="52"/>
      <point x="118" y="35"/>
      <point x="51" y="22" type="curve" smooth="yes"/>
      <point x="41" y="20"/>
      <point x="32" y="15"/>
      <point x="32" y="6" type="curve" smooth="yes"/>
      <point x="32" y="1"/>
      <point x="39" y="-3"/>
    </contour>
  </outline>
</glyph>
<glyph name="less" format="2">
  <advance width="590"/>
  <unicode hex="003C"/>
  <note>
less
</note>
  <outline>
    <contour>
      <point x="520" y="-4" type="line"/>
      <point x="527" y="-6"/>
      <point x="537" y="0"/>
      <point x="537" y="11" type="curve" smooth="yes"/>
      <point x="537" y="20"/>
      <point x="532" y="46"/>
      <point x="513" y="55" type="curve" smooth="yes"/>
      <point x="133" y="229" type="line"/>
      <point x="130" y="230"/>
      <point x="129" y="233"/>
      <point x="132" y="234" type="curve"/>
      <point x="505" y="408" type="line" smooth="yes"/>
      <point x="525" y="417"/>
      <point x="537" y="436"/>
      <point x="537" y="454" type="curve" smooth="yes"/>
      <point x="537" y="469"/>
      <point x="527" y="471"/>
      <point x="516" y="466" type="curve" smooth="yes"/>
      <point x="86" y="268" type="line" smooth="yes"/>
      <point x="66" y="259"/>
      <point x="53" y="231"/>
      <point x="53" y="222" type="curve" smooth="yes"/>
      <point x="53" y="216"/>
      <point x="77" y="203"/>
      <point x="94" y="195" type="curve" smooth="yes"/>
    </contour>
  </outline>
</glyph>
<glyph name="equal" format="2">
  <advance width="590"/>
  <unicode hex="003D"/>
  <note>
equal
</note>
  <outline>
    <contour>
      <point x="81" y="314" type="curve" smooth="yes"/>
      <point x="526" y="314" type="line" smooth="yes"/>
      <point x="542" y="314"/>
      <point x="558" y="339"/>
      <point x="558" y="353" type="curve" smooth="yes"/>
      <point x="558" y="359"/>
      <point x="550" y="364"/>
      <point x="544" y="364" type="curve" smooth="yes"/>
      <point x="91" y="364" type="line" smooth="yes"/>
      <point x="73" y="364"/>
      <point x="67" y="335"/>
      <point x="67" y="326" type="curve" smooth="yes"/>
      <point x="67" y="320"/>
      <point x="74" y="314"/>
    </contour>
    <contour>
      <point x="81" y="143" type="curve" smooth="yes"/>
      <point x="526" y="143" type="line" smooth="yes"/>
      <point x="542" y="143"/>
      <point x="558" y="164"/>
      <point x="558" y="182" type="curve" smooth="yes"/>
      <point x="558" y="188"/>
      <point x="550" y="193"/>
      <point x="544" y="193" type="curve" smooth="yes"/>
      <point x="91" y="193" type="line" smooth="yes"/>
      <point x="73" y="193"/>
      <point x="67" y="164"/>
      <point x="67" y="155" type="curve" smooth="yes"/>
      <point x="67" y="149"/>
      <point x="74" y="143"/>
    </contour>
  </outline>
</glyph>
<glyph name="at" format="2">
  <advance width="761"/>
  <unicode hex="0040"/>
  <note>
at
</note>
  <outline>
    <contour>
      <point x="306" y="-137" type="curve" smooth="yes"/>
      <point x="449" y="-137"/>
      <point x="584" y="-50"/>
      <point x="592" y="-26" type="curve" smooth="yes"/>
      <point x="595" y="-17"/>
      <point x="591" y="-13"/>
      <point x="582" y="-13" type="curve" smooth="yes"/>
      <point x="577" y="-13"/>
      <point x="568" y="-17"/>
      <point x="560" y="-23" type="curve" smooth="yes"/>
      <point x="496" y="-71"/>
      <point x="422" y="-97"/>
      <point x="330" y="-97" type="curve" smooth="yes"/>
      <point x="179" y="-97"/>
      <point x="86" y="-39"/>
      <point x="86" y="109" type="curve" smooth="yes"/>
      <point x="86" y="311"/>
      <point x="280" y="470"/>
      <point x="441" y="470" type="curve" smooth="yes"/>
      <point x="600" y="470"/>
      <point x="680" y="381"/>
      <point x="680" y="283" type="curve" smooth="yes"/>
      <point x="680" y="184"/>
      <point x="607" y="74"/>
      <point x="500" y="74" type="curve" smooth="yes"/>
      <point x="468" y="74"/>
      <point x="474" y="104"/>
      <point x="485" y="127" type="curve" smooth="yes"/>
      <point x="561" y="288" type="line" smooth="yes"/>
      <point x="569" y="304"/>
      <point x="583" y="328"/>
      <point x="600" y="352" type="curve"/>
      <point x="604" y="356"/>
      <point x="588" y="360"/>
      <point x="584" y="360" type="curve" smooth="yes"/>
      <point x="574" y="360"/>
      <point x="563" y="341"/>
      <point x="553" y="341" type="curve" smooth="yes"/>
      <point x="549" y="341"/>
      <point x="546" y="343"/>
      <point x="532" y="347" type="curve" smooth="yes"/>
      <point x="512" y="353"/>
      <point x="491" y="357"/>
      <point x="470" y="357" type="curve" smooth="yes"/>
      <point x="296" y="357"/>
      <point x="199" y="237"/>
      <point x="196" y="146" type="curve" smooth="yes"/>
      <point x="194" y="91"/>
      <point x="227" y="47"/>
      <point x="298" y="47" type="curve" smooth="yes"/>
      <point x="349" y="47"/>
      <point x="395" y="81"/>
      <point x="410" y="91" type="curve" smooth="yes"/>
      <point x="421" y="98"/>
      <point x="424" y="96"/>
      <point x="424" y="88" type="curve" smooth="yes"/>
      <point x="423" y="65"/>
      <point x="427" y="32"/>
      <point x="471" y="32" type="curve" smooth="yes"/>
      <point x="632" y="32"/>
      <point x="728" y="172"/>
      <point x="728" y="288" type="curve" smooth="yes"/>
      <point x="728" y="385"/>
      <point x="635" y="507"/>
      <point x="463" y="507" type="curve" smooth="yes"/>
      <point x="202" y="507"/>
      <point x="32" y="280"/>
      <point x="32" y="91" type="curve" smooth="yes"/>
      <point x="32" y="-34"/>
      <point x="117" y="-137"/>
    </contour>
    <contour>
      <point x="328" y="81" type="curve" smooth="yes"/>
      <point x="284" y="81"/>
      <point x="264" y="115"/>
      <point x="264" y="158" type="curve" smooth="yes"/>
      <point x="266" y="230"/>
      <point x="327" y="326"/>
      <point x="439" y="326" type="curve" smooth="yes"/>
      <point x="485" y="326"/>
      <point x="502" y="318"/>
      <point x="502" y="300" type="curve" smooth="yes"/>
      <point x="502" y="291"/>
      <point x="498" y="280"/>
      <point x="492" y="266" type="curve" smooth="yes"/>
      <point x="437" y="152" type="line" smooth="yes"/>
      <point x="422" y="121"/>
      <point x="409" y="111"/>
      <point x="395" y="103" type="curve" smooth="yes"/>
      <point x="370" y="89"/>
      <point x="352" y="81"/>
    </contour>
  </outline>
</glyph>
<glyph name="B" format="2">
  <advance width="572"/>
  <unicode hex="0042"/>
  <note>
B
</note>
  <anchor x="243" y="-30" name="bottom.cap"/>
  <anchor x="401" y="675" name="top.cap"/>
  <outline>
    <contour>
      <point x="4" y="-5" type="curve" smooth="yes"/>
      <point x="58" y="-5"/>
      <point x="78" y="3"/>
      <point x="126" y="3" type="curve" smooth="yes"/>
      <point x="163" y="3"/>
      <point x="196" y="-4"/>
      <point x="252" y="-4" type="curve" smooth="yes"/>
      <point x="405" y="-4"/>
      <point x="520" y="76"/>
      <point x="520" y="192" type="curve" smooth="yes"/>
      <point x="520" y="285"/>
      <point x="472" y="326"/>
      <point x="395" y="356" type="curve" smooth="yes"/>
      <point x="390" y="358"/>
      <point x="387" y="365"/>
      <point x="398" y="366" type="curve" smooth="yes"/>
      <point x="474" y="376"/>
      <point x="577" y="430"/>
      <point x="577" y="525" type="curve" smooth="yes"/>
      <point x="577" y="595"/>
      <point x="527" y="655"/>
      <point x="392" y="655" type="curve" smooth="yes"/>
      <point x="367" y="655"/>
      <point x="320" y="645"/>
      <point x="290" y="645" type="curve" smooth="yes"/>
      <point x="262" y="645"/>
      <point x="248" y="650"/>
      <point x="215" y="650" type="curve" smooth="yes"/>
      <point x="199" y="650"/>
      <point x="182" y="647"/>
      <point x="182" y="638" type="curve" smooth="yes"/>
      <point x="182" y="628"/>
      <point x="189" y="625"/>
      <point x="209" y="621" type="curve" smooth="yes"/>
      <point x="254" y="613"/>
      <point x="264" y="598"/>
      <point x="249" y="549" type="curve" smooth="yes"/>
      <point x="112" y="99" type="line" smooth="yes"/>
      <point x="97" y="51"/>
      <point x="65" y="33"/>
      <point x="16" y="24" type="curve" smooth="yes"/>
      <point x="-7" y="20"/>
      <point x="-20" y="16"/>
      <point x="-20" y="6" type="curve" smooth="yes"/>
      <point x="-20" y="-3"/>
      <point x="-12" y="-5"/>
    </contour>
    <contour>
      <point x="249" y="21" type="curve" smooth="yes"/>
      <point x="226" y="21"/>
      <point x="213" y="32"/>
      <point x="199" y="45" type="curve" smooth="yes"/>
      <point x="183" y="59"/>
      <point x="182" y="84"/>
      <point x="189" y="108" type="curve" smooth="yes"/>
      <point x="253" y="327" type="line" smooth="yes"/>
      <point x="256" y="339"/>
      <point x="264" y="346"/>
      <point x="274" y="346" type="curve" smooth="yes"/>
      <point x="383" y="346"/>
      <point x="439" y="297"/>
      <point x="439" y="205" type="curve" smooth="yes"/>
      <point x="439" y="99"/>
      <point x="339" y="21"/>
    </contour>
    <contour>
      <point x="285" y="371" type="curve" smooth="yes"/>
      <point x="275" y="371"/>
      <point x="270" y="374"/>
      <point x="273" y="386" type="curve" smooth="yes"/>
      <point x="335" y="609" type="line" smooth="yes"/>
      <point x="338" y="621"/>
      <point x="348" y="625"/>
      <point x="373" y="625" type="curve" smooth="yes"/>
      <point x="451" y="625"/>
      <point x="496" y="580"/>
      <point x="496" y="525" type="curve" smooth="yes"/>
      <point x="496" y="457"/>
      <point x="443" y="411"/>
      <point x="377" y="383" type="curve"/>
      <point x="345" y="376"/>
      <point x="316" y="371"/>
    </contour>
  </outline>
</glyph>
<glyph name="D" format="2">
  <advance width="752"/>
  <unicode hex="0044"/>
  <note>
D
</note>
  <anchor x="301" y="-30" name="bottom.cap"/>
  <anchor x="475" y="675" name="top.cap"/>
  <outline>
    <contour>
      <point x="317" y="-7" type="curve" smooth="yes"/>
      <point x="570" y="-7"/>
      <point x="745" y="174"/>
      <point x="745" y="377" type="curve" smooth="yes"/>
      <point x="745" y="560"/>
      <point x="619" y="655"/>
      <point x="432" y="655" type="curve" smooth="yes"/>
      <point x="385" y="655"/>
      <point x="369" y="649"/>
      <point x="329" y="649" type="curve" smooth="yes"/>
      <point x="287" y="649"/>
      <point x="245" y="653"/>
      <point x="192" y="653" type="curve" smooth="yes"/>
      <point x="176" y="653"/>
      <point x="162" y="650"/>
      <point x="162" y="642" type="curve" smooth="yes"/>
      <point x="162" y="633"/>
      <point x="166" y="626"/>
      <point x="186" y="622" type="curve" smooth="yes"/>
      <point x="230" y="613"/>
      <point x="288" y="608"/>
      <point x="273" y="560" type="curve" smooth="yes"/>
      <point x="123" y="99" type="line" smooth="yes"/>
      <point x="107" y="51"/>
      <point x="95" y="26"/>
      <point x="32" y="24" type="curve" smooth="yes"/>
      <point x="9" y="23"/>
      <point x="-4" y="15"/>
      <point x="-4" y="6" type="curve" smooth="yes"/>
      <point x="-4" y="-2"/>
      <point x="4" y="-5"/>
      <point x="20" y="-5" type="curve" smooth="yes"/>
      <point x="69" y="-5"/>
      <point x="87" y="0"/>
      <point x="124" y="0" type="curve" smooth="yes"/>
      <point x="197" y="0"/>
      <point x="298" y="-7"/>
    </contour>
    <contour>
      <point x="322" y="23" type="curve" smooth="yes"/>
      <point x="230" y="23"/>
      <point x="183" y="52"/>
      <point x="211" y="141" type="curve" smooth="yes"/>
      <point x="347" y="571" type="line" smooth="yes"/>
      <point x="358" y="605"/>
      <point x="358" y="622"/>
      <point x="442" y="622" type="curve" smooth="yes"/>
      <point x="577" y="622"/>
      <point x="659" y="548"/>
      <point x="659" y="395" type="curve" smooth="yes"/>
      <point x="659" y="207"/>
      <point x="521" y="23"/>
    </contour>
  </outline>
</glyph>
<glyph name="E" format="2">
  <advance width="576"/>
  <unicode hex="0045"/>
  <anchor x="288" y="-30" name="bottom.cap"/>
  <anchor x="426" y="675" name="top.cap"/>
  <note>
E
</note>
  <outline>
    <contour>
      <point x="-8" y="-5" type="curve" smooth="yes"/>
      <point x="42" y="-5"/>
      <point x="63" y="1"/>
      <point x="112" y="1" type="curve" smooth="yes"/>
      <point x="205" y="1"/>
      <point x="328" y="-5"/>
      <point x="465" y="-5" type="curve" smooth="yes"/>
      <point x="481" y="-5"/>
      <point x="490" y="3"/>
      <point x="498" y="16" type="curve" smooth="yes"/>
      <point x="512" y="39"/>
      <point x="537" y="96"/>
      <point x="537" y="114" type="curve" smooth="yes"/>
      <point x="537" y="122"/>
      <point x="536" y="134"/>
      <point x="530" y="134" type="curve" smooth="yes"/>
      <point x="522" y="134"/>
      <point x="517" y="124"/>
      <point x="512" y="116" type="curve" smooth="yes"/>
      <point x="495" y="88"/>
      <point x="478" y="67"/>
      <point x="458" y="53" type="curve" smooth="yes"/>
      <point x="437" y="38"/>
      <point x="411" y="26"/>
      <point x="378" y="26" type="curve" smooth="yes"/>
      <point x="223" y="26" type="line" smooth="yes"/>
      <point x="181" y="26"/>
      <point x="170" y="41"/>
      <point x="189" y="109" type="curve" smooth="yes"/>
      <point x="240" y="291" type="line" smooth="yes"/>
      <point x="248" y="320"/>
      <point x="265" y="322"/>
      <point x="288" y="322" type="curve" smooth="yes"/>
      <point x="403" y="320" type="line" smooth="yes"/>
      <point x="426" y="320"/>
      <point x="441" y="305"/>
      <point x="441" y="264" type="curve" smooth="yes"/>
      <point x="441" y="257"/>
      <point x="443" y="237"/>
      <point x="454" y="237" type="curve" smooth="yes"/>
      <point x="461" y="237"/>
      <point x="465" y="249"/>
      <point x="467" y="258" type="curve" smooth="yes"/>
      <point x="473" y="287"/>
      <point x="479" y="309"/>
      <point x="487" y="331" type="curve" smooth="yes"/>
      <point x="494" y="350"/>
      <point x="502" y="369"/>
      <point x="514" y="392" type="curve" smooth="yes"/>
      <point x="521" y="406"/>
      <point x="520" y="420"/>
      <point x="510" y="420" type="curve" smooth="yes"/>
      <point x="498" y="420"/>
      <point x="486" y="400"/>
      <point x="477" y="389" type="curve" smooth="yes"/>
      <point x="461" y="369"/>
      <point x="442" y="353"/>
      <point x="408" y="352" type="curve" smooth="yes"/>
      <point x="284" y="349" type="line" smooth="yes"/>
      <point x="263" y="348"/>
      <point x="260" y="356"/>
      <point x="268" y="380" type="curve" smooth="yes"/>
      <point x="335" y="592" type="line" smooth="yes"/>
      <point x="342" y="614"/>
      <point x="352" y="622"/>
      <point x="384" y="622" type="curve" smooth="yes"/>
      <point x="506" y="622" type="line" smooth="yes"/>
      <point x="559" y="622"/>
      <point x="569" y="602"/>
      <point x="565" y="541" type="curve" smooth="yes"/>
      <point x="564" y="526"/>
      <point x="569" y="516"/>
      <point x="576" y="516" type="curve" smooth="yes"/>
      <point x="582" y="516"/>
      <point x="591" y="521"/>
      <point x="593" y="535" type="curve" smooth="yes"/>
      <point x="601" y="593"/>
      <point x="623" y="635"/>
      <point x="623" y="647" type="curve" smooth="yes"/>
      <point x="623" y="652"/>
      <point x="617" y="660"/>
      <point x="612" y="660" type="curve" smooth="yes"/>
      <point x="607" y="660"/>
      <point x="584" y="650"/>
      <point x="475" y="650" type="curve" smooth="yes"/>
      <point x="314" y="650" type="line" smooth="yes"/>
      <point x="272" y="650"/>
      <point x="208" y="653"/>
      <point x="193" y="653" type="curve" smooth="yes"/>
      <point x="177" y="653"/>
      <point x="162" y="650"/>
      <point x="162" y="642" type="curve" smooth="yes"/>
      <point x="162" y="633"/>
      <point x="168" y="628"/>
      <point x="188" y="625" type="curve" smooth="yes"/>
      <point x="247" y="617"/>
      <point x="262" y="606"/>
      <point x="244" y="549" type="curve" smooth="yes"/>
      <point x="107" y="99" type="line" smooth="yes"/>
      <point x="93" y="54"/>
      <point x="70" y="35"/>
      <point x="4" y="24" type="curve" smooth="yes"/>
      <point x="-19" y="20"/>
      <point x="-32" y="15"/>
      <point x="-32" y="6" type="curve" smooth="yes"/>
      <point x="-32" y="-2"/>
      <point x="-24" y="-5"/>
    </contour>
  </outline>
</glyph>
<glyph name="G" format="2">
  <advance width="687"/>
  <unicode hex="0047"/>
  <anchor x="383" y="-30" name="bottom.cap"/>
  <anchor x="510" y="675" name="top"/>
  <anchor x="515" y="675" name="top.cap"/>
  <note>
G
</note>
  <outline>
    <contour>
      <point x="389" y="-14" type="curve" smooth="yes"/>
      <point x="448" y="-14"/>
      <point x="558" y="22"/>
      <point x="573" y="60" type="curve"/>
      <point x="565" y="72"/>
      <point x="562" y="80"/>
      <point x="562" y="92" type="curve" smooth="yes"/>
      <point x="562" y="107"/>
      <point x="580" y="174"/>
      <point x="598" y="213" type="curve" smooth="yes"/>
      <point x="610" y="240"/>
      <point x="625" y="251"/>
      <point x="655" y="256" type="curve" smooth="yes"/>
      <point x="676" y="260"/>
      <point x="687" y="269"/>
      <point x="687" y="276" type="curve" smooth="yes"/>
      <point x="687" y="284"/>
      <point x="678" y="290"/>
      <point x="666" y="290" type="curve" smooth="yes"/>
      <point x="633" y="290"/>
      <point x="614" y="284"/>
      <point x="581" y="284" type="curve" smooth="yes"/>
      <point x="535" y="284"/>
      <point x="510" y="290"/>
      <point x="464" y="290" type="curve" smooth="yes"/>
      <point x="446" y="290"/>
      <point x="432" y="284"/>
      <point x="432" y="275" type="curve" smooth="yes"/>
      <point x="432" y="266"/>
      <point x="449" y="263"/>
      <point x="463" y="260" type="curve" smooth="yes"/>
      <point x="473" y="258"/>
      <point x="491" y="255"/>
      <point x="508" y="250" type="curve" smooth="yes"/>
      <point x="526" y="245"/>
      <point x="532" y="234"/>
      <point x="526" y="209" type="curve" smooth="yes"/>
      <point x="498" y="100" type="line" smooth="yes"/>
      <point x="486" y="53"/>
      <point x="450" y="14"/>
      <point x="389" y="14" type="curve" smooth="yes"/>
      <point x="288" y="14"/>
      <point x="169" y="95"/>
      <point x="169" y="228" type="curve" smooth="yes"/>
      <point x="169" y="431"/>
      <point x="310" y="634"/>
      <point x="495" y="634" type="curve" smooth="yes"/>
      <point x="547" y="634"/>
      <point x="579" y="608"/>
      <point x="596" y="585" type="curve" smooth="yes"/>
      <point x="617" y="557"/>
      <point x="618" y="523"/>
      <point x="613" y="493" type="curve" smooth="yes"/>
      <point x="610" y="475"/>
      <point x="615" y="464"/>
      <point x="628" y="464" type="curve" smooth="yes"/>
      <point x="635" y="464"/>
      <point x="643" y="474"/>
      <point x="646" y="487" type="curve" smooth="yes"/>
      <point x="655" y="532"/>
      <point x="691" y="599"/>
      <point x="713" y="629" type="curve"/>
      <point x="717" y="634"/>
      <point x="718" y="645"/>
      <point x="706" y="645" type="curve" smooth="yes"/>
      <point x="699" y="645"/>
      <point x="693" y="642"/>
      <point x="686" y="638" type="curve" smooth="yes"/>
      <point x="678" y="634"/>
      <point x="670" y="629"/>
      <point x="663" y="629" type="curve" smooth="yes"/>
      <point x="647" y="629"/>
      <point x="631" y="636"/>
      <point x="611" y="644" type="curve" smooth="yes"/>
      <point x="587" y="653"/>
      <point x="557" y="663"/>
      <point x="514" y="663" type="curve" smooth="yes"/>
      <point x="268" y="663"/>
      <point x="81" y="486"/>
      <point x="81" y="254" type="curve" smooth="yes"/>
      <point x="81" y="73"/>
      <point x="217" y="-14"/>
    </contour>
  </outline>
</glyph>
<glyph name="J" format="2">
  <advance width="293"/>
  <unicode hex="004A"/>
  <anchor x="295" y="675" name="top.cap"/>
  <note>
J
</note>
  <outline>
    <contour>
      <point x="-95" y="-200" type="curve" smooth="yes"/>
      <point x="-40" y="-200"/>
      <point x="2" y="-173"/>
      <point x="39" y="-134" type="curve" smooth="yes"/>
      <point x="77" y="-94"/>
      <point x="109" y="-68"/>
      <point x="173" y="142" type="curve" smooth="yes"/>
      <point x="298" y="551" type="line" smooth="yes"/>
      <point x="313" y="597"/>
      <point x="324" y="613"/>
      <point x="373" y="622" type="curve" smooth="yes"/>
      <point x="396" y="626"/>
      <point x="409" y="633"/>
      <point x="409" y="642" type="curve" smooth="yes"/>
      <point x="409" y="650"/>
      <point x="402" y="653"/>
      <point x="386" y="653" type="curve" smooth="yes"/>
      <point x="336" y="653"/>
      <point x="331" y="650"/>
      <point x="297" y="650" type="curve" smooth="yes"/>
      <point x="254" y="650"/>
      <point x="240" y="653"/>
      <point x="190" y="653" type="curve" smooth="yes"/>
      <point x="174" y="653"/>
      <point x="159" y="650"/>
      <point x="159" y="642" type="curve" smooth="yes"/>
      <point x="159" y="633"/>
      <point x="164" y="626"/>
      <point x="184" y="622" type="curve" smooth="yes"/>
      <point x="228" y="613"/>
      <point x="237" y="597"/>
      <point x="223" y="551" type="curve" smooth="yes"/>
      <point x="54" y="-5" type="line" smooth="yes"/>
      <point x="15" y="-134"/>
      <point x="-15" y="-162"/>
      <point x="-54" y="-162" type="curve" smooth="yes"/>
      <point x="-76" y="-162"/>
      <point x="-96" y="-147"/>
      <point x="-112" y="-135" type="curve" smooth="yes"/>
      <point x="-133" y="-120"/>
      <point x="-149" y="-102"/>
      <point x="-160" y="-102" type="curve" smooth="yes"/>
      <point x="-177" y="-102"/>
      <point x="-184" y="-119"/>
      <point x="-184" y="-147" type="curve" smooth="yes"/>
      <point x="-184" y="-169"/>
      <point x="-155" y="-200"/>
    </contour>
  </outline>
</glyph>
<glyph name="K" format="2">
  <advance width="699"/>
  <unicode hex="004B"/>
  <anchor x="321" y="-30" name="bottom.cap"/>
  <anchor x="477" y="675" name="top.cap"/>
  <note>
K
</note>
  <outline>
    <contour>
      <point x="7" y="-5" type="curve" smooth="yes"/>
      <point x="57" y="-5"/>
      <point x="80" y="2"/>
      <point x="126" y="2" type="curve" smooth="yes"/>
      <point x="164" y="2"/>
      <point x="173" y="-5"/>
      <point x="223" y="-5" type="curve" smooth="yes"/>
      <point x="239" y="-5"/>
      <point x="253" y="-2"/>
      <point x="253" y="6" type="curve" smooth="yes"/>
      <point x="253" y="15"/>
      <point x="248" y="20"/>
      <point x="228" y="24" type="curve" smooth="yes"/>
      <point x="184" y="33"/>
      <point x="171" y="53"/>
      <point x="187" y="110" type="curve" smooth="yes"/>
      <point x="241" y="302" type="line" smooth="yes"/>
      <point x="243" y="310"/>
      <point x="246" y="323"/>
      <point x="251" y="323" type="curve" smooth="yes"/>
      <point x="256" y="323"/>
      <point x="277" y="318"/>
      <point x="284" y="306" type="curve" smooth="yes"/>
      <point x="424" y="72" type="line" smooth="yes"/>
      <point x="443" y="40"/>
      <point x="442" y="36"/>
      <point x="403" y="27" type="curve" smooth="yes"/>
      <point x="384" y="23"/>
      <point x="373" y="19"/>
      <point x="373" y="10" type="curve" smooth="yes"/>
      <point x="373" y="2"/>
      <point x="380" y="-1"/>
      <point x="396" y="-1" type="curve" smooth="yes"/>
      <point x="438" y="-1"/>
      <point x="440" y="0"/>
      <point x="463" y="0" type="curve" smooth="yes"/>
      <point x="555" y="0"/>
      <point x="568" y="-5"/>
      <point x="623" y="-5" type="curve" smooth="yes"/>
      <point x="639" y="-5"/>
      <point x="653" y="-2"/>
      <point x="653" y="6" type="curve" smooth="yes"/>
      <point x="653" y="15"/>
      <point x="649" y="18"/>
      <point x="628" y="24" type="curve" smooth="yes"/>
      <point x="595" y="33"/>
      <point x="568" y="40"/>
      <point x="537" y="70" type="curve" smooth="yes"/>
      <point x="490" y="116"/>
      <point x="433" y="198"/>
      <point x="355" y="339" type="curve"/>
      <point x="351" y="346"/>
      <point x="351" y="352"/>
      <point x="356" y="357" type="curve" smooth="yes"/>
      <point x="447" y="439"/>
      <point x="509" y="496"/>
      <point x="595" y="558" type="curve" smooth="yes"/>
      <point x="650" y="597"/>
      <point x="707" y="615"/>
      <point x="756" y="624" type="curve" smooth="yes"/>
      <point x="779" y="628"/>
      <point x="793" y="635"/>
      <point x="793" y="644" type="curve" smooth="yes"/>
      <point x="793" y="651"/>
      <point x="788" y="655"/>
      <point x="776" y="655" type="curve" smooth="yes"/>
      <point x="740" y="655"/>
      <point x="677" y="651"/>
      <point x="624" y="651" type="curve" smooth="yes"/>
      <point x="574" y="651" type="line" smooth="yes"/>
      <point x="558" y="651"/>
      <point x="538" y="648"/>
      <point x="538" y="640" type="curve" smooth="yes"/>
      <point x="538" y="631"/>
      <point x="547" y="625"/>
      <point x="562" y="620" type="curve" smooth="yes"/>
      <point x="578" y="615"/>
      <point x="581" y="609"/>
      <point x="581" y="605" type="curve" smooth="yes"/>
      <point x="581" y="594"/>
      <point x="567" y="582"/>
      <point x="550" y="567" type="curve" smooth="yes"/>
      <point x="339" y="385" type="line" smooth="yes"/>
      <point x="312" y="362"/>
      <point x="292" y="347"/>
      <point x="272" y="347" type="curve" smooth="yes"/>
      <point x="262" y="347"/>
      <point x="258" y="350"/>
      <point x="261" y="360" type="curve" smooth="yes"/>
      <point x="317" y="551" type="line" smooth="yes"/>
      <point x="333" y="604"/>
      <point x="340" y="613"/>
      <point x="389" y="622" type="curve" smooth="yes"/>
      <point x="412" y="626"/>
      <point x="426" y="633"/>
      <point x="426" y="642" type="curve" smooth="yes"/>
      <point x="426" y="650"/>
      <point x="418" y="653"/>
      <point x="402" y="653" type="curve" smooth="yes"/>
      <point x="352" y="653"/>
      <point x="346" y="651"/>
      <point x="311" y="651" type="curve" smooth="yes"/>
      <point x="271" y="651"/>
      <point x="258" y="653"/>
      <point x="208" y="653" type="curve" smooth="yes"/>
      <point x="192" y="653"/>
      <point x="177" y="650"/>
      <point x="177" y="642" type="curve" smooth="yes"/>
      <point x="177" y="633"/>
      <point x="182" y="626"/>
      <point x="202" y="622" type="curve" smooth="yes"/>
      <point x="246" y="613"/>
      <point x="257" y="597"/>
      <point x="243" y="551" type="curve" smooth="yes"/>
      <point x="105" y="101" type="line" smooth="yes"/>
      <point x="90" y="51"/>
      <point x="68" y="33"/>
      <point x="19" y="24" type="curve" smooth="yes"/>
      <point x="-4" y="20"/>
      <point x="-17" y="15"/>
      <point x="-17" y="6" type="curve" smooth="yes"/>
      <point x="-17" y="-2"/>
      <point x="-9" y="-5"/>
    </contour>
  </outline>
</glyph>
<glyph name="L" format="2">
  <advance width="583"/>
  <unicode hex="004C"/>
  <anchor x="301" y="-30" name="bottom.cap"/>
  <anchor x="353" y="675" name="top.cap"/>
  <note>
L
</note>
  <outline>
    <contour>
      <point x="4" y="-5" type="curve" smooth="yes"/>
      <point x="54" y="-5"/>
      <point x="80" y="1"/>
      <point x="129" y="1" type="curve" smooth="yes"/>
      <point x="222" y="1"/>
      <point x="329" y="-5"/>
      <point x="480" y="-5" type="curve" smooth="yes"/>
      <point x="489" y="-5"/>
      <point x="498" y="3"/>
      <point x="503" y="11" type="curve" smooth="yes"/>
      <point x="521" y="39"/>
      <point x="554" y="132"/>
      <point x="554" y="150" type="curve" smooth="yes"/>
      <point x="554" y="158"/>
      <point x="552" y="162"/>
      <point x="546" y="162" type="curve" smooth="yes"/>
      <point x="538" y="162"/>
      <point x="536" y="160"/>
      <point x="530" y="152" type="curve" smooth="yes"/>
      <point x="509" y="121"/>
      <point x="494" y="97"/>
      <point x="469" y="72" type="curve" smooth="yes"/>
      <point x="443" y="46"/>
      <point x="401" y="30"/>
      <point x="328" y="30" type="curve" smooth="yes"/>
      <point x="248" y="30" type="line" smooth="yes"/>
      <point x="198" y="30"/>
      <point x="191" y="62"/>
      <point x="206" y="113" type="curve" smooth="yes"/>
      <point x="341" y="567" type="line" smooth="yes"/>
      <point x="353" y="606"/>
      <point x="390" y="620"/>
      <point x="442" y="625" type="curve" smooth="yes"/>
      <point x="465" y="627"/>
      <point x="481" y="631"/>
      <point x="481" y="642" type="curve" smooth="yes"/>
      <point x="481" y="650"/>
      <point x="474" y="653"/>
      <point x="458" y="653" type="curve" smooth="yes"/>
      <point x="408" y="653"/>
      <point x="382" y="648"/>
      <point x="336" y="648" type="curve" smooth="yes"/>
      <point x="295" y="648"/>
      <point x="282" y="653"/>
      <point x="232" y="653" type="curve" smooth="yes"/>
      <point x="216" y="653"/>
      <point x="202" y="650"/>
      <point x="202" y="642" type="curve" smooth="yes"/>
      <point x="202" y="633"/>
      <point x="207" y="626"/>
      <point x="227" y="622" type="curve" smooth="yes"/>
      <point x="271" y="613"/>
      <point x="279" y="608"/>
      <point x="264" y="560" type="curve" smooth="yes"/>
      <point x="123" y="99" type="line" smooth="yes"/>
      <point x="109" y="52"/>
      <point x="65" y="33"/>
      <point x="16" y="24" type="curve" smooth="yes"/>
      <point x="-7" y="20"/>
      <point x="-20" y="15"/>
      <point x="-20" y="6" type="curve" smooth="yes"/>
      <point x="-20" y="-2"/>
      <point x="-12" y="-5"/>
    </contour>
  </outline>
</glyph>
<glyph name="N" format="2">
  <advance width="771"/>
  <unicode hex="004E"/>
  <anchor x="382" y="-30" name="bottom.cap"/>
  <anchor x="534" y="675" name="top.cap"/>
  <note>
N
</note>
  <outline>
    <contour>
      <point x="16" y="-5" type="curve" smooth="yes"/>
      <point x="66" y="-5"/>
      <point x="82" y="0"/>
      <point x="123" y="0" type="curve" smooth="yes"/>
      <point x="157" y="0"/>
      <point x="172" y="-5"/>
      <point x="222" y="-5" type="curve" smooth="yes"/>
      <point x="238" y="-5"/>
      <point x="252" y="-2"/>
      <point x="252" y="6" type="curve" smooth="yes"/>
      <point x="252" y="15"/>
      <point x="243" y="19"/>
      <point x="223" y="23" type="curve" smooth="yes"/>
      <point x="172" y="33"/>
      <point x="152" y="58"/>
      <point x="161" y="96" type="curve" smooth="yes"/>
      <point x="196" y="241"/>
      <point x="249" y="406"/>
      <point x="276" y="505" type="curve" smooth="yes"/>
      <point x="282" y="527"/>
      <point x="293" y="539"/>
      <point x="300" y="539" type="curve" smooth="yes"/>
      <point x="307" y="539"/>
      <point x="316" y="530"/>
      <point x="324" y="515" type="curve" smooth="yes"/>
      <point x="402" y="369"/>
      <point x="479" y="172"/>
      <point x="551" y="21" type="curve" smooth="yes"/>
      <point x="561" y="0"/>
      <point x="572" y="-5"/>
      <point x="593" y="-5" type="curve" smooth="yes"/>
      <point x="610" y="-5"/>
      <point x="633" y="0"/>
      <point x="670" y="0" type="curve" smooth="yes"/>
      <point x="674" y="0"/>
      <point x="678" y="0"/>
      <point x="678" y="6" type="curve" smooth="yes"/>
      <point x="678" y="19"/>
      <point x="670" y="25"/>
      <point x="659" y="33" type="curve" smooth="yes"/>
      <point x="648" y="41"/>
      <point x="634" y="47"/>
      <point x="626" y="66" type="curve" smooth="yes"/>
      <point x="619" y="82"/>
      <point x="616" y="92"/>
      <point x="622" y="113" type="curve" smooth="yes"/>
      <point x="635" y="158"/>
      <point x="762" y="531"/>
      <point x="772" y="555" type="curve" smooth="yes"/>
      <point x="794" y="607"/>
      <point x="804" y="618"/>
      <point x="855" y="622" type="curve" smooth="yes"/>
      <point x="878" y="624"/>
      <point x="892" y="633"/>
      <point x="892" y="642" type="curve" smooth="yes"/>
      <point x="892" y="650"/>
      <point x="885" y="653"/>
      <point x="869" y="653" type="curve" smooth="yes"/>
      <point x="812" y="653"/>
      <point x="793" y="647"/>
      <point x="754" y="647" type="curve" smooth="yes"/>
      <point x="715" y="647"/>
      <point x="683" y="651"/>
      <point x="647" y="651" type="curve" smooth="yes"/>
      <point x="631" y="651"/>
      <point x="614" y="647"/>
      <point x="614" y="639" type="curve" smooth="yes"/>
      <point x="614" y="630"/>
      <point x="621" y="623"/>
      <point x="641" y="620" type="curve" smooth="yes"/>
      <point x="705" y="610"/>
      <point x="730" y="591"/>
      <point x="719" y="544" type="curve" smooth="yes"/>
      <point x="712" y="513"/>
      <point x="617" y="198"/>
      <point x="600" y="155" type="curve" smooth="yes"/>
      <point x="594" y="140"/>
      <point x="592" y="135"/>
      <point x="587" y="135" type="curve" smooth="yes"/>
      <point x="580" y="135"/>
      <point x="570" y="148"/>
      <point x="567" y="154" type="curve" smooth="yes"/>
      <point x="338" y="636" type="line" smooth="yes"/>
      <point x="333" y="646"/>
      <point x="323" y="653"/>
      <point x="312" y="653" type="curve" smooth="yes"/>
      <point x="278" y="653"/>
      <point x="237" y="658"/>
      <point x="183" y="658" type="curve" smooth="yes"/>
      <point x="176" y="658"/>
      <point x="158" y="657"/>
      <point x="158" y="644" type="curve" smooth="yes"/>
      <point x="158" y="633"/>
      <point x="174" y="627"/>
      <point x="197" y="625" type="curve" smooth="yes"/>
      <point x="273" y="620"/>
      <point x="271" y="586"/>
      <point x="252" y="526" type="curve" smooth="yes"/>
      <point x="113" y="95" type="line" smooth="yes"/>
      <point x="103" y="63"/>
      <point x="84" y="38"/>
      <point x="21" y="24" type="curve" smooth="yes"/>
      <point x="-2" y="19"/>
      <point x="-8" y="15"/>
      <point x="-8" y="6" type="curve" smooth="yes"/>
      <point x="-8" y="-2"/>
      <point x="0" y="-5"/>
    </contour>
  </outline>
</glyph>
<glyph name="O" format="2">
  <advance width="694"/>
  <unicode hex="004F"/>
  <note>
O
</note>
  <anchor x="298" y="-30" name="bottom.cap"/>
  <anchor x="489" y="675" name="top.cap"/>
  <outline>
    <contour>
      <point x="303" y="-14" type="curve" smooth="yes"/>
      <point x="553" y="-14"/>
      <point x="693" y="215"/>
      <point x="693" y="407" type="curve" smooth="yes"/>
      <point x="693" y="545"/>
      <point x="624" y="664"/>
      <point x="468" y="664" type="curve" smooth="yes"/>
      <point x="218" y="664"/>
      <point x="78" y="435"/>
      <point x="78" y="243" type="curve" smooth="yes"/>
      <point x="78" y="105"/>
      <point x="147" y="-14"/>
    </contour>
    <contour>
      <point x="306" y="17" type="curve" smooth="yes"/>
      <point x="204" y="17"/>
      <point x="163" y="111"/>
      <point x="163" y="205" type="curve" smooth="yes"/>
      <point x="163" y="399"/>
      <point x="292" y="636"/>
      <point x="465" y="636" type="curve" smooth="yes"/>
      <point x="567" y="636"/>
      <point x="608" y="539"/>
      <point x="608" y="445" type="curve" smooth="yes"/>
      <point x="608" y="251"/>
      <point x="487" y="17"/>
    </contour>
  </outline>
</glyph>
<glyph name="P" format="2">
  <advance width="566"/>
  <unicode hex="0050"/>
  <anchor x="422" y="675" name="top.cap"/>
  <note>
P
</note>
  <outline>
    <contour>
      <point x="25" y="-5" type="curve" smooth="yes"/>
      <point x="75" y="-5"/>
      <point x="100" y="2"/>
      <point x="148" y="2" type="curve" smooth="yes"/>
      <point x="183" y="2"/>
      <point x="199" y="-5"/>
      <point x="249" y="-5" type="curve" smooth="yes"/>
      <point x="265" y="-5"/>
      <point x="279" y="-2"/>
      <point x="279" y="6" type="curve" smooth="yes"/>
      <point x="279" y="15"/>
      <point x="274" y="20"/>
      <point x="254" y="24" type="curve" smooth="yes"/>
      <point x="202" y="35"/>
      <point x="189" y="58"/>
      <point x="206" y="111" type="curve" smooth="yes"/>
      <point x="352" y="588" type="line" smooth="yes"/>
      <point x="361" y="618"/>
      <point x="365" y="630"/>
      <point x="382" y="630" type="curve" smooth="yes"/>
      <point x="482" y="630"/>
      <point x="535" y="563"/>
      <point x="535" y="480" type="curve" smooth="yes"/>
      <point x="535" y="376"/>
      <point x="468" y="313"/>
      <point x="383" y="290" type="curve" smooth="yes"/>
      <point x="365" y="286"/>
      <point x="347" y="282"/>
      <point x="328" y="280" type="curve" smooth="yes"/>
      <point x="316" y="279"/>
      <point x="305" y="275"/>
      <point x="305" y="267" type="curve" smooth="yes"/>
      <point x="305" y="256"/>
      <point x="334" y="254"/>
      <point x="347" y="254" type="curve" smooth="yes"/>
      <point x="488" y="254"/>
      <point x="620" y="343"/>
      <point x="620" y="472" type="curve" smooth="yes"/>
      <point x="620" y="587"/>
      <point x="534" y="656"/>
      <point x="408" y="656" type="curve" smooth="yes"/>
      <point x="382" y="656"/>
      <point x="318" y="652"/>
      <point x="297" y="652" type="curve" smooth="yes"/>
      <point x="268" y="652"/>
      <point x="218" y="653"/>
      <point x="208" y="653" type="curve" smooth="yes"/>
      <point x="192" y="653"/>
      <point x="177" y="650"/>
      <point x="177" y="642" type="curve" smooth="yes"/>
      <point x="177" y="633"/>
      <point x="182" y="629"/>
      <point x="202" y="627" type="curve" smooth="yes"/>
      <point x="268" y="621"/>
      <point x="281" y="596"/>
      <point x="263" y="537" type="curve" smooth="yes"/>
      <point x="129" y="100" type="line" smooth="yes"/>
      <point x="114" y="51"/>
      <point x="86" y="33"/>
      <point x="37" y="24" type="curve" smooth="yes"/>
      <point x="14" y="20"/>
      <point x="1" y="15"/>
      <point x="1" y="6" type="curve" smooth="yes"/>
      <point x="1" y="-2"/>
      <point x="9" y="-5"/>
    </contour>
  </outline>
</glyph>
<glyph name="Q" format="2">
  <advance width="694"/>
  <unicode hex="0051"/>
  <note>
Q
</note>
  <outline>
    <contour>
      <point x="544" y="-270" type="curve" smooth="yes"/>
      <point x="616" y="-270"/>
      <point x="683" y="-217"/>
      <point x="704" y="-171" type="curve" smooth="yes"/>
      <point x="711" y="-157"/>
      <point x="699" y="-145"/>
      <point x="684" y="-165" type="curve" smooth="yes"/>
      <point x="661" y="-196"/>
      <point x="627" y="-217"/>
      <point x="584" y="-217" type="curve" smooth="yes"/>
      <point x="535" y="-217"/>
      <point x="475" y="-180"/>
      <point x="412" y="-142" type="curve" smooth="yes"/>
      <point x="361" y="-111"/>
      <point x="297" y="-85"/>
      <point x="239" y="-85" type="curve" smooth="yes"/>
      <point x="222" y="-85"/>
      <point x="205" y="-88"/>
      <point x="188" y="-93" type="curve"/>
      <point x="209" y="-100" type="line"/>
      <point x="338" y="-60"/>
      <point x="391" y="-26"/>
      <point x="478" y="29" type="curve" smooth="yes"/>
      <point x="626" y="122"/>
      <point x="699" y="272"/>
      <point x="699" y="407" type="curve" smooth="yes"/>
      <point x="699" y="545"/>
      <point x="625" y="664"/>
      <point x="469" y="664" type="curve" smooth="yes"/>
      <point x="214" y="664"/>
      <point x="79" y="435"/>
      <point x="79" y="243" type="curve" smooth="yes"/>
      <point x="79" y="105"/>
      <point x="153" y="-14"/>
      <point x="314" y="-14" type="curve" smooth="yes"/>
      <point x="336" y="-14"/>
      <point x="357" y="-10"/>
      <point x="363" y="-10" type="curve"/>
      <point x="398" y="8" type="line"/>
      <point x="390" y="7"/>
      <point x="382" y="7"/>
      <point x="374" y="7" type="curve" smooth="yes"/>
      <point x="216" y="7"/>
      <point x="164" y="111"/>
      <point x="164" y="205" type="curve" smooth="yes"/>
      <point x="164" y="399"/>
      <point x="287" y="635"/>
      <point x="456" y="635" type="curve" smooth="yes"/>
      <point x="567" y="635"/>
      <point x="614" y="539"/>
      <point x="614" y="445" type="curve" smooth="yes"/>
      <point x="614" y="220"/>
      <point x="494" y="56"/>
      <point x="313" y="-26" type="curve" smooth="yes"/>
      <point x="241" y="-59"/>
      <point x="47" y="-115"/>
      <point x="47" y="-152" type="curve" smooth="yes"/>
      <point x="47" y="-162"/>
      <point x="48" y="-161"/>
      <point x="59" y="-161" type="curve" smooth="yes"/>
      <point x="71" y="-161"/>
      <point x="86" y="-152"/>
      <point x="106" y="-144" type="curve" smooth="yes"/>
      <point x="122" y="-138"/>
      <point x="144" y="-135"/>
      <point x="167" y="-135" type="curve" smooth="yes"/>
      <point x="233" y="-135"/>
      <point x="293" y="-165"/>
      <point x="350" y="-198" type="curve" smooth="yes"/>
      <point x="410" y="-232"/>
      <point x="473" y="-270"/>
    </contour>
  </outline>
</glyph>
<glyph name="R" format="2">
  <advance width="687"/>
  <unicode hex="0052"/>
  <anchor x="337" y="-30" name="bottom.cap"/>
  <anchor x="416" y="675" name="top.cap"/>
  <note>
R
</note>
  <outline>
    <contour>
      <point x="27" y="-5" type="curve" smooth="yes"/>
      <point x="77" y="-5"/>
      <point x="102" y="2"/>
      <point x="150" y="2" type="curve" smooth="yes"/>
      <point x="185" y="2"/>
      <point x="189" y="-5"/>
      <point x="239" y="-5" type="curve" smooth="yes"/>
      <point x="255" y="-5"/>
      <point x="269" y="-2"/>
      <point x="269" y="6" type="curve" smooth="yes"/>
      <point x="269" y="15"/>
      <point x="264" y="20"/>
      <point x="244" y="24" type="curve" smooth="yes"/>
      <point x="200" y="33"/>
      <point x="193" y="63"/>
      <point x="208" y="111" type="curve" smooth="yes"/>
      <point x="261" y="280" type="line" smooth="yes"/>
      <point x="265" y="294"/>
      <point x="272" y="298"/>
      <point x="301" y="298" type="curve" smooth="yes"/>
      <point x="337" y="298"/>
      <point x="346" y="288"/>
      <point x="362" y="249" type="curve" smooth="yes"/>
      <point x="387" y="189"/>
      <point x="432" y="89"/>
      <point x="465" y="32" type="curve" smooth="yes"/>
      <point x="483" y="1"/>
      <point x="528" y="-4"/>
      <point x="583" y="-4" type="curve" smooth="yes"/>
      <point x="609" y="-4"/>
      <point x="634" y="-2"/>
      <point x="634" y="13" type="curve" smooth="yes"/>
      <point x="634" y="22"/>
      <point x="617" y="24"/>
      <point x="600" y="27" type="curve" smooth="yes"/>
      <point x="561" y="34"/>
      <point x="541" y="46"/>
      <point x="515" y="98" type="curve" smooth="yes"/>
      <point x="497" y="134"/>
      <point x="439" y="259"/>
      <point x="425" y="295" type="curve" smooth="yes"/>
      <point x="421" y="304"/>
      <point x="425" y="309"/>
      <point x="434" y="312" type="curve" smooth="yes"/>
      <point x="520" y="339"/>
      <point x="607" y="398"/>
      <point x="607" y="507" type="curve" smooth="yes"/>
      <point x="607" y="612"/>
      <point x="512" y="655"/>
      <point x="410" y="655" type="curve" smooth="yes"/>
      <point x="384" y="655"/>
      <point x="336" y="652"/>
      <point x="299" y="652" type="curve" smooth="yes"/>
      <point x="289" y="652"/>
      <point x="220" y="653"/>
      <point x="210" y="653" type="curve" smooth="yes"/>
      <point x="194" y="653"/>
      <point x="176" y="649"/>
      <point x="176" y="639" type="curve" smooth="yes"/>
      <point x="176" y="629"/>
      <point x="184" y="624"/>
      <point x="204" y="622" type="curve" smooth="yes"/>
      <point x="279" y="615"/>
      <point x="287" y="608"/>
      <point x="265" y="538" type="curve" smooth="yes"/>
      <point x="131" y="100" type="line" smooth="yes"/>
      <point x="116" y="51"/>
      <point x="88" y="33"/>
      <point x="39" y="24" type="curve" smooth="yes"/>
      <point x="16" y="20"/>
      <point x="3" y="15"/>
      <point x="3" y="6" type="curve" smooth="yes"/>
      <point x="3" y="-2"/>
      <point x="11" y="-5"/>
    </contour>
    <contour>
      <point x="338" y="318" type="curve" smooth="yes"/>
      <point x="294" y="318"/>
      <point x="284" y="325"/>
      <point x="292" y="356" type="curve" smooth="yes"/>
      <point x="345" y="555" type="line" smooth="yes"/>
      <point x="362" y="618"/>
      <point x="373" y="630"/>
      <point x="402" y="630" type="curve" smooth="yes"/>
      <point x="472" y="630"/>
      <point x="524" y="576"/>
      <point x="524" y="508" type="curve" smooth="yes"/>
      <point x="524" y="360"/>
      <point x="394" y="318"/>
    </contour>
  </outline>
</glyph>
<glyph name="S" format="2">
  <advance width="467"/>
  <unicode hex="0053"/>
  <note>
S
</note>
  <guideline x="453" y="287" angle="73"/>
  <guideline x="369" y="319" angle="73"/>
  <guideline x="115" y="400" angle="73"/>
  <guideline x="161" y="314" angle="73"/>
  <anchor x="138" y="-30" name="bottom.cap"/>
  <anchor x="370" y="675" name="top.cap"/>
  <outline>
    <contour>
      <point x="182" y="-15" type="curve" smooth="yes"/>
      <point x="329" y="-15"/>
      <point x="409" y="74"/>
      <point x="409" y="184" type="curve" smooth="yes"/>
      <point x="409" y="240"/>
      <point x="375" y="286"/>
      <point x="307" y="348" type="curve" smooth="yes"/>
      <point x="239" y="411"/>
      <point x="214" y="453"/>
      <point x="214" y="506" type="curve" smooth="yes"/>
      <point x="214" y="570"/>
      <point x="271" y="635"/>
      <point x="342" y="635" type="curve" smooth="yes"/>
      <point x="412" y="635"/>
      <point x="459" y="585"/>
      <point x="459" y="492" type="curve" smooth="yes"/>
      <point x="459" y="477"/>
      <point x="461" y="466"/>
      <point x="471" y="466" type="curve" smooth="yes"/>
      <point x="475" y="466"/>
      <point x="484" y="478"/>
      <point x="487" y="498" type="curve" smooth="yes"/>
      <point x="502" y="601"/>
      <point x="525" y="626"/>
      <point x="525" y="629" type="curve" smooth="yes"/>
      <point x="525" y="634"/>
      <point x="523" y="645"/>
      <point x="513" y="645" type="curve" smooth="yes"/>
      <point x="506" y="645"/>
      <point x="501" y="643"/>
      <point x="496" y="640" type="curve" smooth="yes"/>
      <point x="491" y="637"/>
      <point x="486" y="635"/>
      <point x="477" y="635" type="curve" smooth="yes"/>
      <point x="467" y="635"/>
      <point x="449" y="644"/>
      <point x="423" y="652" type="curve" smooth="yes"/>
      <point x="400" y="658"/>
      <point x="375" y="664"/>
      <point x="354" y="664" type="curve" smooth="yes"/>
      <point x="236" y="664"/>
      <point x="145" y="588"/>
      <point x="145" y="482" type="curve" smooth="yes"/>
      <point x="145" y="406"/>
      <point x="192" y="354"/>
      <point x="249" y="302" type="curve" smooth="yes"/>
      <point x="313" y="242"/>
      <point x="332" y="207"/>
      <point x="332" y="155" type="curve" smooth="yes"/>
      <point x="332" y="66"/>
      <point x="264" y="15"/>
      <point x="179" y="15" type="curve" smooth="yes"/>
      <point x="96" y="15"/>
      <point x="60" y="75"/>
      <point x="60" y="152" type="curve" smooth="yes"/>
      <point x="60" y="179"/>
      <point x="59" y="191"/>
      <point x="48" y="191" type="curve" smooth="yes"/>
      <point x="38" y="191"/>
      <point x="34" y="185"/>
      <point x="32" y="171" type="curve" smooth="yes"/>
      <point x="21" y="92"/>
      <point x="-14" y="31"/>
      <point x="-14" y="19" type="curve" smooth="yes"/>
      <point x="-14" y="11"/>
      <point x="-1" y="0"/>
      <point x="5" y="0" type="curve" smooth="yes"/>
      <point x="10" y="0"/>
      <point x="17" y="5"/>
      <point x="25" y="10" type="curve" smooth="yes"/>
      <point x="32" y="13"/>
      <point x="39" y="16"/>
      <point x="46" y="16" type="curve" smooth="yes"/>
      <point x="50" y="16"/>
      <point x="62" y="11"/>
      <point x="79" y="4" type="curve" smooth="yes"/>
      <point x="113" y="-9"/>
      <point x="148" y="-15"/>
    </contour>
  </outline>
</glyph>
<glyph name="U" format="2">
  <advance width="700"/>
  <unicode hex="0055"/>
  <note>
U
</note>
  <anchor x="308" y="-30" name="bottom.cap"/>
  <anchor x="504" y="675" name="top.cap"/>
  <outline>
    <contour>
      <point x="301" y="-14" type="curve" smooth="yes"/>
      <point x="480" y="-14"/>
      <point x="559" y="99"/>
      <point x="615" y="254" type="curve" smooth="yes"/>
      <point x="648" y="346"/>
      <point x="676" y="432"/>
      <point x="704" y="506" type="curve" smooth="yes"/>
      <point x="742" y="608"/>
      <point x="756" y="614"/>
      <point x="789" y="622" type="curve" smooth="yes"/>
      <point x="812" y="627"/>
      <point x="826" y="633"/>
      <point x="827" y="642" type="curve" smooth="yes"/>
      <point x="828" y="650"/>
      <point x="819" y="653"/>
      <point x="803" y="653" type="curve" smooth="yes"/>
      <point x="782" y="653"/>
      <point x="757" y="650"/>
      <point x="727" y="650" type="curve" smooth="yes"/>
      <point x="700" y="650"/>
      <point x="653" y="651"/>
      <point x="625" y="651" type="curve" smooth="yes"/>
      <point x="609" y="651"/>
      <point x="594" y="648"/>
      <point x="594" y="640" type="curve" smooth="yes"/>
      <point x="594" y="631"/>
      <point x="608" y="625"/>
      <point x="620" y="622" type="curve" smooth="yes"/>
      <point x="668" y="609"/>
      <point x="685" y="593"/>
      <point x="646" y="474" type="curve" smooth="yes"/>
      <point x="633" y="434"/>
      <point x="604" y="344"/>
      <point x="582" y="269" type="curve" smooth="yes"/>
      <point x="545" y="143"/>
      <point x="474" y="26"/>
      <point x="328" y="26" type="curve" smooth="yes"/>
      <point x="230" y="26"/>
      <point x="152" y="90"/>
      <point x="196" y="238" type="curve" smooth="yes"/>
      <point x="284" y="535" type="line" smooth="yes"/>
      <point x="300" y="590"/>
      <point x="329" y="615"/>
      <point x="350" y="621" type="curve" smooth="yes"/>
      <point x="373" y="628"/>
      <point x="386" y="632"/>
      <point x="387" y="641" type="curve" smooth="yes"/>
      <point x="388" y="649"/>
      <point x="380" y="652"/>
      <point x="364" y="652" type="curve" smooth="yes"/>
      <point x="344" y="652"/>
      <point x="318" y="650"/>
      <point x="289" y="650" type="curve" smooth="yes"/>
      <point x="254" y="650"/>
      <point x="228" y="653"/>
      <point x="200" y="653" type="curve" smooth="yes"/>
      <point x="184" y="653"/>
      <point x="162" y="650"/>
      <point x="162" y="642" type="curve" smooth="yes"/>
      <point x="162" y="633"/>
      <point x="173" y="626"/>
      <point x="193" y="620" type="curve" smooth="yes"/>
      <point x="212" y="614"/>
      <point x="228" y="595"/>
      <point x="213" y="547" type="curve" smooth="yes"/>
      <point x="123" y="251" type="line" smooth="yes"/>
      <point x="66" y="65"/>
      <point x="172" y="-14"/>
    </contour>
  </outline>
</glyph>
<glyph name="W" format="2">
  <advance width="1067"/>
  <unicode hex="0057"/>
  <anchor x="426" y="-30" name="bottom.cap"/>
  <anchor x="698" y="675" name="top.cap"/>
  <note>
W
</note>
  <outline>
    <contour>
      <point x="208" y="-14" type="curve" smooth="yes"/>
      <point x="222" y="-14"/>
      <point x="262" y="54"/>
      <point x="298" y="97" type="curve" smooth="yes"/>
      <point x="628" y="492" type="line"/>
      <point x="608" y="372"/>
      <point x="584" y="232"/>
      <point x="564" y="112" type="curve" smooth="yes"/>
      <point x="556" y="64"/>
      <point x="534" y="-14"/>
      <point x="572" y="-14" type="curve" smooth="yes"/>
      <point x="586" y="-14"/>
      <point x="635" y="51"/>
      <point x="670" y="94" type="curve" smooth="yes"/>
      <point x="1040" y="543" type="line" smooth="yes"/>
      <point x="1080" y="592"/>
      <point x="1115" y="612"/>
      <point x="1157" y="620" type="curve" smooth="yes"/>
      <point x="1180" y="624"/>
      <point x="1194" y="634"/>
      <point x="1194" y="643" type="curve" smooth="yes"/>
      <point x="1194" y="651"/>
      <point x="1187" y="656"/>
      <point x="1171" y="656" type="curve" smooth="yes"/>
      <point x="1140" y="656"/>
      <point x="1121" y="650"/>
      <point x="1080" y="650" type="curve" smooth="yes"/>
      <point x="1046" y="650"/>
      <point x="983" y="652"/>
      <point x="966" y="652" type="curve" smooth="yes"/>
      <point x="950" y="652"/>
      <point x="935" y="648"/>
      <point x="935" y="639" type="curve" smooth="yes"/>
      <point x="935" y="629"/>
      <point x="939" y="625"/>
      <point x="960" y="621" type="curve" smooth="yes"/>
      <point x="1007" y="612"/>
      <point x="1016" y="579"/>
      <point x="945" y="490" type="curve" smooth="yes"/>
      <point x="686" y="166" type="line" smooth="yes"/>
      <point x="651" y="122"/>
      <point x="641" y="122"/>
      <point x="648" y="167" type="curve" smooth="yes"/>
      <point x="704" y="551" type="line" smooth="yes"/>
      <point x="711" y="597"/>
      <point x="724" y="613"/>
      <point x="787" y="623" type="curve" smooth="yes"/>
      <point x="810" y="627"/>
      <point x="824" y="634"/>
      <point x="824" y="643" type="curve" smooth="yes"/>
      <point x="824" y="651"/>
      <point x="817" y="656"/>
      <point x="801" y="656" type="curve" smooth="yes"/>
      <point x="769" y="656"/>
      <point x="739" y="650"/>
      <point x="701" y="650" type="curve" smooth="yes"/>
      <point x="662" y="650"/>
      <point x="600" y="656"/>
      <point x="570" y="656" type="curve" smooth="yes"/>
      <point x="554" y="656"/>
      <point x="534" y="653"/>
      <point x="534" y="644" type="curve" smooth="yes"/>
      <point x="534" y="633"/>
      <point x="544" y="626"/>
      <point x="564" y="623" type="curve" smooth="yes"/>
      <point x="614" y="616"/>
      <point x="632" y="602"/>
      <point x="632" y="570" type="curve" smooth="yes"/>
      <point x="632" y="551"/>
      <point x="621" y="528"/>
      <point x="584" y="485" type="curve" smooth="yes"/>
      <point x="313" y="165" type="line" smooth="yes"/>
      <point x="276" y="122"/>
      <point x="267" y="121"/>
      <point x="274" y="167" type="curve" smooth="yes"/>
      <point x="294" y="293"/>
      <point x="314" y="415"/>
      <point x="333" y="539" type="curve" smooth="yes"/>
      <point x="343" y="602"/>
      <point x="351" y="615"/>
      <point x="399" y="620" type="curve" smooth="yes"/>
      <point x="417" y="622"/>
      <point x="439" y="630"/>
      <point x="439" y="639" type="curve" smooth="yes"/>
      <point x="439" y="647"/>
      <point x="428" y="651"/>
      <point x="412" y="651" type="curve" smooth="yes"/>
      <point x="390" y="651"/>
      <point x="354" y="650"/>
      <point x="318" y="650" type="curve" smooth="yes"/>
      <point x="267" y="650"/>
      <point x="231" y="656"/>
      <point x="205" y="656" type="curve" smooth="yes"/>
      <point x="185" y="656"/>
      <point x="168" y="654"/>
      <point x="168" y="643" type="curve" smooth="yes"/>
      <point x="168" y="632"/>
      <point x="179" y="626"/>
      <point x="199" y="623" type="curve" smooth="yes"/>
      <point x="265" y="612"/>
      <point x="272" y="606"/>
      <point x="262" y="523" type="curve" smooth="yes"/>
      <point x="250" y="422"/>
      <point x="217" y="226"/>
      <point x="188" y="78" type="curve" smooth="yes"/>
      <point x="180" y="37"/>
      <point x="183" y="-14"/>
    </contour>
  </outline>
</glyph>
<glyph name="Y" format="2">
  <advance width="575"/>
  <unicode hex="0059"/>
  <anchor x="235" y="-30" name="bottom.cap"/>
  <anchor x="437" y="675" name="top.cap"/>
  <note>
Y
</note>
  <outline>
    <contour>
      <point x="123" y="-5" type="curve" smooth="yes"/>
      <point x="173" y="-5"/>
      <point x="196" y="0"/>
      <point x="243" y="0" type="curve" smooth="yes"/>
      <point x="285" y="0"/>
      <point x="301" y="-5"/>
      <point x="351" y="-5" type="curve" smooth="yes"/>
      <point x="367" y="-5"/>
      <point x="381" y="-2"/>
      <point x="381" y="6" type="curve" smooth="yes"/>
      <point x="381" y="15"/>
      <point x="376" y="20"/>
      <point x="356" y="24" type="curve" smooth="yes"/>
      <point x="312" y="33"/>
      <point x="294" y="63"/>
      <point x="308" y="108" type="curve" smooth="yes"/>
      <point x="353" y="256" type="line" smooth="yes"/>
      <point x="365" y="294"/>
      <point x="374" y="320"/>
      <point x="404" y="352" type="curve" smooth="yes"/>
      <point x="441" y="392"/>
      <point x="520" y="482"/>
      <point x="570" y="534" type="curve" smooth="yes"/>
      <point x="599" y="565"/>
      <point x="658" y="611"/>
      <point x="697" y="623" type="curve" smooth="yes"/>
      <point x="716" y="629"/>
      <point x="731" y="633"/>
      <point x="731" y="642" type="curve" smooth="yes"/>
      <point x="731" y="650"/>
      <point x="722" y="653"/>
      <point x="706" y="653" type="curve" smooth="yes"/>
      <point x="685" y="653"/>
      <point x="646" y="650"/>
      <point x="608" y="650" type="curve" smooth="yes"/>
      <point x="578" y="650"/>
      <point x="558" y="651"/>
      <point x="530" y="651" type="curve" smooth="yes"/>
      <point x="514" y="651"/>
      <point x="500" y="648"/>
      <point x="500" y="640" type="curve" smooth="yes"/>
      <point x="500" y="631"/>
      <point x="511" y="623"/>
      <point x="524" y="620" type="curve" smooth="yes"/>
      <point x="562" y="610"/>
      <point x="567" y="592"/>
      <point x="523" y="537" type="curve" smooth="yes"/>
      <point x="478" y="481"/>
      <point x="451" y="444"/>
      <point x="407" y="395" type="curve" smooth="yes"/>
      <point x="390" y="376"/>
      <point x="378" y="363"/>
      <point x="371" y="363" type="curve" smooth="yes"/>
      <point x="364" y="363"/>
      <point x="359" y="375"/>
      <point x="352" y="401" type="curve" smooth="yes"/>
      <point x="310" y="560" type="line" smooth="yes"/>
      <point x="298" y="607"/>
      <point x="305" y="615"/>
      <point x="343" y="621" type="curve" smooth="yes"/>
      <point x="367" y="625"/>
      <point x="380" y="632"/>
      <point x="380" y="641" type="curve" smooth="yes"/>
      <point x="380" y="649"/>
      <point x="373" y="652"/>
      <point x="357" y="652" type="curve" smooth="yes"/>
      <point x="337" y="652"/>
      <point x="311" y="650"/>
      <point x="282" y="650" type="curve" smooth="yes"/>
      <point x="238" y="650"/>
      <point x="202" y="653"/>
      <point x="174" y="653" type="curve" smooth="yes"/>
      <point x="158" y="653"/>
      <point x="139" y="650"/>
      <point x="139" y="642" type="curve" smooth="yes"/>
      <point x="139" y="633"/>
      <point x="148" y="622"/>
      <point x="167" y="620" type="curve" smooth="yes"/>
      <point x="198" y="617"/>
      <point x="216" y="593"/>
      <point x="228" y="548" type="curve" smooth="yes"/>
      <point x="284" y="342" type="line" smooth="yes"/>
      <point x="292" y="314"/>
      <point x="294" y="295"/>
      <point x="285" y="268" type="curve" smooth="yes"/>
      <point x="234" y="108" type="line" smooth="yes"/>
      <point x="219" y="60"/>
      <point x="184" y="33"/>
      <point x="135" y="24" type="curve" smooth="yes"/>
      <point x="112" y="20"/>
      <point x="99" y="15"/>
      <point x="99" y="6" type="curve" smooth="yes"/>
      <point x="99" y="-2"/>
      <point x="107" y="-5"/>
    </contour>
  </outline>
</glyph>
<glyph name="bracketleft" format="2">
  <advance width="361"/>
  <unicode hex="005B"/>
  <note>
bracketleft
</note>
  <outline>
    <contour>
      <point x="21" y="-200" type="curve" smooth="yes"/>
      <point x="172" y="-200" type="line" smooth="yes"/>
      <point x="182" y="-200"/>
      <point x="200" y="-195"/>
      <point x="200" y="-185" type="curve" smooth="yes"/>
      <point x="200" y="-175"/>
      <point x="190" y="-173"/>
      <point x="179" y="-172" type="curve" smooth="yes"/>
      <point x="136" y="-169"/>
      <point x="129" y="-167"/>
      <point x="102" y="-167" type="curve" smooth="yes"/>
      <point x="82" y="-167"/>
      <point x="77" y="-164"/>
      <point x="83" y="-142" type="curve" smooth="yes"/>
      <point x="127" y="21"/>
      <point x="278" y="494"/>
      <point x="328" y="644" type="curve" smooth="yes"/>
      <point x="333" y="659"/>
      <point x="345" y="673"/>
      <point x="359" y="673" type="curve" smooth="yes"/>
      <point x="389" y="673"/>
      <point x="411" y="674"/>
      <point x="440" y="674" type="curve" smooth="yes"/>
      <point x="451" y="674"/>
      <point x="470" y="677"/>
      <point x="470" y="690" type="curve" smooth="yes"/>
      <point x="470" y="697"/>
      <point x="464" y="701"/>
      <point x="456" y="701" type="curve" smooth="yes"/>
      <point x="290" y="702" type="line" smooth="yes"/>
      <point x="260" y="702"/>
      <point x="257" y="663"/>
      <point x="250" y="640" type="curve"/>
      <point x="2" y="-170" type="line" smooth="yes"/>
      <point x="-7" y="-195"/>
      <point x="-2" y="-200"/>
    </contour>
  </outline>
</glyph>
<glyph name="backslash" format="2">
  <advance width="410"/>
  <unicode hex="005C"/>
  <note>
backslash
</note>
  <outline>
    <contour>
      <point x="289" y="-68" type="curve" smooth="yes"/>
      <point x="299" y="-69"/>
      <point x="311" y="-65"/>
      <point x="310" y="-54" type="curve" smooth="yes"/>
      <point x="217" y="651" type="line" smooth="yes"/>
      <point x="215" y="665"/>
      <point x="202" y="669"/>
      <point x="188" y="671" type="curve" smooth="yes"/>
      <point x="179" y="672"/>
      <point x="169" y="665"/>
      <point x="170" y="655" type="curve" smooth="yes"/>
      <point x="261" y="-50" type="line" smooth="yes"/>
      <point x="263" y="-62"/>
      <point x="276" y="-67"/>
    </contour>
  </outline>
</glyph>
<glyph name="asciicircum" format="2">
  <advance width="501"/>
  <unicode hex="005E"/>
  <note>
asciicircum
</note>
  <outline>
    <contour>
      <point x="87" y="284" type="curve" smooth="yes"/>
      <point x="99" y="284"/>
      <point x="120" y="291"/>
      <point x="128" y="303" type="curve" smooth="yes"/>
      <point x="274" y="514" type="line"/>
      <point x="278" y="520"/>
      <point x="279" y="520"/>
      <point x="284" y="514" type="curve"/>
      <point x="432" y="302" type="line" smooth="yes"/>
      <point x="438" y="293"/>
      <point x="458" y="284"/>
      <point x="473" y="284" type="curve" smooth="yes"/>
      <point x="482" y="284"/>
      <point x="484" y="297"/>
      <point x="479" y="305" type="curve"/>
      <point x="281" y="603" type="line"/>
      <point x="278" y="603" type="line"/>
      <point x="81" y="305" type="line"/>
      <point x="79" y="302"/>
      <point x="78" y="298"/>
      <point x="78" y="295" type="curve" smooth="yes"/>
      <point x="78" y="289"/>
      <point x="82" y="284"/>
    </contour>
  </outline>
</glyph>
<glyph name="underscore" format="2">
  <advance width="464"/>
  <unicode hex="005F"/>
  <note>
underscore
</note>
  <outline>
    <contour>
      <point x="350" y="-132" type="curve" smooth="yes"/>
      <point x="-81" y="-132" type="line" smooth="yes"/>
      <point x="-97" y="-132"/>
      <point x="-112" y="-161"/>
      <point x="-115" y="-170" type="curve" smooth="yes"/>
      <point x="-117" y="-176"/>
      <point x="-113" y="-182"/>
      <point x="-106" y="-182" type="curve" smooth="yes"/>
      <point x="318" y="-182" type="line" smooth="yes"/>
      <point x="335" y="-182"/>
      <point x="346" y="-163"/>
      <point x="357" y="-146" type="curve"/>
      <point x="361" y="-139"/>
      <point x="357" y="-132"/>
    </contour>
  </outline>
</glyph>
<glyph name="a" format="2">
  <advance width="491"/>
  <unicode hex="0061"/>
  <note>
a
</note>
  <anchor x="167" y="-30" name="bottom"/>
  <anchor x="335" y="440" name="top"/>
  <outline>
    <contour>
      <point x="45" y="-14" type="curve" smooth="yes"/>
      <point x="105" y="-14"/>
      <point x="167" y="32"/>
      <point x="289" y="168" type="curve" smooth="yes"/>
      <point x="297" y="177"/>
      <point x="298" y="167"/>
      <point x="291" y="153" type="curve" smooth="yes"/>
      <point x="271" y="111"/>
      <point x="232" y="24"/>
      <point x="244" y="48" type="curve" smooth="yes"/>
      <point x="240" y="40"/>
      <point x="238" y="31"/>
      <point x="238" y="25" type="curve" smooth="yes"/>
      <point x="238" y="6"/>
      <point x="260" y="-14"/>
      <point x="281" y="-14" type="curve" smooth="yes"/>
      <point x="313" y="-14"/>
      <point x="352" y="5"/>
      <point x="390" y="40" type="curve" smooth="yes"/>
      <point x="410" y="60"/>
      <point x="433" y="94"/>
      <point x="433" y="103" type="curve" smooth="yes"/>
      <point x="433" y="111"/>
      <point x="431" y="114"/>
      <point x="426" y="114" type="curve" smooth="yes"/>
      <point x="423" y="114"/>
      <point x="419" y="112"/>
      <point x="417" y="109" type="curve" smooth="yes"/>
      <point x="392" y="75"/>
      <point x="353" y="49"/>
      <point x="329" y="49" type="curve" smooth="yes"/>
      <point x="313" y="49"/>
      <point x="308" y="62"/>
      <point x="316" y="83" type="curve" smooth="yes"/>
      <point x="428" y="380" type="line" smooth="yes"/>
      <point x="433" y="394"/>
      <point x="435" y="401"/>
      <point x="435" y="405" type="curve" smooth="yes"/>
      <point x="435" y="415"/>
      <point x="415" y="426"/>
      <point x="397" y="426" type="curve" smooth="yes"/>
      <point x="393" y="426"/>
      <point x="389" y="423"/>
      <point x="385" y="416" type="curve" smooth="yes"/>
      <point x="389" y="421"/>
      <point x="387" y="418"/>
      <point x="368" y="386" type="curve" smooth="yes"/>
      <point x="366" y="382"/>
      <point x="364" y="380"/>
      <point x="362" y="380" type="curve" smooth="yes"/>
      <point x="361" y="380"/>
      <point x="368" y="371"/>
      <point x="350" y="395" type="curve" smooth="yes"/>
      <point x="343" y="403"/>
      <point x="332" y="409"/>
      <point x="322" y="409" type="curve" smooth="yes"/>
      <point x="301" y="409"/>
      <point x="256" y="378"/>
      <point x="184" y="315" type="curve" smooth="yes"/>
      <point x="71" y="216"/>
      <point x="-6" y="101"/>
      <point x="-6" y="30" type="curve" smooth="yes"/>
      <point x="-6" y="8"/>
      <point x="20" y="-14"/>
    </contour>
    <contour>
      <point x="101" y="49" type="curve" smooth="yes"/>
      <point x="84" y="49"/>
      <point x="72" y="63"/>
      <point x="72" y="83" type="curve" smooth="yes"/>
      <point x="72" y="129"/>
      <point x="135" y="227"/>
      <point x="202" y="292" type="curve" smooth="yes"/>
      <point x="236" y="325"/>
      <point x="285" y="353"/>
      <point x="309" y="353" type="curve" smooth="yes"/>
      <point x="316" y="353"/>
      <point x="326" y="348"/>
      <point x="334" y="342" type="curve" smooth="yes"/>
      <point x="341" y="336"/>
      <point x="347" y="328"/>
      <point x="347" y="323" type="curve" smooth="yes"/>
      <point x="347" y="299"/>
      <point x="315" y="246"/>
      <point x="265" y="187" type="curve" smooth="yes"/>
      <point x="192" y="100"/>
      <point x="130" y="49"/>
    </contour>
  </outline>
</glyph>
<glyph name="b" format="2">
  <advance width="449"/>
  <unicode hex="0062"/>
  <anchor x="135" y="-30" name="bottom"/>
  <note>
b
</note>
  <outline>
    <contour>
      <point x="136" y="-8" type="curve" smooth="yes"/>
      <point x="271" y="-8"/>
      <point x="442" y="187"/>
      <point x="442" y="340" type="curve" smooth="yes"/>
      <point x="442" y="383"/>
      <point x="411" y="414"/>
      <point x="368" y="414" type="curve" smooth="yes"/>
      <point x="318" y="414"/>
      <point x="245" y="356"/>
      <point x="166" y="252" type="curve" smooth="yes"/>
      <point x="157" y="240"/>
      <point x="149" y="243"/>
      <point x="154" y="257" type="curve" smooth="yes"/>
      <point x="182" y="345"/>
      <point x="268" y="596"/>
      <point x="294" y="664" type="curve" smooth="yes"/>
      <point x="299" y="678"/>
      <point x="301" y="685"/>
      <point x="301" y="697" type="curve" smooth="yes"/>
      <point x="301" y="704"/>
      <point x="296" y="707"/>
      <point x="285" y="707" type="curve" smooth="yes"/>
      <point x="273" y="707"/>
      <point x="200" y="687"/>
      <point x="170" y="676" type="curve" smooth="yes"/>
      <point x="158" y="672"/>
      <point x="154" y="668"/>
      <point x="154" y="662" type="curve" smooth="yes"/>
      <point x="154" y="658"/>
      <point x="166" y="652"/>
      <point x="185" y="647" type="curve" smooth="yes"/>
      <point x="203" y="642"/>
      <point x="210" y="637"/>
      <point x="210" y="630" type="curve" smooth="yes"/>
      <point x="210" y="613"/>
      <point x="207" y="595"/>
      <point x="200" y="576" type="curve" smooth="yes"/>
      <point x="74" y="195" type="line" smooth="yes"/>
      <point x="59" y="151"/>
      <point x="51" y="107"/>
      <point x="51" y="74" type="curve" smooth="yes"/>
      <point x="51" y="24"/>
      <point x="84" y="-8"/>
    </contour>
    <contour>
      <point x="162" y="24" type="curve" smooth="yes"/>
      <point x="134" y="24"/>
      <point x="110" y="55"/>
      <point x="110" y="91" type="curve" smooth="yes"/>
      <point x="110" y="116"/>
      <point x="139" y="172"/>
      <point x="183" y="234" type="curve" smooth="yes"/>
      <point x="253" y="330"/>
      <point x="305" y="376"/>
      <point x="347" y="376" type="curve" smooth="yes"/>
      <point x="363" y="376"/>
      <point x="376" y="359"/>
      <point x="376" y="336" type="curve" smooth="yes"/>
      <point x="376" y="288"/>
      <point x="337" y="196"/>
      <point x="289" y="132" type="curve" smooth="yes"/>
      <point x="242" y="70"/>
      <point x="188" y="24"/>
    </contour>
  </outline>
</glyph>
<glyph name="c" format="2">
  <advance width="313"/>
  <unicode hex="0063"/>
  <anchor x="107" y="-30" name="bottom"/>
  <anchor x="231" y="440" name="top"/>
  <note>
c
</note>
  <outline>
    <contour>
      <point x="99" y="-15" type="curve" smooth="yes"/>
      <point x="180" y="-15"/>
      <point x="252" y="63"/>
      <point x="252" y="84" type="curve" smooth="yes"/>
      <point x="252" y="91"/>
      <point x="250" y="97"/>
      <point x="244" y="97" type="curve" smooth="yes"/>
      <point x="236" y="97"/>
      <point x="233" y="93"/>
      <point x="224" y="84" type="curve" smooth="yes"/>
      <point x="198" y="60"/>
      <point x="178" y="41"/>
      <point x="135" y="41" type="curve" smooth="yes"/>
      <point x="106" y="41"/>
      <point x="87" y="54"/>
      <point x="87" y="98" type="curve" smooth="yes"/>
      <point x="87" y="208"/>
      <point x="172" y="387"/>
      <point x="236" y="387" type="curve" smooth="yes"/>
      <point x="258" y="387"/>
      <point x="269" y="372"/>
      <point x="277" y="357" type="curve" smooth="yes"/>
      <point x="284" y="344"/>
      <point x="290" y="333"/>
      <point x="301" y="333" type="curve" smooth="yes"/>
      <point x="315" y="333"/>
      <point x="331" y="360"/>
      <point x="331" y="382" type="curve" smooth="yes"/>
      <point x="331" y="399"/>
      <point x="312" y="414"/>
      <point x="276" y="414" type="curve" smooth="yes"/>
      <point x="106" y="414"/>
      <point x="17" y="210"/>
      <point x="15" y="90" type="curve" smooth="yes"/>
      <point x="14" y="28"/>
      <point x="63" y="-15"/>
    </contour>
  </outline>
</glyph>
<glyph name="d" format="2">
  <advance width="516"/>
  <unicode hex="0064"/>
  <note>
d
</note>
  <anchor x="179" y="-30" name="bottom"/>
  <outline>
    <contour>
      <point x="70" y="-14" type="curve" smooth="yes"/>
      <point x="142" y="-14"/>
      <point x="205" y="31"/>
      <point x="297" y="147" type="curve" smooth="yes"/>
      <point x="301" y="153"/>
      <point x="305" y="147"/>
      <point x="303" y="137" type="curve" smooth="yes"/>
      <point x="308" y="160"/>
      <point x="291" y="86"/>
      <point x="285" y="57" type="curve" smooth="yes"/>
      <point x="282" y="41"/>
      <point x="281" y="36"/>
      <point x="281" y="31" type="curve" smooth="yes"/>
      <point x="281" y="9"/>
      <point x="303" y="-14"/>
      <point x="325" y="-14" type="curve" smooth="yes"/>
      <point x="368" y="-14"/>
      <point x="475" y="82"/>
      <point x="475" y="120" type="curve" smooth="yes"/>
      <point x="476" y="125"/>
      <point x="474" y="128"/>
      <point x="469" y="128" type="curve" smooth="yes"/>
      <point x="466" y="128"/>
      <point x="464" y="127"/>
      <point x="461" y="123" type="curve" smooth="yes"/>
      <point x="434" y="86"/>
      <point x="389" y="54"/>
      <point x="363" y="54" type="curve" smooth="yes"/>
      <point x="353" y="54"/>
      <point x="349" y="61"/>
      <point x="349" y="76" type="curve" smooth="yes"/>
      <point x="349" y="86"/>
      <point x="351" y="96"/>
      <point x="354" y="107" type="curve" smooth="yes"/>
      <point x="516" y="668" type="line" smooth="yes"/>
      <point x="519" y="677"/>
      <point x="520" y="684"/>
      <point x="520" y="691" type="curve" smooth="yes"/>
      <point x="520" y="700"/>
      <point x="516" y="705"/>
      <point x="508" y="705" type="curve" smooth="yes"/>
      <point x="501" y="705"/>
      <point x="456" y="699"/>
      <point x="415" y="693" type="curve" smooth="yes"/>
      <point x="391" y="689"/>
      <point x="381" y="684"/>
      <point x="381" y="675" type="curve" smooth="yes"/>
      <point x="381" y="671"/>
      <point x="381" y="671"/>
      <point x="411" y="661" type="curve" smooth="yes"/>
      <point x="432" y="653"/>
      <point x="439" y="645"/>
      <point x="439" y="631" type="curve" smooth="yes"/>
      <point x="439" y="627"/>
      <point x="439" y="627"/>
      <point x="435" y="611" type="curve" smooth="yes"/>
      <point x="368" y="386" type="line" smooth="yes"/>
      <point x="367" y="383"/>
      <point x="364" y="379"/>
      <point x="363" y="379" type="curve" smooth="yes"/>
      <point x="365" y="379"/>
      <point x="367" y="378"/>
      <point x="339" y="395" type="curve" smooth="yes"/>
      <point x="302" y="419"/>
      <point x="299" y="420"/>
      <point x="282" y="420" type="curve" smooth="yes"/>
      <point x="239" y="420"/>
      <point x="183" y="386"/>
      <point x="131" y="327" type="curve" smooth="yes"/>
      <point x="58" y="245"/>
      <point x="5" y="133"/>
      <point x="5" y="58" type="curve" smooth="yes"/>
      <point x="5" y="15"/>
      <point x="31" y="-14"/>
    </contour>
    <contour>
      <point x="107" y="33" type="curve" smooth="yes"/>
      <point x="81" y="33"/>
      <point x="73" y="42"/>
      <point x="73" y="71" type="curve" smooth="yes"/>
      <point x="73" y="179"/>
      <point x="220" y="388"/>
      <point x="296" y="388" type="curve" smooth="yes"/>
      <point x="328" y="388"/>
      <point x="346" y="365"/>
      <point x="346" y="326" type="curve" smooth="yes"/>
      <point x="346" y="217"/>
      <point x="196" y="33"/>
    </contour>
  </outline>
</glyph>
<glyph name="e" format="2">
  <advance width="341"/>
  <unicode hex="0065"/>
  <anchor x="100" y="-30" name="bottom"/>
  <anchor x="267" y="440" name="top"/>
  <note>
e
</note>
  <outline>
    <contour>
      <point x="106" y="-15" type="curve" smooth="yes"/>
      <point x="171" y="-15"/>
      <point x="226" y="21"/>
      <point x="266" y="86" type="curve" smooth="yes"/>
      <point x="268" y="89"/>
      <point x="268" y="92"/>
      <point x="268" y="94" type="curve" smooth="yes"/>
      <point x="268" y="100"/>
      <point x="264" y="104"/>
      <point x="258" y="104" type="curve" smooth="yes"/>
      <point x="253" y="104"/>
      <point x="247" y="101"/>
      <point x="240" y="93" type="curve" smooth="yes"/>
      <point x="218" y="69"/>
      <point x="186" y="39"/>
      <point x="138" y="39" type="curve" smooth="yes"/>
      <point x="103" y="39"/>
      <point x="85" y="65"/>
      <point x="85" y="112" type="curve" smooth="yes"/>
      <point x="85" y="143"/>
      <point x="96" y="180"/>
      <point x="106" y="209" type="curve" smooth="yes"/>
      <point x="109" y="217"/>
      <point x="113" y="217"/>
      <point x="121" y="219" type="curve" smooth="yes"/>
      <point x="232" y="240"/>
      <point x="349" y="275"/>
      <point x="349" y="359" type="curve" smooth="yes"/>
      <point x="349" y="393"/>
      <point x="322" y="414"/>
      <point x="275" y="414" type="curve" smooth="yes"/>
      <point x="133" y="414"/>
      <point x="14" y="223"/>
      <point x="14" y="89" type="curve" smooth="yes"/>
      <point x="14" y="42"/>
      <point x="63" y="-15"/>
    </contour>
    <contour>
      <point x="128" y="242" type="curve" smooth="yes"/>
      <point x="123" y="242"/>
      <point x="121" y="242"/>
      <point x="121" y="248" type="curve" smooth="yes"/>
      <point x="121" y="278"/>
      <point x="209" y="389"/>
      <point x="264" y="389" type="curve" smooth="yes"/>
      <point x="281" y="389"/>
      <point x="291" y="374"/>
      <point x="291" y="357" type="curve" smooth="yes"/>
      <point x="291" y="277"/>
      <point x="158" y="242"/>
    </contour>
  </outline>
</glyph>
<glyph name="f" format="2">
  <advance width="321"/>
  <unicode hex="0066"/>
  <note>
f
</note>
  <outline>
    <contour>
      <point x="-111" y="-290" type="curve" smooth="yes"/>
      <point x="-55" y="-290"/>
      <point x="55" y="-217"/>
      <point x="83" y="-110" type="curve" smooth="yes"/>
      <point x="122" y="41"/>
      <point x="166" y="195"/>
      <point x="213" y="346" type="curve"/>
      <point x="216" y="358"/>
      <point x="224" y="362"/>
      <point x="238" y="362" type="curve" smooth="yes"/>
      <point x="329" y="363" type="line" smooth="yes"/>
      <point x="347" y="363"/>
      <point x="358" y="383"/>
      <point x="358" y="392" type="curve" smooth="yes"/>
      <point x="358" y="400"/>
      <point x="355" y="403"/>
      <point x="351" y="403" type="curve" smooth="yes"/>
      <point x="317" y="403"/>
      <point x="281" y="400"/>
      <point x="241" y="400" type="curve" smooth="yes"/>
      <point x="235" y="400"/>
      <point x="231" y="402"/>
      <point x="231" y="409" type="curve" smooth="yes"/>
      <point x="231" y="416"/>
      <point x="233" y="419"/>
      <point x="236" y="429" type="curve" smooth="yes"/>
      <point x="244" y="455"/>
      <point x="249" y="477"/>
      <point x="257" y="503" type="curve" smooth="yes"/>
      <point x="297" y="634"/>
      <point x="319" y="665"/>
      <point x="376" y="665" type="curve" smooth="yes"/>
      <point x="405" y="665"/>
      <point x="423" y="651"/>
      <point x="435" y="624" type="curve" smooth="yes"/>
      <point x="445" y="602"/>
      <point x="452" y="585"/>
      <point x="462" y="585" type="curve" smooth="yes"/>
      <point x="480" y="585"/>
      <point x="503" y="602"/>
      <point x="503" y="636" type="curve" smooth="yes"/>
      <point x="503" y="677"/>
      <point x="468" y="706"/>
      <point x="409" y="706" type="curve" smooth="yes"/>
      <point x="339" y="706"/>
      <point x="228" y="640"/>
      <point x="180" y="450" type="curve" smooth="yes"/>
      <point x="172" y="418" type="line" smooth="yes"/>
      <point x="169" y="406"/>
      <point x="162" y="399"/>
      <point x="153" y="398" type="curve" smooth="yes"/>
      <point x="83" y="394" type="line"/>
      <point x="73" y="393"/>
      <point x="64" y="379"/>
      <point x="64" y="368" type="curve" smooth="yes"/>
      <point x="64" y="361"/>
      <point x="68" y="356"/>
      <point x="77" y="356" type="curve" smooth="yes"/>
      <point x="139" y="357" type="line" smooth="yes"/>
      <point x="153" y="357"/>
      <point x="157" y="352"/>
      <point x="153" y="339" type="curve" smooth="yes"/>
      <point x="19" y="-115" type="line" smooth="yes"/>
      <point x="-14" y="-225"/>
      <point x="-33" y="-250"/>
      <point x="-71" y="-250" type="curve" smooth="yes"/>
      <point x="-95" y="-250"/>
      <point x="-111" y="-239"/>
      <point x="-123" y="-226" type="curve" smooth="yes"/>
      <point x="-136" y="-212"/>
      <point x="-145" y="-198"/>
      <point x="-155" y="-198" type="curve" smooth="yes"/>
      <point x="-168" y="-198"/>
      <point x="-194" y="-220"/>
      <point x="-194" y="-240" type="curve" smooth="yes"/>
      <point x="-194" y="-273"/>
      <point x="-161" y="-290"/>
    </contour>
  </outline>
</glyph>
<glyph name="g" format="2">
  <advance width="415"/>
  <unicode hex="0067"/>
  <note>
g
</note>
  <anchor x="269" y="440" name="top"/>
  <outline>
    <contour>
      <point x="113" y="-290" type="curve" smooth="yes"/>
      <point x="205" y="-290"/>
      <point x="330" y="-233"/>
      <point x="330" y="-163" type="curve" smooth="yes"/>
      <point x="330" y="-143"/>
      <point x="320" y="-126"/>
      <point x="291" y="-105" type="curve" smooth="yes"/>
      <point x="262" y="-84"/>
      <point x="201" y="-46"/>
      <point x="167" y="-23" type="curve" smooth="yes"/>
      <point x="133" y="0"/>
      <point x="123" y="12"/>
      <point x="123" y="36" type="curve" smooth="yes"/>
      <point x="123" y="46"/>
      <point x="126" y="55"/>
      <point x="134" y="65" type="curve" smooth="yes"/>
      <point x="139" y="71"/>
      <point x="146" y="77"/>
      <point x="156" y="77" type="curve" smooth="yes"/>
      <point x="245" y="77"/>
      <point x="337" y="205"/>
      <point x="337" y="308" type="curve" smooth="yes"/>
      <point x="337" y="321"/>
      <point x="336" y="333"/>
      <point x="333" y="344" type="curve" smooth="yes"/>
      <point x="330" y="355"/>
      <point x="338" y="358"/>
      <point x="345" y="358" type="curve" smooth="yes"/>
      <point x="360" y="358"/>
      <point x="404" y="346"/>
      <point x="423" y="346" type="curve" smooth="yes"/>
      <point x="431" y="346"/>
      <point x="441" y="356"/>
      <point x="441" y="381" type="curve" smooth="yes"/>
      <point x="441" y="397"/>
      <point x="427" y="404"/>
      <point x="419" y="404" type="curve" smooth="yes"/>
      <point x="392" y="404"/>
      <point x="343" y="391"/>
      <point x="321" y="391" type="curve" smooth="yes"/>
      <point x="311" y="391"/>
      <point x="302" y="397"/>
      <point x="293" y="402" type="curve" smooth="yes"/>
      <point x="285" y="406"/>
      <point x="275" y="414"/>
      <point x="247" y="414" type="curve" smooth="yes"/>
      <point x="140" y="414"/>
      <point x="55" y="268"/>
      <point x="55" y="178" type="curve" smooth="yes"/>
      <point x="55" y="133"/>
      <point x="66" y="105"/>
      <point x="107" y="85" type="curve" smooth="yes"/>
      <point x="112" y="83"/>
      <point x="115" y="81"/>
      <point x="115" y="79" type="curve" smooth="yes"/>
      <point x="115" y="77"/>
      <point x="114" y="73"/>
      <point x="107" y="67" type="curve" smooth="yes"/>
      <point x="79" y="46"/>
      <point x="57" y="25"/>
      <point x="57" y="6" type="curve" smooth="yes"/>
      <point x="57" y="-15"/>
      <point x="75" y="-31"/>
      <point x="105" y="-56" type="curve" smooth="yes"/>
      <point x="109" y="-60"/>
      <point x="108" y="-63"/>
      <point x="103" y="-65" type="curve" smooth="yes"/>
      <point x="12" y="-95"/>
      <point x="-96" y="-135"/>
      <point x="-96" y="-180" type="curve" smooth="yes"/>
      <point x="-96" y="-248"/>
      <point x="-4" y="-290"/>
    </contour>
    <contour>
      <point x="143" y="-260" type="curve" smooth="yes"/>
      <point x="61" y="-260"/>
      <point x="-27" y="-226"/>
      <point x="-27" y="-182" type="curve" smooth="yes"/>
      <point x="-27" y="-141"/>
      <point x="25" y="-112"/>
      <point x="105" y="-87" type="curve" smooth="yes"/>
      <point x="113" y="-85"/>
      <point x="122" y="-83"/>
      <point x="130" y="-83" type="curve" smooth="yes"/>
      <point x="136" y="-83"/>
      <point x="147" y="-87"/>
      <point x="158" y="-93" type="curve" smooth="yes"/>
      <point x="172" y="-100"/>
      <point x="205" y="-122"/>
      <point x="216" y="-130" type="curve" smooth="yes"/>
      <point x="246" y="-148"/>
      <point x="257" y="-171"/>
      <point x="257" y="-191" type="curve" smooth="yes"/>
      <point x="257" y="-227"/>
      <point x="223" y="-260"/>
    </contour>
    <contour>
      <point x="153" y="101" type="curve" smooth="yes"/>
      <point x="131" y="101"/>
      <point x="112" y="123"/>
      <point x="112" y="149" type="curve" smooth="yes"/>
      <point x="116" y="235"/>
      <point x="188" y="386"/>
      <point x="250" y="386" type="curve" smooth="yes"/>
      <point x="270" y="386"/>
      <point x="285" y="359"/>
      <point x="285" y="339" type="curve" smooth="yes"/>
      <point x="285" y="274"/>
      <point x="213" y="101"/>
    </contour>
  </outline>
</glyph>
<glyph name="h" format="2">
  <advance width="488"/>
  <unicode hex="0068"/>
  <note>
h
</note>
  <anchor x="180" y="-30" name="bottom"/>
  <outline>
    <contour>
      <point x="56" y="-18" type="curve" smooth="yes"/>
      <point x="72" y="-18"/>
      <point x="85" y="14"/>
      <point x="118" y="78" type="curve" smooth="yes"/>
      <point x="165" y="168"/>
      <point x="298" y="374"/>
      <point x="370" y="374" type="curve" smooth="yes"/>
      <point x="395" y="374"/>
      <point x="408" y="357"/>
      <point x="408" y="326" type="curve" smooth="yes"/>
      <point x="408" y="214"/>
      <point x="331" y="27"/>
      <point x="273" y="27" type="curve" smooth="yes"/>
      <point x="262" y="27"/>
      <point x="255" y="33"/>
      <point x="247" y="40" type="curve" smooth="yes"/>
      <point x="240" y="46"/>
      <point x="232" y="52"/>
      <point x="220" y="52" type="curve" smooth="yes"/>
      <point x="208" y="52"/>
      <point x="194" y="33"/>
      <point x="194" y="23" type="curve" smooth="yes"/>
      <point x="194" y="8"/>
      <point x="218" y="-14"/>
      <point x="233" y="-14" type="curve" smooth="yes"/>
      <point x="270" y="-14"/>
      <point x="327" y="26"/>
      <point x="342" y="42" type="curve" smooth="yes"/>
      <point x="411" y="115"/>
      <point x="474" y="245"/>
      <point x="474" y="348" type="curve" smooth="yes"/>
      <point x="474" y="386"/>
      <point x="450" y="421"/>
      <point x="406" y="421" type="curve" smooth="yes"/>
      <point x="346" y="421"/>
      <point x="242" y="327"/>
      <point x="154" y="197" type="curve" smooth="yes"/>
      <point x="150" y="191"/>
      <point x="145" y="190"/>
      <point x="148" y="200" type="curve" smooth="yes"/>
      <point x="284" y="670" type="line" smooth="yes"/>
      <point x="287" y="679"/>
      <point x="289" y="686"/>
      <point x="289" y="697" type="curve" smooth="yes"/>
      <point x="289" y="707"/>
      <point x="278" y="707"/>
      <point x="272" y="707" type="curve" smooth="yes"/>
      <point x="258" y="707"/>
      <point x="190" y="684"/>
      <point x="170" y="676" type="curve" smooth="yes"/>
      <point x="155" y="670"/>
      <point x="153" y="666"/>
      <point x="153" y="661" type="curve" smooth="yes"/>
      <point x="153" y="656"/>
      <point x="161" y="653"/>
      <point x="171" y="650" type="curve" smooth="yes"/>
      <point x="187" y="645"/>
      <point x="208" y="639"/>
      <point x="208" y="626" type="curve" smooth="yes"/>
      <point x="208" y="612"/>
      <point x="200" y="581"/>
      <point x="193" y="558" type="curve" smooth="yes"/>
      <point x="52" y="75" type="line" smooth="yes"/>
      <point x="44" y="45"/>
      <point x="39" y="28"/>
      <point x="39" y="8" type="curve" smooth="yes"/>
      <point x="39" y="-4"/>
      <point x="46" y="-18"/>
    </contour>
  </outline>
</glyph>
<glyph name="k" format="2">
  <advance width="455"/>
  <unicode hex="006B"/>
  <anchor x="147" y="-30" name="bottom"/>
  <note>
k
</note>
  <outline>
    <contour>
      <point x="289" y="-21" type="curve" smooth="yes"/>
      <point x="320" y="-21"/>
      <point x="402" y="56"/>
      <point x="402" y="98" type="curve" smooth="yes"/>
      <point x="402" y="103"/>
      <point x="398" y="110"/>
      <point x="396" y="110" type="curve" smooth="yes"/>
      <point x="391" y="110"/>
      <point x="387" y="109"/>
      <point x="380" y="97" type="curve" smooth="yes"/>
      <point x="362" y="68"/>
      <point x="335" y="39"/>
      <point x="310" y="39" type="curve" smooth="yes"/>
      <point x="295" y="39"/>
      <point x="283" y="54"/>
      <point x="277" y="68" type="curve" smooth="yes"/>
      <point x="231" y="177" type="line" smooth="yes"/>
      <point x="228" y="184"/>
      <point x="229" y="186"/>
      <point x="236" y="188" type="curve" smooth="yes"/>
      <point x="304" y="207"/>
      <point x="440" y="300"/>
      <point x="440" y="370" type="curve" smooth="yes"/>
      <point x="440" y="400"/>
      <point x="408" y="415"/>
      <point x="381" y="415" type="curve" smooth="yes"/>
      <point x="314" y="415"/>
      <point x="227" y="353"/>
      <point x="159" y="258" type="curve" smooth="yes"/>
      <point x="154" y="251"/>
      <point x="145" y="247"/>
      <point x="150" y="262" type="curve" smooth="yes"/>
      <point x="285" y="673" type="line" smooth="yes"/>
      <point x="288" y="682"/>
      <point x="288" y="685"/>
      <point x="288" y="696" type="curve" smooth="yes"/>
      <point x="288" y="706"/>
      <point x="278" y="706"/>
      <point x="272" y="706" type="curve" smooth="yes"/>
      <point x="256" y="706"/>
      <point x="189" y="684"/>
      <point x="159" y="669" type="curve" smooth="yes"/>
      <point x="155" y="667"/>
      <point x="153" y="663"/>
      <point x="153" y="658" type="curve" smooth="yes"/>
      <point x="153" y="654"/>
      <point x="166" y="649"/>
      <point x="179" y="644" type="curve" smooth="yes"/>
      <point x="193" y="639"/>
      <point x="201" y="632"/>
      <point x="201" y="624" type="curve" smooth="yes"/>
      <point x="201" y="608"/>
      <point x="199" y="592"/>
      <point x="191" y="567" type="curve" smooth="yes"/>
      <point x="24" y="49" type="line" smooth="yes"/>
      <point x="18" y="29"/>
      <point x="16" y="13"/>
      <point x="16" y="7" type="curve" smooth="yes"/>
      <point x="16" y="-5"/>
      <point x="32" y="-15"/>
      <point x="42" y="-15" type="curve" smooth="yes"/>
      <point x="58" y="-15"/>
      <point x="60" y="-6"/>
      <point x="68" y="16" type="curve" smooth="yes"/>
      <point x="75" y="35"/>
      <point x="107" y="117"/>
      <point x="115" y="136" type="curve" smooth="yes"/>
      <point x="121" y="150"/>
      <point x="133" y="178"/>
      <point x="142" y="178" type="curve" smooth="yes"/>
      <point x="164" y="178"/>
      <point x="180" y="156"/>
      <point x="188" y="134" type="curve" smooth="yes"/>
      <point x="226" y="28" type="line" smooth="yes"/>
      <point x="240" y="-4"/>
      <point x="257" y="-21"/>
    </contour>
    <contour>
      <point x="184" y="203" type="curve" smooth="yes"/>
      <point x="176" y="203"/>
      <point x="172" y="212"/>
      <point x="172" y="220" type="curve" smooth="yes"/>
      <point x="172" y="248"/>
      <point x="278" y="372"/>
      <point x="334" y="372" type="curve" smooth="yes"/>
      <point x="358" y="372"/>
      <point x="370" y="360"/>
      <point x="370" y="340" type="curve" smooth="yes"/>
      <point x="370" y="296"/>
      <point x="267" y="203"/>
    </contour>
  </outline>
</glyph>
<glyph name="l" format="2">
  <advance width="286"/>
  <unicode hex="006C"/>
  <anchor x="67" y="-30" name="bottom"/>
  <note>
l
</note>
  <outline>
    <contour>
      <point x="56" y="-14" type="curve" smooth="yes"/>
      <point x="109" y="-14"/>
      <point x="239" y="80"/>
      <point x="239" y="147" type="curve" smooth="yes"/>
      <point x="239" y="155"/>
      <point x="239" y="160"/>
      <point x="234" y="160" type="curve" smooth="yes"/>
      <point x="228" y="160"/>
      <point x="216" y="148"/>
      <point x="208" y="137" type="curve" smooth="yes"/>
      <point x="183" y="102"/>
      <point x="129" y="45"/>
      <point x="101" y="45" type="curve" smooth="yes"/>
      <point x="94" y="45"/>
      <point x="91" y="51"/>
      <point x="91" y="61" type="curve" smooth="yes"/>
      <point x="91" y="69"/>
      <point x="92" y="79"/>
      <point x="96" y="90" type="curve" smooth="yes"/>
      <point x="298" y="666" type="line" smooth="yes"/>
      <point x="301" y="675"/>
      <point x="304" y="686"/>
      <point x="304" y="694" type="curve" smooth="yes"/>
      <point x="304" y="704"/>
      <point x="298" y="709"/>
      <point x="292" y="709" type="curve" smooth="yes"/>
      <point x="276" y="709"/>
      <point x="202" y="697"/>
      <point x="164" y="688" type="curve" smooth="yes"/>
      <point x="160" y="687"/>
      <point x="158" y="682"/>
      <point x="158" y="677" type="curve" smooth="yes"/>
      <point x="158" y="672"/>
      <point x="166" y="667"/>
      <point x="180" y="664" type="curve" smooth="yes"/>
      <point x="198" y="660"/>
      <point x="213" y="648"/>
      <point x="213" y="636" type="curve" smooth="yes"/>
      <point x="213" y="619"/>
      <point x="210" y="602"/>
      <point x="203" y="583" type="curve" smooth="yes"/>
      <point x="13" y="42" type="line" smooth="yes"/>
      <point x="12" y="39"/>
      <point x="11" y="33"/>
      <point x="11" y="30" type="curve" smooth="yes"/>
      <point x="11" y="8"/>
      <point x="39" y="-14"/>
    </contour>
  </outline>
</glyph>
<glyph name="m" format="2">
  <advance width="789"/>
  <unicode hex="006D"/>
  <anchor x="311" y="-30" name="bottom"/>
  <anchor x="487" y="440" name="top"/>
  <note>
m
</note>
  <outline>
    <contour>
      <point x="75" y="-17" type="curve" smooth="yes"/>
      <point x="91" y="-17"/>
      <point x="106" y="14"/>
      <point x="141" y="78" type="curve" smooth="yes"/>
      <point x="181" y="151"/>
      <point x="253" y="261"/>
      <point x="284" y="299" type="curve" smooth="yes"/>
      <point x="328" y="353"/>
      <point x="365" y="377"/>
      <point x="387" y="375" type="curve" smooth="yes"/>
      <point x="396" y="374"/>
      <point x="419" y="365"/>
      <point x="407" y="334" type="curve" smooth="yes"/>
      <point x="314" y="84" type="line" smooth="yes"/>
      <point x="300" y="46"/>
      <point x="291" y="16"/>
      <point x="291" y="10" type="curve" smooth="yes"/>
      <point x="291" y="-2"/>
      <point x="299" y="-17"/>
      <point x="309" y="-17" type="curve" smooth="yes"/>
      <point x="325" y="-17"/>
      <point x="353" y="14"/>
      <point x="388" y="78" type="curve" smooth="yes"/>
      <point x="428" y="151"/>
      <point x="500" y="259"/>
      <point x="531" y="297" type="curve" smooth="yes"/>
      <point x="575" y="351"/>
      <point x="612" y="373"/>
      <point x="634" y="372" type="curve" smooth="yes"/>
      <point x="649" y="371"/>
      <point x="664" y="357"/>
      <point x="654" y="331" type="curve" smooth="yes"/>
      <point x="538" y="32" type="line" smooth="yes"/>
      <point x="530" y="9"/>
      <point x="552" y="-14"/>
      <point x="568" y="-14" type="curve" smooth="yes"/>
      <point x="631" y="-14"/>
      <point x="686" y="37"/>
      <point x="730" y="87" type="curve" smooth="yes"/>
      <point x="744" y="102"/>
      <point x="748" y="112"/>
      <point x="748" y="123" type="curve" smooth="yes"/>
      <point x="748" y="128"/>
      <point x="744" y="132"/>
      <point x="740" y="132" type="curve" smooth="yes"/>
      <point x="739" y="132"/>
      <point x="738" y="132"/>
      <point x="737" y="131" type="curve" smooth="yes"/>
      <point x="727" y="121"/>
      <point x="658" y="50"/>
      <point x="626" y="50" type="curve" smooth="yes"/>
      <point x="614" y="50"/>
      <point x="610" y="60"/>
      <point x="621" y="86" type="curve" smooth="yes"/>
      <point x="707" y="308" type="line" smooth="yes"/>
      <point x="734" y="378"/>
      <point x="700" y="414"/>
      <point x="663" y="414" type="curve" smooth="yes"/>
      <point x="598" y="414"/>
      <point x="516" y="345"/>
      <point x="432" y="208" type="curve" smooth="yes"/>
      <point x="428" y="201"/>
      <point x="419" y="202"/>
      <point x="423" y="212" type="curve" smooth="yes"/>
      <point x="459" y="317" type="line" smooth="yes"/>
      <point x="481" y="381"/>
      <point x="447" y="414"/>
      <point x="409" y="414" type="curve" smooth="yes"/>
      <point x="344" y="414"/>
      <point x="267" y="339"/>
      <point x="182" y="208" type="curve" smooth="yes"/>
      <point x="178" y="201"/>
      <point x="169" y="202"/>
      <point x="173" y="212" type="curve" smooth="yes"/>
      <point x="230" y="360" type="line" smooth="yes"/>
      <point x="246" y="402"/>
      <point x="211" y="414"/>
      <point x="184" y="414" type="curve" smooth="yes"/>
      <point x="139" y="413"/>
      <point x="108" y="392"/>
      <point x="85" y="364" type="curve" smooth="yes"/>
      <point x="76" y="353"/>
      <point x="67" y="326"/>
      <point x="68" y="314" type="curve"/>
      <point x="70" y="304"/>
      <point x="78" y="304"/>
      <point x="83" y="310" type="curve"/>
      <point x="115" y="352"/>
      <point x="135" y="356"/>
      <point x="155" y="356" type="curve" smooth="yes"/>
      <point x="171" y="356"/>
      <point x="178" y="342"/>
      <point x="172" y="325" type="curve" smooth="yes"/>
      <point x="80" y="84" type="line" smooth="yes"/>
      <point x="66" y="46"/>
      <point x="57" y="19"/>
      <point x="57" y="13" type="curve" smooth="yes"/>
      <point x="57" y="1"/>
      <point x="65" y="-17"/>
    </contour>
  </outline>
</glyph>
<glyph name="n" format="2">
  <advance width="527"/>
  <unicode hex="006E"/>
  <anchor x="180" y="-30" name="bottom"/>
  <anchor x="306" y="440" name="top"/>
  <note>
n
</note>
  <outline>
    <contour>
      <point x="63" y="-16" type="curve" smooth="yes"/>
      <point x="74" y="-16"/>
      <point x="82" y="-7"/>
      <point x="94" y="15" type="curve" smooth="yes"/>
      <point x="159" y="128"/>
      <point x="242" y="256"/>
      <point x="273" y="294" type="curve" smooth="yes"/>
      <point x="317" y="348"/>
      <point x="352" y="373"/>
      <point x="374" y="372" type="curve" smooth="yes"/>
      <point x="393" y="371"/>
      <point x="403" y="352"/>
      <point x="382" y="297" type="curve" smooth="yes"/>
      <point x="347" y="208"/>
      <point x="307" y="119"/>
      <point x="268" y="30" type="curve" smooth="yes"/>
      <point x="258" y="8"/>
      <point x="281" y="-14"/>
      <point x="299" y="-14" type="curve" smooth="yes"/>
      <point x="362" y="-14"/>
      <point x="427" y="33"/>
      <point x="479" y="96" type="curve"/>
      <point x="481" y="99"/>
      <point x="483" y="105"/>
      <point x="483" y="110" type="curve" smooth="yes"/>
      <point x="483" y="115"/>
      <point x="479" y="119"/>
      <point x="475" y="119" type="curve" smooth="yes"/>
      <point x="474" y="119"/>
      <point x="473" y="119"/>
      <point x="472" y="118" type="curve" smooth="yes"/>
      <point x="462" y="108"/>
      <point x="390" y="50"/>
      <point x="358" y="50" type="curve" smooth="yes"/>
      <point x="346" y="50"/>
      <point x="342" y="60"/>
      <point x="353" y="86" type="curve" smooth="yes"/>
      <point x="445" y="304" type="line" smooth="yes"/>
      <point x="472" y="367"/>
      <point x="440" y="414"/>
      <point x="398" y="414" type="curve" smooth="yes"/>
      <point x="337" y="414"/>
      <point x="246" y="337"/>
      <point x="164" y="197" type="curve" smooth="yes"/>
      <point x="160" y="190"/>
      <point x="151" y="191"/>
      <point x="155" y="201" type="curve" smooth="yes"/>
      <point x="221" y="371" type="line" smooth="yes"/>
      <point x="230" y="395"/>
      <point x="209" y="414"/>
      <point x="188" y="414" type="curve" smooth="yes"/>
      <point x="143" y="413"/>
      <point x="108" y="394"/>
      <point x="88" y="364" type="curve" smooth="yes"/>
      <point x="80" y="352"/>
      <point x="66" y="326"/>
      <point x="67" y="314" type="curve"/>
      <point x="69" y="304"/>
      <point x="77" y="304"/>
      <point x="82" y="310" type="curve"/>
      <point x="114" y="352"/>
      <point x="136" y="356"/>
      <point x="156" y="356" type="curve" smooth="yes"/>
      <point x="169" y="356"/>
      <point x="166" y="341"/>
      <point x="154" y="312" type="curve" smooth="yes"/>
      <point x="38" y="28" type="line" smooth="yes"/>
      <point x="31" y="11"/>
      <point x="47" y="-16"/>
    </contour>
  </outline>
</glyph>
<glyph name="o" format="2">
  <advance width="380"/>
  <unicode hex="006F"/>
  <note>
o
</note>
  <anchor x="104" y="-30" name="bottom"/>
  <anchor x="278" y="440" name="top"/>
  <outline>
    <contour>
      <point x="108" y="-14" type="curve" smooth="yes"/>
      <point x="262" y="-14"/>
      <point x="362" y="176"/>
      <point x="362" y="296" type="curve" smooth="yes"/>
      <point x="362" y="362"/>
      <point x="324" y="414"/>
      <point x="257" y="414" type="curve" smooth="yes"/>
      <point x="123" y="414"/>
      <point x="17" y="224"/>
      <point x="17" y="99" type="curve" smooth="yes"/>
      <point x="17" y="41"/>
      <point x="59" y="-14"/>
    </contour>
    <contour>
      <point x="124" y="16" type="curve" smooth="yes"/>
      <point x="97" y="16"/>
      <point x="81" y="34"/>
      <point x="81" y="78" type="curve" smooth="yes"/>
      <point x="81" y="210"/>
      <point x="178" y="384"/>
      <point x="255" y="384" type="curve" smooth="yes"/>
      <point x="289" y="384"/>
      <point x="298" y="359"/>
      <point x="298" y="324" type="curve" smooth="yes"/>
      <point x="298" y="211"/>
      <point x="204" y="16"/>
    </contour>
  </outline>
</glyph>
<glyph name="p" format="2">
  <advance width="439"/>
  <unicode hex="0070"/>
  <anchor x="303" y="440" name="top"/>
  <note>
p
</note>
  <outline>
    <contour>
      <point x="-107" y="-286" type="curve" smooth="yes"/>
      <point x="-71" y="-286"/>
      <point x="-41" y="-283"/>
      <point x="-8" y="-279" type="curve" smooth="yes"/>
      <point x="10" y="-277"/>
      <point x="44" y="-279"/>
      <point x="75" y="-279" type="curve" smooth="yes"/>
      <point x="90" y="-279"/>
      <point x="104" y="-276"/>
      <point x="104" y="-268" type="curve" smooth="yes"/>
      <point x="104" y="-258"/>
      <point x="87" y="-254"/>
      <point x="74" y="-253" type="curve" smooth="yes"/>
      <point x="40" y="-250"/>
      <point x="23" y="-237"/>
      <point x="33" y="-209" type="curve" smooth="yes"/>
      <point x="99" y="-14" type="line" smooth="yes"/>
      <point x="108" y="11"/>
      <point x="114" y="12"/>
      <point x="126" y="4" type="curve" smooth="yes"/>
      <point x="139" y="-4"/>
      <point x="155" y="-14"/>
      <point x="167" y="-14" type="curve" smooth="yes"/>
      <point x="299" y="-14"/>
      <point x="429" y="163"/>
      <point x="429" y="290" type="curve" smooth="yes"/>
      <point x="429" y="360"/>
      <point x="399" y="415"/>
      <point x="299" y="415" type="curve" smooth="yes"/>
      <point x="285" y="415"/>
      <point x="272" y="414"/>
      <point x="255" y="411" type="curve" smooth="yes"/>
      <point x="250" y="410"/>
      <point x="246" y="416"/>
      <point x="250" y="429" type="curve" smooth="yes"/>
      <point x="267" y="487" type="line" smooth="yes"/>
      <point x="270" y="499"/>
      <point x="260" y="506"/>
      <point x="249" y="506" type="curve" smooth="yes"/>
      <point x="219" y="506"/>
      <point x="208" y="480"/>
      <point x="189" y="417" type="curve" smooth="yes"/>
      <point x="186" y="407"/>
      <point x="180" y="403"/>
      <point x="171" y="401" type="curve" smooth="yes"/>
      <point x="118" y="387"/>
      <point x="76" y="366"/>
      <point x="55" y="355" type="curve" smooth="yes"/>
      <point x="47" y="351"/>
      <point x="40" y="345"/>
      <point x="40" y="334" type="curve" smooth="yes"/>
      <point x="40" y="326"/>
      <point x="50" y="322"/>
      <point x="61" y="327" type="curve" smooth="yes"/>
      <point x="89" y="340"/>
      <point x="109" y="345"/>
      <point x="141" y="350" type="curve" smooth="yes"/>
      <point x="161" y="353"/>
      <point x="162" y="347"/>
      <point x="152" y="319" type="curve" smooth="yes"/>
      <point x="-41" y="-220" type="line" smooth="yes"/>
      <point x="-50" y="-246"/>
      <point x="-65" y="-252"/>
      <point x="-93" y="-257" type="curve" smooth="yes"/>
      <point x="-105" y="-259"/>
      <point x="-123" y="-267"/>
      <point x="-123" y="-277" type="curve" smooth="yes"/>
      <point x="-123" y="-284"/>
      <point x="-114" y="-286"/>
    </contour>
    <contour>
      <point x="186" y="20" type="curve" smooth="yes"/>
      <point x="165" y="20"/>
      <point x="152" y="29"/>
      <point x="146" y="46" type="curve" smooth="yes"/>
      <point x="141" y="61"/>
      <point x="141" y="82"/>
      <point x="149" y="106" type="curve" smooth="yes"/>
      <point x="241" y="376" type="line"/>
      <point x="255" y="378"/>
      <point x="267" y="378"/>
      <point x="279" y="378" type="curve" smooth="yes"/>
      <point x="327" y="377"/>
      <point x="355" y="356"/>
      <point x="355" y="281" type="curve" smooth="yes"/>
      <point x="355" y="175"/>
      <point x="248" y="20"/>
    </contour>
  </outline>
</glyph>
<glyph name="q" format="2">
  <advance width="473"/>
  <unicode hex="0071"/>
  <note>
q
</note>
  <outline>
    <contour>
      <point x="110" y="-286" type="curve" smooth="yes"/>
      <point x="138" y="-281"/>
      <point x="220" y="-272"/>
      <point x="286" y="-272" type="curve" smooth="yes"/>
      <point x="301" y="-272"/>
      <point x="315" y="-269"/>
      <point x="315" y="-261" type="curve" smooth="yes"/>
      <point x="315" y="-251"/>
      <point x="298" y="-247"/>
      <point x="285" y="-246" type="curve" smooth="yes"/>
      <point x="259" y="-243"/>
      <point x="250" y="-227"/>
      <point x="259" y="-199" type="curve" smooth="yes"/>
      <point x="454" y="390" type="line" smooth="yes"/>
      <point x="463" y="415"/>
      <point x="459" y="428"/>
      <point x="451" y="428" type="curve" smooth="yes"/>
      <point x="441" y="428"/>
      <point x="431" y="423"/>
      <point x="424" y="407" type="curve" smooth="yes"/>
      <point x="415" y="388" type="line" smooth="yes"/>
      <point x="410" y="378"/>
      <point x="404" y="372"/>
      <point x="396" y="372" type="curve" smooth="yes"/>
      <point x="389" y="372"/>
      <point x="385" y="383"/>
      <point x="375" y="394" type="curve" smooth="yes"/>
      <point x="365" y="407"/>
      <point x="349" y="420"/>
      <point x="318" y="420" type="curve" smooth="yes"/>
      <point x="269" y="420"/>
      <point x="200" y="386"/>
      <point x="148" y="331" type="curve" smooth="yes"/>
      <point x="68" y="246"/>
      <point x="1" y="131"/>
      <point x="1" y="47" type="curve" smooth="yes"/>
      <point x="1" y="12"/>
      <point x="28" y="-14"/>
      <point x="71" y="-14" type="curve" smooth="yes"/>
      <point x="143" y="-14"/>
      <point x="214" y="37"/>
      <point x="288" y="120" type="curve" smooth="yes"/>
      <point x="304" y="138"/>
      <point x="310" y="125"/>
      <point x="304" y="110" type="curve" smooth="yes"/>
      <point x="264" y="3"/>
      <point x="223" y="-104"/>
      <point x="183" y="-211" type="curve" smooth="yes"/>
      <point x="174" y="-236"/>
      <point x="148" y="-253"/>
      <point x="120" y="-257" type="curve" smooth="yes"/>
      <point x="108" y="-259"/>
      <point x="90" y="-267"/>
      <point x="90" y="-277" type="curve" smooth="yes"/>
      <point x="90" y="-285"/>
      <point x="103" y="-287"/>
    </contour>
    <contour>
      <point x="96" y="22" type="curve" smooth="yes"/>
      <point x="77" y="22"/>
      <point x="71" y="34"/>
      <point x="71" y="61" type="curve" smooth="yes"/>
      <point x="70" y="176"/>
      <point x="247" y="387"/>
      <point x="309" y="387" type="curve" smooth="yes"/>
      <point x="335" y="387"/>
      <point x="348" y="363"/>
      <point x="348" y="337" type="curve" smooth="yes"/>
      <point x="348" y="296"/>
      <point x="322" y="238"/>
      <point x="293" y="188" type="curve" smooth="yes"/>
      <point x="251" y="115"/>
      <point x="149" y="22"/>
    </contour>
  </outline>
</glyph>
<glyph name="r" format="2">
  <advance width="379"/>
  <unicode hex="0072"/>
  <note>
r
</note>
  <anchor x="107" y="-30" name="bottom"/>
  <anchor x="261" y="440" name="top"/>
  <outline>
    <contour>
      <point x="60" y="-17" type="curve" smooth="yes"/>
      <point x="76" y="-17"/>
      <point x="86" y="11"/>
      <point x="122" y="75" type="curve" smooth="yes"/>
      <point x="163" y="148"/>
      <point x="235" y="258"/>
      <point x="265" y="297" type="curve" smooth="yes"/>
      <point x="298" y="340"/>
      <point x="320" y="355"/>
      <point x="333" y="355" type="curve" smooth="yes"/>
      <point x="347" y="355"/>
      <point x="352" y="343"/>
      <point x="352" y="323" type="curve" smooth="yes"/>
      <point x="352" y="302"/>
      <point x="357" y="288"/>
      <point x="368" y="288" type="curve" smooth="yes"/>
      <point x="396" y="288"/>
      <point x="418" y="332"/>
      <point x="418" y="369" type="curve" smooth="yes"/>
      <point x="418" y="396"/>
      <point x="405" y="419"/>
      <point x="371" y="419" type="curve" smooth="yes"/>
      <point x="324" y="419"/>
      <point x="237" y="327"/>
      <point x="157" y="190" type="curve"/>
      <point x="153" y="183"/>
      <point x="140" y="186"/>
      <point x="145" y="196" type="curve"/>
      <point x="190" y="309" type="line" smooth="yes"/>
      <point x="214" y="369"/>
      <point x="225" y="414"/>
      <point x="170" y="414" type="curve" smooth="yes"/>
      <point x="146" y="414"/>
      <point x="123" y="405"/>
      <point x="107" y="393" type="curve" smooth="yes"/>
      <point x="90" y="381"/>
      <point x="79" y="366"/>
      <point x="79" y="356" type="curve" smooth="yes"/>
      <point x="79" y="346"/>
      <point x="88" y="343"/>
      <point x="96" y="348" type="curve" smooth="yes"/>
      <point x="105" y="353"/>
      <point x="125" y="359"/>
      <point x="144" y="359" type="curve" smooth="yes"/>
      <point x="157" y="359"/>
      <point x="156" y="341"/>
      <point x="150" y="324" type="curve" smooth="yes"/>
      <point x="58" y="84" type="line" smooth="yes"/>
      <point x="44" y="46"/>
      <point x="35" y="23"/>
      <point x="35" y="7" type="curve" smooth="yes"/>
      <point x="35" y="-5"/>
      <point x="50" y="-17"/>
    </contour>
  </outline>
</glyph>
<glyph name="t" format="2">
  <advance width="292"/>
  <unicode hex="0074"/>
  <note>
t
</note>
  <anchor x="77" y="-30" name="bottom"/>
  <anchor x="219" y="471" name="top"/>
  <outline>
    <contour>
      <point x="64" y="-14" type="curve" smooth="yes"/>
      <point x="90" y="-14"/>
      <point x="167" y="28"/>
      <point x="219" y="85" type="curve" smooth="yes"/>
      <point x="230" y="97"/>
      <point x="237" y="109"/>
      <point x="237" y="118" type="curve" smooth="yes"/>
      <point x="237" y="126"/>
      <point x="224" y="129"/>
      <point x="210" y="115" type="curve" smooth="yes"/>
      <point x="189" y="95"/>
      <point x="151" y="59"/>
      <point x="124" y="59" type="curve" smooth="yes"/>
      <point x="101" y="59"/>
      <point x="97" y="74"/>
      <point x="106" y="99" type="curve" smooth="yes"/>
      <point x="195" y="345" type="line" smooth="yes"/>
      <point x="198" y="353"/>
      <point x="205" y="359"/>
      <point x="226" y="360" type="curve" smooth="yes"/>
      <point x="255" y="361"/>
      <point x="281" y="363"/>
      <point x="310" y="365" type="curve" smooth="yes"/>
      <point x="325" y="366"/>
      <point x="329" y="374"/>
      <point x="329" y="377" type="curve" smooth="yes"/>
      <point x="329" y="384"/>
      <point x="327" y="388"/>
      <point x="306" y="392" type="curve" smooth="yes"/>
      <point x="288" y="395"/>
      <point x="258" y="400"/>
      <point x="231" y="400" type="curve" smooth="yes"/>
      <point x="220" y="400"/>
      <point x="215" y="402"/>
      <point x="218" y="411" type="curve"/>
      <point x="244" y="478" type="line" smooth="yes"/>
      <point x="249" y="491"/>
      <point x="247" y="510"/>
      <point x="236" y="510" type="curve" smooth="yes"/>
      <point x="226" y="510"/>
      <point x="190" y="481"/>
      <point x="182" y="465" type="curve" smooth="yes"/>
      <point x="158" y="416" type="line" smooth="yes"/>
      <point x="151" y="401"/>
      <point x="148" y="398"/>
      <point x="134" y="398" type="curve" smooth="yes"/>
      <point x="98" y="398" type="line" smooth="yes"/>
      <point x="80" y="398"/>
      <point x="64" y="377"/>
      <point x="64" y="374" type="curve" smooth="yes"/>
      <point x="64" y="369"/>
      <point x="65" y="361"/>
      <point x="82" y="360" type="curve" smooth="yes"/>
      <point x="122" y="358" type="line"/>
      <point x="128" y="358"/>
      <point x="135" y="355"/>
      <point x="132" y="346" type="curve" smooth="yes"/>
      <point x="37" y="79" type="line" smooth="yes"/>
      <point x="30" y="59"/>
      <point x="23" y="45"/>
      <point x="23" y="23" type="curve" smooth="yes"/>
      <point x="23" y="9"/>
      <point x="47" y="-14"/>
    </contour>
  </outline>
</glyph>
<glyph name="u" format="2">
  <advance width="509"/>
  <unicode hex="0075"/>
  <anchor x="167" y="-30" name="bottom"/>
  <anchor x="329" y="440" name="top"/>
  <note>
u
</note>
  <outline>
    <contour>
      <point x="67" y="-14" type="curve" smooth="yes"/>
      <point x="101" y="-14"/>
      <point x="173" y="59"/>
      <point x="312" y="211" type="curve" smooth="yes"/>
      <point x="319" y="219"/>
      <point x="330" y="219"/>
      <point x="324" y="203" type="curve" smooth="yes"/>
      <point x="314" y="175"/>
      <point x="276" y="93"/>
      <point x="248" y="33" type="curve" smooth="yes"/>
      <point x="240" y="15"/>
      <point x="259" y="-14"/>
      <point x="276" y="-14" type="curve" smooth="yes"/>
      <point x="339" y="-14"/>
      <point x="396" y="37"/>
      <point x="434" y="84" type="curve" smooth="yes"/>
      <point x="450" y="103"/>
      <point x="456" y="114"/>
      <point x="456" y="119" type="curve" smooth="yes"/>
      <point x="456" y="124"/>
      <point x="451" y="128"/>
      <point x="447" y="128" type="curve" smooth="yes"/>
      <point x="446" y="128"/>
      <point x="445" y="128"/>
      <point x="444" y="127" type="curve" smooth="yes"/>
      <point x="414" y="97"/>
      <point x="356" y="47"/>
      <point x="330" y="47" type="curve" smooth="yes"/>
      <point x="318" y="47"/>
      <point x="316" y="60"/>
      <point x="327" y="86" type="curve" smooth="yes"/>
      <point x="455" y="380" type="line" smooth="yes"/>
      <point x="460" y="391"/>
      <point x="445" y="414"/>
      <point x="433" y="414" type="curve" smooth="yes"/>
      <point x="425" y="414"/>
      <point x="415" y="411"/>
      <point x="408" y="398" type="curve" smooth="yes"/>
      <point x="391" y="367"/>
      <point x="314" y="259"/>
      <point x="239" y="174" type="curve" smooth="yes"/>
      <point x="183" y="112"/>
      <point x="130" y="55"/>
      <point x="110" y="55" type="curve" smooth="yes"/>
      <point x="96" y="55"/>
      <point x="101" y="82"/>
      <point x="113" y="109" type="curve" smooth="yes"/>
      <point x="153" y="199"/>
      <point x="192" y="294"/>
      <point x="236" y="385" type="curve" smooth="yes"/>
      <point x="243" y="399"/>
      <point x="224" y="418"/>
      <point x="214" y="418" type="curve" smooth="yes"/>
      <point x="185" y="418"/>
      <point x="109" y="380"/>
      <point x="59" y="313" type="curve" smooth="yes"/>
      <point x="48" y="298"/>
      <point x="47" y="288"/>
      <point x="47" y="283" type="curve" smooth="yes"/>
      <point x="47" y="279"/>
      <point x="57" y="277"/>
      <point x="60" y="280" type="curve"/>
      <point x="89" y="306"/>
      <point x="121" y="333"/>
      <point x="132" y="333" type="curve" smooth="yes"/>
      <point x="142" y="333"/>
      <point x="138" y="314"/>
      <point x="129" y="292" type="curve" smooth="yes"/>
      <point x="24" y="39" type="line" smooth="yes"/>
      <point x="17" y="22"/>
      <point x="44" y="-14"/>
    </contour>
  </outline>
</glyph>
<glyph name="w" format="2">
  <advance width="623"/>
  <unicode hex="0077"/>
  <note>
w
</note>
  <anchor x="242" y="-30" name="bottom"/>
  <anchor x="385" y="440" name="top"/>
  <outline>
    <contour>
      <point x="127" y="-14" type="curve" smooth="yes"/>
      <point x="165" y="-14"/>
      <point x="256" y="57"/>
      <point x="304" y="133" type="curve"/>
      <point x="295" y="129" type="line"/>
      <point x="280" y="63"/>
      <point x="296" y="-14"/>
      <point x="347" y="-14" type="curve" smooth="yes"/>
      <point x="394" y="-14"/>
      <point x="446" y="17"/>
      <point x="500" y="80" type="curve" smooth="yes"/>
      <point x="577" y="171"/>
      <point x="614" y="261"/>
      <point x="614" y="349" type="curve" smooth="yes"/>
      <point x="614" y="395"/>
      <point x="599" y="420"/>
      <point x="585" y="420" type="curve" smooth="yes"/>
      <point x="564" y="420"/>
      <point x="522" y="386"/>
      <point x="522" y="365" type="curve" smooth="yes"/>
      <point x="522" y="356"/>
      <point x="533" y="344"/>
      <point x="542" y="329" type="curve" smooth="yes"/>
      <point x="549" y="317"/>
      <point x="555" y="304"/>
      <point x="555" y="288" type="curve" smooth="yes"/>
      <point x="555" y="179"/>
      <point x="458" y="41"/>
      <point x="384" y="41" type="curve" smooth="yes"/>
      <point x="351" y="41"/>
      <point x="344" y="82"/>
      <point x="354" y="143" type="curve" smooth="yes"/>
      <point x="356" y="157"/>
      <point x="365" y="191"/>
      <point x="375" y="214" type="curve" smooth="yes"/>
      <point x="386" y="239"/>
      <point x="398" y="275"/>
      <point x="416" y="322" type="curve" smooth="yes"/>
      <point x="426" y="348"/>
      <point x="430" y="397"/>
      <point x="416" y="397" type="curve" smooth="yes"/>
      <point x="389" y="397"/>
      <point x="375" y="386"/>
      <point x="359" y="376" type="curve" smooth="yes"/>
      <point x="348" y="369"/>
      <point x="340" y="353"/>
      <point x="336" y="335" type="curve" smooth="yes"/>
      <point x="330" y="310"/>
      <point x="310" y="213"/>
      <point x="304" y="186" type="curve" smooth="yes"/>
      <point x="298" y="157"/>
      <point x="213" y="43"/>
      <point x="162" y="43" type="curve" smooth="yes"/>
      <point x="129" y="43"/>
      <point x="117" y="74"/>
      <point x="133" y="120" type="curve" smooth="yes"/>
      <point x="224" y="381" type="line" smooth="yes"/>
      <point x="232" y="404"/>
      <point x="216" y="418"/>
      <point x="205" y="418" type="curve" smooth="yes"/>
      <point x="176" y="418"/>
      <point x="113" y="380"/>
      <point x="62" y="319" type="curve" smooth="yes"/>
      <point x="50" y="304"/>
      <point x="50" y="298"/>
      <point x="50" y="293" type="curve" smooth="yes"/>
      <point x="50" y="289"/>
      <point x="55" y="286"/>
      <point x="59" y="286" type="curve" smooth="yes"/>
      <point x="61" y="286"/>
      <point x="69" y="288"/>
      <point x="75" y="295" type="curve" smooth="yes"/>
      <point x="96" y="319"/>
      <point x="126" y="332"/>
      <point x="133" y="332" type="curve" smooth="yes"/>
      <point x="144" y="332"/>
      <point x="147" y="322"/>
      <point x="140" y="304" type="curve" smooth="yes"/>
      <point x="80" y="141" type="line" smooth="yes"/>
      <point x="43" y="40"/>
      <point x="76" y="-14"/>
    </contour>
  </outline>
</glyph>
<glyph name="x" format="2">
  <advance width="438"/>
  <unicode hex="0078"/>
  <note>
x
</note>
  <anchor x="280" y="440" name="top"/>
  <outline>
    <contour>
      <point x="24" y="-14" type="curve" smooth="yes"/>
      <point x="48" y="-14"/>
      <point x="70" y="-6"/>
      <point x="98" y="27" type="curve" smooth="yes"/>
      <point x="131" y="66"/>
      <point x="163" y="110"/>
      <point x="195" y="150" type="curve" smooth="yes"/>
      <point x="203" y="160"/>
      <point x="207" y="160"/>
      <point x="211" y="144" type="curve" smooth="yes"/>
      <point x="218" y="116"/>
      <point x="226" y="81"/>
      <point x="233" y="53" type="curve" smooth="yes"/>
      <point x="245" y="9"/>
      <point x="259" y="-14"/>
      <point x="296" y="-14" type="curve" smooth="yes"/>
      <point x="354" y="-14"/>
      <point x="400" y="81"/>
      <point x="400" y="118" type="curve" smooth="yes"/>
      <point x="400" y="138"/>
      <point x="396" y="140"/>
      <point x="391" y="140" type="curve" smooth="yes"/>
      <point x="386" y="140"/>
      <point x="382" y="136"/>
      <point x="378" y="126" type="curve" smooth="yes"/>
      <point x="358" y="77"/>
      <point x="331" y="46"/>
      <point x="312" y="46" type="curve" smooth="yes"/>
      <point x="305" y="46"/>
      <point x="296" y="52"/>
      <point x="291" y="70" type="curve" smooth="yes"/>
      <point x="257" y="193" type="line" smooth="yes"/>
      <point x="252" y="210"/>
      <point x="254" y="220"/>
      <point x="259" y="228" type="curve" smooth="yes"/>
      <point x="284" y="266"/>
      <point x="306" y="292"/>
      <point x="325" y="314" type="curve" smooth="yes"/>
      <point x="348" y="342"/>
      <point x="366" y="356"/>
      <point x="382" y="356" type="curve" smooth="yes"/>
      <point x="391" y="356"/>
      <point x="397" y="351"/>
      <point x="404" y="333" type="curve" smooth="yes"/>
      <point x="408" y="323"/>
      <point x="414" y="316"/>
      <point x="422" y="316" type="curve" smooth="yes"/>
      <point x="439" y="316"/>
      <point x="464" y="356"/>
      <point x="463" y="371" type="curve" smooth="yes"/>
      <point x="462" y="387"/>
      <point x="438" y="414"/>
      <point x="412" y="414" type="curve" smooth="yes"/>
      <point x="376" y="414"/>
      <point x="342" y="383"/>
      <point x="322" y="355" type="curve" smooth="yes"/>
      <point x="252" y="255" type="line" smooth="yes"/>
      <point x="245" y="246"/>
      <point x="240" y="247"/>
      <point x="238" y="257" type="curve" smooth="yes"/>
      <point x="213" y="363" type="line" smooth="yes"/>
      <point x="204" y="398"/>
      <point x="192" y="414"/>
      <point x="171" y="414" type="curve" smooth="yes"/>
      <point x="127" y="414"/>
      <point x="64" y="339"/>
      <point x="64" y="300" type="curve" smooth="yes"/>
      <point x="64" y="290"/>
      <point x="66" y="283"/>
      <point x="71" y="283" type="curve" smooth="yes"/>
      <point x="80" y="283"/>
      <point x="85" y="295"/>
      <point x="88" y="299" type="curve" smooth="yes"/>
      <point x="113" y="335"/>
      <point x="134" y="351"/>
      <point x="144" y="351" type="curve" smooth="yes"/>
      <point x="152" y="351"/>
      <point x="155" y="349"/>
      <point x="159" y="334" type="curve" smooth="yes"/>
      <point x="197" y="194" type="line" smooth="yes"/>
      <point x="199" y="188"/>
      <point x="199" y="181"/>
      <point x="194" y="176" type="curve" smooth="yes"/>
      <point x="152" y="128"/>
      <point x="130" y="99"/>
      <point x="90" y="58" type="curve" smooth="yes"/>
      <point x="82" y="50"/>
      <point x="72" y="45"/>
      <point x="63" y="46" type="curve" smooth="yes"/>
      <point x="55" y="46"/>
      <point x="48" y="53"/>
      <point x="44" y="69" type="curve" smooth="yes"/>
      <point x="42" y="78"/>
      <point x="38" y="87"/>
      <point x="28" y="87" type="curve" smooth="yes"/>
      <point x="11" y="87"/>
      <point x="-17" y="47"/>
      <point x="-17" y="24" type="curve" smooth="yes"/>
      <point x="-17" y="-2"/>
      <point x="4" y="-14"/>
    </contour>
  </outline>
</glyph>
<glyph name="y" format="2">
  <advance width="405"/>
  <unicode hex="0079"/>
  <note>
y
</note>
  <anchor x="239" y="440" name="top"/>
  <outline>
    <contour>
      <point x="-54" y="-290" type="curve" smooth="yes"/>
      <point x="1" y="-290"/>
      <point x="78" y="-217"/>
      <point x="148" y="-130" type="curve" smooth="yes"/>
      <point x="296" y="53"/>
      <point x="396" y="256"/>
      <point x="396" y="380" type="curve" smooth="yes"/>
      <point x="396" y="404"/>
      <point x="371" y="423"/>
      <point x="363" y="423" type="curve" smooth="yes"/>
      <point x="357" y="423"/>
      <point x="344" y="410"/>
      <point x="344" y="404" type="curve" smooth="yes"/>
      <point x="344" y="271"/>
      <point x="302" y="159"/>
      <point x="258" y="75" type="curve" smooth="yes"/>
      <point x="249" y="58"/>
      <point x="242" y="54"/>
      <point x="243" y="78" type="curve" smooth="yes"/>
      <point x="249" y="211"/>
      <point x="230" y="290"/>
      <point x="212" y="348" type="curve" smooth="yes"/>
      <point x="199" y="391"/>
      <point x="177" y="414"/>
      <point x="145" y="414" type="curve" smooth="yes"/>
      <point x="100" y="414"/>
      <point x="42" y="350"/>
      <point x="42" y="289" type="curve" smooth="yes"/>
      <point x="42" y="274"/>
      <point x="46" y="261"/>
      <point x="51" y="261" type="curve" smooth="yes"/>
      <point x="59" y="261"/>
      <point x="68" y="283"/>
      <point x="70" y="290" type="curve" smooth="yes"/>
      <point x="77" y="314"/>
      <point x="106" y="355"/>
      <point x="126" y="355" type="curve" smooth="yes"/>
      <point x="146" y="355"/>
      <point x="184" y="301"/>
      <point x="184" y="154" type="curve" smooth="yes"/>
      <point x="184" y="63"/>
      <point x="176" y="-12"/>
      <point x="146" y="-74" type="curve" smooth="yes"/>
      <point x="102" y="-163"/>
      <point x="48" y="-230"/>
      <point x="1" y="-230" type="curve" smooth="yes"/>
      <point x="-11" y="-230"/>
      <point x="-20" y="-223"/>
      <point x="-29" y="-215" type="curve" smooth="yes"/>
      <point x="-38" y="-207"/>
      <point x="-47" y="-198"/>
      <point x="-60" y="-198" type="curve" smooth="yes"/>
      <point x="-79" y="-198"/>
      <point x="-99" y="-221"/>
      <point x="-99" y="-248" type="curve" smooth="yes"/>
      <point x="-99" y="-276"/>
      <point x="-74" y="-290"/>
    </contour>
  </outline>
</glyph>
<glyph name="z" format="2">
  <advance width="407"/>
  <unicode hex="007A"/>
  <note>
z
</note>
  <anchor x="165" y="-30" name="bottom"/>
  <anchor x="257" y="440" name="top"/>
  <outline>
    <contour>
      <point x="229" y="-34" type="curve" smooth="yes"/>
      <point x="265" y="-34"/>
      <point x="360" y="36"/>
      <point x="360" y="92" type="curve" smooth="yes"/>
      <point x="360" y="124"/>
      <point x="341" y="143"/>
      <point x="327" y="143" type="curve" smooth="yes"/>
      <point x="315" y="143"/>
      <point x="312" y="138"/>
      <point x="312" y="114" type="curve" smooth="yes"/>
      <point x="312" y="69"/>
      <point x="308" y="18"/>
      <point x="263" y="18" type="curve" smooth="yes"/>
      <point x="240" y="18"/>
      <point x="219" y="37"/>
      <point x="196" y="56" type="curve" smooth="yes"/>
      <point x="171" y="77"/>
      <point x="146" y="98"/>
      <point x="116" y="98" type="curve" smooth="yes"/>
      <point x="100" y="98"/>
      <point x="91" y="96"/>
      <point x="75" y="82" type="curve"/>
      <point x="90" y="75" type="line"/>
      <point x="375" y="356" type="line" smooth="yes"/>
      <point x="394" y="375"/>
      <point x="407" y="396"/>
      <point x="407" y="406" type="curve" smooth="yes"/>
      <point x="407" y="412"/>
      <point x="402" y="418"/>
      <point x="398" y="418" type="curve" smooth="yes"/>
      <point x="388" y="418"/>
      <point x="375" y="407"/>
      <point x="368" y="400" type="curve" smooth="yes"/>
      <point x="353" y="385"/>
      <point x="343" y="379"/>
      <point x="323" y="379" type="curve" smooth="yes"/>
      <point x="306" y="379"/>
      <point x="284" y="389"/>
      <point x="260" y="398" type="curve" smooth="yes"/>
      <point x="238" y="406"/>
      <point x="216" y="414"/>
      <point x="194" y="414" type="curve" smooth="yes"/>
      <point x="172" y="414"/>
      <point x="122" y="390"/>
      <point x="99" y="368" type="curve" smooth="yes"/>
      <point x="67" y="338"/>
      <point x="49" y="316"/>
      <point x="49" y="280" type="curve" smooth="yes"/>
      <point x="49" y="258"/>
      <point x="63" y="246"/>
      <point x="70" y="246" type="curve" smooth="yes"/>
      <point x="76" y="246"/>
      <point x="102" y="258"/>
      <point x="111" y="268" type="curve"/>
      <point x="116" y="274"/>
      <point x="116" y="278"/>
      <point x="111" y="286" type="curve" smooth="yes"/>
      <point x="103" y="298"/>
      <point x="101" y="312"/>
      <point x="101" y="322" type="curve" smooth="yes"/>
      <point x="101" y="342"/>
      <point x="125" y="366"/>
      <point x="149" y="366" type="curve" smooth="yes"/>
      <point x="181" y="366"/>
      <point x="208" y="353"/>
      <point x="234" y="340" type="curve" smooth="yes"/>
      <point x="256" y="329"/>
      <point x="277" y="319"/>
      <point x="297" y="319" type="curve" smooth="yes"/>
      <point x="314" y="319"/>
      <point x="322" y="327"/>
      <point x="336" y="346" type="curve"/>
      <point x="313" y="338" type="line"/>
      <point x="25" y="59" type="line" smooth="yes"/>
      <point x="6" y="41"/>
      <point x="0" y="20"/>
      <point x="1" y="6" type="curve" smooth="yes"/>
      <point x="2" y="-7"/>
      <point x="11" y="-20"/>
      <point x="15" y="-20" type="curve" smooth="yes"/>
      <point x="20" y="-20"/>
      <point x="30" y="-19"/>
      <point x="30" y="-6" type="curve" smooth="yes"/>
      <point x="30" y="25"/>
      <point x="53" y="52"/>
      <point x="93" y="52" type="curve" smooth="yes"/>
      <point x="106" y="52"/>
      <point x="123" y="35"/>
      <point x="143" y="16" type="curve" smooth="yes"/>
      <point x="168" y="-8"/>
      <point x="196" y="-34"/>
    </contour>
  </outline>
</glyph>
<glyph name="braceleft" format="2">
  <advance width="352"/>
  <unicode hex="007B"/>
  <note>
braceleft
</note>
  <outline>
    <contour>
      <point x="191" y="-154" type="curve" smooth="yes"/>
      <point x="199" y="-154"/>
      <point x="209" y="-148"/>
      <point x="212" y="-139" type="curve"/>
      <point x="215" y="-128"/>
      <point x="202" y="-127"/>
      <point x="192" y="-127" type="curve" smooth="yes"/>
      <point x="133" y="-127"/>
      <point x="96" y="-98"/>
      <point x="118" y="-26" type="curve" smooth="yes"/>
      <point x="139" y="42"/>
      <point x="165" y="89"/>
      <point x="183" y="147" type="curve" smooth="yes"/>
      <point x="203" y="215"/>
      <point x="169" y="264"/>
      <point x="109" y="279" type="curve"/>
      <point x="107" y="280"/>
      <point x="105" y="281"/>
      <point x="109" y="283" type="curve"/>
      <point x="186" y="300"/>
      <point x="244" y="348"/>
      <point x="264" y="414" type="curve" smooth="yes"/>
      <point x="282" y="472"/>
      <point x="284" y="519"/>
      <point x="305" y="587" type="curve" smooth="yes"/>
      <point x="327" y="660"/>
      <point x="381" y="688"/>
      <point x="441" y="688" type="curve" smooth="yes"/>
      <point x="451" y="688"/>
      <point x="466" y="689"/>
      <point x="469" y="700" type="curve"/>
      <point x="472" y="709"/>
      <point x="465" y="715"/>
      <point x="457" y="715" type="curve" smooth="yes"/>
      <point x="369" y="715"/>
      <point x="257" y="676"/>
      <point x="228" y="582" type="curve" smooth="yes"/>
      <point x="207" y="512"/>
      <point x="205" y="466"/>
      <point x="186" y="404" type="curve" smooth="yes"/>
      <point x="168" y="346"/>
      <point x="118" y="308"/>
      <point x="62" y="288" type="curve"/>
      <point x="57" y="286"/>
      <point x="52" y="288"/>
      <point x="50" y="282" type="curve" smooth="yes"/>
      <point x="48" y="276"/>
      <point x="53" y="275"/>
      <point x="57" y="273" type="curve"/>
      <point x="101" y="253"/>
      <point x="128" y="215"/>
      <point x="110" y="157" type="curve" smooth="yes"/>
      <point x="91" y="95"/>
      <point x="65" y="49"/>
      <point x="44" y="-21" type="curve" smooth="yes"/>
      <point x="15" y="-115"/>
      <point x="103" y="-154"/>
    </contour>
  </outline>
</glyph>
<glyph name="asciitilde" format="2">
  <advance width="500"/>
  <unicode hex="007E"/>
  <note>
asciitilde
</note>
  <outline>
    <contour>
      <point x="102" y="258" type="curve"/>
      <point x="118" y="276"/>
      <point x="172" y="308"/>
      <point x="195" y="308" type="curve" smooth="yes"/>
      <point x="223" y="308"/>
      <point x="254" y="295"/>
      <point x="284" y="283" type="curve" smooth="yes"/>
      <point x="312" y="272"/>
      <point x="339" y="260"/>
      <point x="362" y="260" type="curve" smooth="yes"/>
      <point x="411" y="260"/>
      <point x="473" y="335"/>
      <point x="487" y="362" type="curve"/>
      <point x="490" y="367"/>
      <point x="482" y="382"/>
      <point x="477" y="382" type="curve" smooth="yes"/>
      <point x="468" y="382"/>
      <point x="457" y="371"/>
      <point x="441" y="359" type="curve" smooth="yes"/>
      <point x="424" y="346"/>
      <point x="402" y="333"/>
      <point x="374" y="333" type="curve" smooth="yes"/>
      <point x="345" y="333"/>
      <point x="319" y="342"/>
      <point x="295" y="353" type="curve" smooth="yes"/>
      <point x="265" y="367"/>
      <point x="238" y="381"/>
      <point x="212" y="381" type="curve" smooth="yes"/>
      <point x="167" y="381"/>
      <point x="107" y="316"/>
      <point x="87" y="276" type="curve" smooth="yes"/>
      <point x="84" y="270"/>
      <point x="97" y="253"/>
    </contour>
  </outline>
</glyph>
<glyph name="cent" format="2">
  <advance width="395"/>
  <unicode hex="00A2"/>
  <note>
cent
</note>
  <outline>
    <contour>
      <point x="117" y="-80" type="curve" smooth="yes"/>
      <point x="126" y="-80"/>
      <point x="140" y="-74"/>
      <point x="144" y="-65" type="curve" smooth="yes"/>
      <point x="165" y="-14" type="line"/>
      <point x="238" y="-12"/>
      <point x="295" y="15"/>
      <point x="351" y="77" type="curve" smooth="yes"/>
      <point x="358" y="85"/>
      <point x="352" y="93"/>
      <point x="344" y="93" type="curve" smooth="yes"/>
      <point x="340" y="93"/>
      <point x="336" y="91"/>
      <point x="333" y="88" type="curve" smooth="yes"/>
      <point x="296" y="51"/>
      <point x="247" y="45"/>
      <point x="205" y="45" type="curve" smooth="yes"/>
      <point x="200" y="45"/>
      <point x="195" y="45"/>
      <point x="190" y="46" type="curve"/>
      <point x="327" y="379" type="line"/>
      <point x="351" y="372"/>
      <point x="362" y="354"/>
      <point x="368" y="329" type="curve"/>
      <point x="369" y="323"/>
      <point x="377" y="319"/>
      <point x="386" y="319" type="curve" smooth="yes"/>
      <point x="400" y="319"/>
      <point x="431" y="339"/>
      <point x="434" y="353" type="curve" smooth="yes"/>
      <point x="441" y="383"/>
      <point x="386" y="411"/>
      <point x="341" y="413" type="curve"/>
      <point x="361" y="462" type="line" smooth="yes"/>
      <point x="364" y="470"/>
      <point x="362" y="479"/>
      <point x="354" y="479" type="curve" smooth="yes"/>
      <point x="343" y="479"/>
      <point x="328" y="473"/>
      <point x="324" y="462" type="curve" smooth="yes"/>
      <point x="304" y="412" type="line"/>
      <point x="136" y="412"/>
      <point x="22" y="253"/>
      <point x="22" y="128" type="curve" smooth="yes"/>
      <point x="22" y="62"/>
      <point x="60" y="11"/>
      <point x="129" y="-12" type="curve"/>
      <point x="106" y="-65" type="line" smooth="yes"/>
      <point x="102" y="-74"/>
      <point x="108" y="-80"/>
    </contour>
    <contour>
      <point x="155" y="53" type="line"/>
      <point x="115" y="69"/>
      <point x="98" y="107"/>
      <point x="98" y="153" type="curve" smooth="yes"/>
      <point x="98" y="266"/>
      <point x="189" y="384"/>
      <point x="292" y="384" type="curve"/>
    </contour>
  </outline>
</glyph>
<glyph name="sterling" format="2">
  <advance width="499"/>
  <unicode hex="00A3"/>
  <note>
sterling
</note>
  <outline>
    <contour>
      <point x="89" y="293" type="curve"/>
      <point x="377" y="313" type="line"/>
      <point x="392" y="313"/>
      <point x="401" y="324"/>
      <point x="408" y="337" type="curve"/>
      <point x="411" y="344"/>
      <point x="402" y="351"/>
      <point x="395" y="351" type="curve"/>
      <point x="99" y="331" type="line"/>
      <point x="86" y="330"/>
      <point x="75" y="314"/>
      <point x="75" y="305" type="curve" smooth="yes"/>
      <point x="75" y="299"/>
      <point x="82" y="293"/>
    </contour>
    <component base="L.script"/>
  </outline>
</glyph>
<glyph name="currency" format="2">
  <advance width="488"/>
  <unicode hex="00A4"/>
  <note>
currency
</note>
  <outline>
    <contour>
      <point x="209" y="76" type="curve" smooth="yes"/>
      <point x="371" y="76"/>
      <point x="465" y="206"/>
      <point x="465" y="316" type="curve" smooth="yes"/>
      <point x="465" y="390"/>
      <point x="420" y="459"/>
      <point x="323" y="459" type="curve" smooth="yes"/>
      <point x="160" y="459"/>
      <point x="67" y="329"/>
      <point x="67" y="219" type="curve" smooth="yes"/>
      <point x="67" y="145"/>
      <point x="112" y="76"/>
    </contour>
    <contour>
      <point x="33" y="66" type="curve" smooth="yes"/>
      <point x="36" y="66"/>
      <point x="39" y="65"/>
      <point x="42" y="67" type="curve" smooth="yes"/>
      <point x="111" y="119" type="line"/>
      <point x="81" y="159" type="line"/>
      <point x="13" y="108" type="line" smooth="yes"/>
      <point x="10" y="106"/>
      <point x="8" y="103"/>
      <point x="7" y="99" type="curve" smooth="yes"/>
      <point x="4" y="85"/>
      <point x="22" y="66"/>
    </contour>
    <contour>
      <point x="380" y="68" type="curve" smooth="yes"/>
      <point x="392" y="65"/>
      <point x="415" y="81"/>
      <point x="415" y="94" type="curve" smooth="yes"/>
      <point x="415" y="97"/>
      <point x="415" y="99"/>
      <point x="413" y="101" type="curve" smooth="yes"/>
      <point x="366" y="166" type="line"/>
      <point x="327" y="135" type="line"/>
      <point x="372" y="72" type="line" smooth="yes"/>
      <point x="374" y="70"/>
      <point x="376" y="69"/>
    </contour>
    <contour>
      <point x="224" y="126" type="curve" smooth="yes"/>
      <point x="152" y="126"/>
      <point x="119" y="177"/>
      <point x="119" y="232" type="curve" smooth="yes"/>
      <point x="119" y="313"/>
      <point x="188" y="409"/>
      <point x="308" y="409" type="curve" smooth="yes"/>
      <point x="380" y="409"/>
      <point x="413" y="358"/>
      <point x="413" y="303" type="curve" smooth="yes"/>
      <point x="413" y="222"/>
      <point x="344" y="126"/>
    </contour>
    <contour>
      <point x="165" y="373" type="line"/>
      <point x="204" y="404" type="line"/>
      <point x="159" y="467" type="line" smooth="yes"/>
      <point x="157" y="469"/>
      <point x="155" y="470"/>
      <point x="151" y="471" type="curve" smooth="yes"/>
      <point x="139" y="474"/>
      <point x="116" y="458"/>
      <point x="116" y="445" type="curve" smooth="yes"/>
      <point x="116" y="442"/>
      <point x="116" y="440"/>
      <point x="118" y="438" type="curve" smooth="yes"/>
    </contour>
    <contour>
      <point x="450" y="380" type="line"/>
      <point x="518" y="431" type="line" smooth="yes"/>
      <point x="521" y="433"/>
      <point x="523" y="436"/>
      <point x="524" y="440" type="curve" smooth="yes"/>
      <point x="527" y="454"/>
      <point x="509" y="473"/>
      <point x="498" y="473" type="curve" smooth="yes"/>
      <point x="495" y="473"/>
      <point x="492" y="474"/>
      <point x="489" y="472" type="curve" smooth="yes"/>
      <point x="420" y="420" type="line"/>
    </contour>
  </outline>
</glyph>
<glyph name="yen" format="2">
  <advance width="560"/>
  <unicode hex="00A5"/>
  <note>
yen
</note>
  <outline>
    <contour>
      <point x="118" y="-5" type="curve" smooth="yes"/>
      <point x="168" y="-5"/>
      <point x="193" y="0"/>
      <point x="239" y="0" type="curve" smooth="yes"/>
      <point x="282" y="0"/>
      <point x="296" y="-5"/>
      <point x="346" y="-5" type="curve" smooth="yes"/>
      <point x="362" y="-5"/>
      <point x="374" y="-2"/>
      <point x="376" y="6" type="curve"/>
      <point x="379" y="15"/>
      <point x="371" y="20"/>
      <point x="351" y="24" type="curve" smooth="yes"/>
      <point x="307" y="33"/>
      <point x="290" y="63"/>
      <point x="304" y="108" type="curve" smooth="yes"/>
      <point x="332" y="197" type="line"/>
      <point x="432" y="197" type="line" smooth="yes"/>
      <point x="446" y="197"/>
      <point x="457" y="205"/>
      <point x="467" y="218" type="curve"/>
      <point x="472" y="225"/>
      <point x="467" y="232"/>
      <point x="460" y="232" type="curve" smooth="yes"/>
      <point x="342" y="232" type="line"/>
      <point x="357" y="280" type="line"/>
      <point x="458" y="280" type="line" smooth="yes"/>
      <point x="472" y="280"/>
      <point x="484" y="288"/>
      <point x="494" y="301" type="curve"/>
      <point x="499" y="308"/>
      <point x="493" y="315"/>
      <point x="486" y="315" type="curve" smooth="yes"/>
      <point x="372" y="315" type="line"/>
      <point x="377" y="323"/>
      <point x="388" y="334"/>
      <point x="399" y="346" type="curve" smooth="yes"/>
      <point x="430" y="381"/>
      <point x="491" y="453"/>
      <point x="558" y="526" type="curve" smooth="yes"/>
      <point x="587" y="557"/>
      <point x="645" y="615"/>
      <point x="680" y="622" type="curve" smooth="yes"/>
      <point x="703" y="627"/>
      <point x="714" y="633"/>
      <point x="717" y="642" type="curve"/>
      <point x="719" y="650"/>
      <point x="709" y="653"/>
      <point x="693" y="653" type="curve" smooth="yes"/>
      <point x="672" y="653"/>
      <point x="637" y="650"/>
      <point x="603" y="650" type="curve" smooth="yes"/>
      <point x="576" y="650"/>
      <point x="556" y="651"/>
      <point x="528" y="651" type="curve" smooth="yes"/>
      <point x="512" y="651"/>
      <point x="499" y="648"/>
      <point x="497" y="640" type="curve"/>
      <point x="494" y="631"/>
      <point x="510" y="624"/>
      <point x="522" y="620" type="curve" smooth="yes"/>
      <point x="557" y="608"/>
      <point x="554" y="584"/>
      <point x="517" y="534" type="curve" smooth="yes"/>
      <point x="482" y="488"/>
      <point x="430" y="426"/>
      <point x="403" y="395" type="curve" smooth="yes"/>
      <point x="380" y="369"/>
      <point x="370" y="356"/>
      <point x="363" y="356" type="curve" smooth="yes"/>
      <point x="356" y="356"/>
      <point x="354" y="369"/>
      <point x="347" y="395" type="curve" smooth="yes"/>
      <point x="305" y="560" type="line" smooth="yes"/>
      <point x="295" y="600"/>
      <point x="323" y="616"/>
      <point x="339" y="621" type="curve" smooth="yes"/>
      <point x="362" y="628"/>
      <point x="373" y="632"/>
      <point x="376" y="641" type="curve"/>
      <point x="378" y="649"/>
      <point x="368" y="652"/>
      <point x="352" y="652" type="curve" smooth="yes"/>
      <point x="332" y="652"/>
      <point x="314" y="650"/>
      <point x="285" y="650" type="curve" smooth="yes"/>
      <point x="242" y="650"/>
      <point x="197" y="653"/>
      <point x="169" y="653" type="curve" smooth="yes"/>
      <point x="153" y="653"/>
      <point x="141" y="650"/>
      <point x="139" y="642" type="curve"/>
      <point x="136" y="633"/>
      <point x="145" y="624"/>
      <point x="163" y="620" type="curve" smooth="yes"/>
      <point x="199" y="612"/>
      <point x="210" y="596"/>
      <point x="220" y="557" type="curve" smooth="yes"/>
      <point x="280" y="330" type="line"/>
      <point x="282" y="326"/>
      <point x="282" y="322"/>
      <point x="284" y="315" type="curve"/>
      <point x="185" y="315" type="line" smooth="yes"/>
      <point x="173" y="315"/>
      <point x="159" y="301"/>
      <point x="156" y="292" type="curve" smooth="yes"/>
      <point x="154" y="286"/>
      <point x="158" y="280"/>
      <point x="165" y="280" type="curve" smooth="yes"/>
      <point x="281" y="280" type="line"/>
      <point x="280" y="273"/>
      <point x="278" y="265"/>
      <point x="275" y="256" type="curve"/>
      <point x="268" y="232" type="line"/>
      <point x="160" y="232" type="line" smooth="yes"/>
      <point x="148" y="232"/>
      <point x="134" y="218"/>
      <point x="131" y="209" type="curve" smooth="yes"/>
      <point x="129" y="203"/>
      <point x="133" y="197"/>
      <point x="140" y="197" type="curve" smooth="yes"/>
      <point x="257" y="197" type="line"/>
      <point x="229" y="108" type="line" smooth="yes"/>
      <point x="214" y="60"/>
      <point x="180" y="33"/>
      <point x="131" y="24" type="curve" smooth="yes"/>
      <point x="108" y="20"/>
      <point x="98" y="15"/>
      <point x="95" y="6" type="curve"/>
      <point x="93" y="-2"/>
      <point x="102" y="-5"/>
    </contour>
  </outline>
</glyph>
<glyph name="brokenbar" format="2">
  <advance width="260"/>
  <unicode hex="00A6"/>
  <note>
brokenbar
</note>
  <outline>
    <contour>
      <point x="113" y="-290" type="curve" smooth="yes"/>
      <point x="122" y="-290"/>
      <point x="161" y="-287"/>
      <point x="161" y="-266" type="curve" smooth="yes"/>
      <point x="161" y="157" type="line" smooth="yes"/>
      <point x="161" y="167"/>
      <point x="154" y="179"/>
      <point x="147" y="179" type="curve" smooth="yes"/>
      <point x="141" y="179"/>
      <point x="101" y="166"/>
      <point x="101" y="156" type="curve" smooth="yes"/>
      <point x="101" y="-276" type="line" smooth="yes"/>
      <point x="101" y="-283"/>
      <point x="107" y="-290"/>
    </contour>
    <contour>
      <point x="113" y="276" type="curve" smooth="yes"/>
      <point x="122" y="276"/>
      <point x="161" y="287"/>
      <point x="161" y="297" type="curve" smooth="yes"/>
      <point x="161" y="692" type="line" smooth="yes"/>
      <point x="161" y="699"/>
      <point x="154" y="705"/>
      <point x="147" y="705" type="curve" smooth="yes"/>
      <point x="141" y="705"/>
      <point x="101" y="696"/>
      <point x="101" y="674" type="curve" smooth="yes"/>
      <point x="101" y="299" type="line" smooth="yes"/>
      <point x="101" y="289"/>
      <point x="107" y="276"/>
    </contour>
  </outline>
</glyph>
<glyph name="section" format="2">
  <advance width="380"/>
  <unicode hex="00A7"/>
  <note>
section
</note>
  <outline>
    <contour>
      <point x="33" y="-148" type="curve" smooth="yes"/>
      <point x="102" y="-148"/>
      <point x="178" y="-78"/>
      <point x="235" y="-11" type="curve" smooth="yes"/>
      <point x="301" y="68"/>
      <point x="351" y="156"/>
      <point x="351" y="257" type="curve" smooth="yes"/>
      <point x="351" y="300"/>
      <point x="338" y="341"/>
      <point x="305" y="385" type="curve" smooth="yes"/>
      <point x="273" y="429"/>
      <point x="251" y="476"/>
      <point x="251" y="512" type="curve" smooth="yes"/>
      <point x="251" y="554"/>
      <point x="289" y="596"/>
      <point x="330" y="596" type="curve" smooth="yes"/>
      <point x="343" y="596"/>
      <point x="353" y="588"/>
      <point x="362" y="579" type="curve" smooth="yes"/>
      <point x="372" y="568"/>
      <point x="380" y="556"/>
      <point x="387" y="556" type="curve" smooth="yes"/>
      <point x="402" y="556"/>
      <point x="438" y="596"/>
      <point x="438" y="607" type="curve" smooth="yes"/>
      <point x="438" y="625"/>
      <point x="406" y="640"/>
      <point x="372" y="640" type="curve" smooth="yes"/>
      <point x="306" y="640"/>
      <point x="236" y="571"/>
      <point x="204" y="513" type="curve"/>
      <point x="135" y="448"/>
      <point x="77" y="354"/>
      <point x="77" y="269" type="curve" smooth="yes"/>
      <point x="77" y="230"/>
      <point x="94" y="190"/>
      <point x="119" y="149" type="curve" smooth="yes"/>
      <point x="146" y="103"/>
      <point x="180" y="54"/>
      <point x="179" y="10" type="curve" smooth="yes"/>
      <point x="178" y="-30"/>
      <point x="145" y="-94"/>
      <point x="102" y="-94" type="curve" smooth="yes"/>
      <point x="87" y="-94"/>
      <point x="71" y="-92"/>
      <point x="61" y="-84" type="curve" smooth="yes"/>
      <point x="49" y="-75"/>
      <point x="40" y="-63"/>
      <point x="33" y="-62" type="curve" smooth="yes"/>
      <point x="19" y="-62"/>
      <point x="-16" y="-99"/>
      <point x="-16" y="-124" type="curve" smooth="yes"/>
      <point x="-16" y="-138"/>
      <point x="5" y="-148"/>
    </contour>
    <contour>
      <point x="245" y="51" type="curve"/>
      <point x="244" y="97"/>
      <point x="203" y="161"/>
      <point x="177" y="204" type="curve" smooth="yes"/>
      <point x="152" y="246"/>
      <point x="138" y="282"/>
      <point x="139" y="323" type="curve" smooth="yes"/>
      <point x="139" y="370"/>
      <point x="156" y="412"/>
      <point x="182" y="458" type="curve"/>
      <point x="184" y="462"/>
      <point x="191" y="463"/>
      <point x="191" y="458" type="curve" smooth="yes"/>
      <point x="192" y="412"/>
      <point x="233" y="348"/>
      <point x="259" y="305" type="curve" smooth="yes"/>
      <point x="296" y="243"/>
      <point x="308" y="193"/>
      <point x="287" y="124" type="curve" smooth="yes"/>
      <point x="279" y="97"/>
      <point x="269" y="78"/>
      <point x="254" y="51" type="curve"/>
      <point x="252" y="47"/>
      <point x="245" y="46"/>
    </contour>
  </outline>
</glyph>
<glyph name="copyright" format="2">
  <advance width="665"/>
  <unicode hex="00A9"/>
  <note>
copyright
</note>
  <outline>
    <contour>
      <point x="371" y="24" type="curve" smooth="yes"/>
      <point x="538" y="24"/>
      <point x="675" y="160"/>
      <point x="675" y="327" type="curve" smooth="yes"/>
      <point x="675" y="494"/>
      <point x="539" y="630"/>
      <point x="372" y="630" type="curve" smooth="yes"/>
      <point x="205" y="630"/>
      <point x="69" y="494"/>
      <point x="69" y="327" type="curve" smooth="yes"/>
      <point x="69" y="160"/>
      <point x="204" y="24"/>
    </contour>
    <contour>
      <point x="385" y="154" type="curve" smooth="yes"/>
      <point x="420" y="154"/>
      <point x="456" y="157"/>
      <point x="478" y="167" type="curve" smooth="yes"/>
      <point x="492" y="173"/>
      <point x="487" y="172"/>
      <point x="495" y="184" type="curve" smooth="yes"/>
      <point x="503" y="196"/>
      <point x="510" y="217"/>
      <point x="510" y="227" type="curve" smooth="yes"/>
      <point x="510" y="236"/>
      <point x="509" y="240"/>
      <point x="505" y="240" type="curve" smooth="yes"/>
      <point x="501" y="240"/>
      <point x="493" y="235"/>
      <point x="488" y="225" type="curve" smooth="yes"/>
      <point x="472" y="193"/>
      <point x="439" y="184"/>
      <point x="402" y="184" type="curve" smooth="yes"/>
      <point x="324" y="184"/>
      <point x="284" y="258"/>
      <point x="284" y="331" type="curve" smooth="yes"/>
      <point x="284" y="404"/>
      <point x="329" y="464"/>
      <point x="397" y="464" type="curve" smooth="yes"/>
      <point x="420" y="464"/>
      <point x="439" y="458"/>
      <point x="454" y="448" type="curve" smooth="yes"/>
      <point x="468" y="439"/>
      <point x="477" y="427"/>
      <point x="482" y="413" type="curve" smooth="yes"/>
      <point x="485" y="405"/>
      <point x="488" y="398"/>
      <point x="494" y="398" type="curve"/>
      <point x="499" y="397"/>
      <point x="504" y="405"/>
      <point x="504" y="409" type="curve"/>
      <point x="505" y="422"/>
      <point x="506" y="452"/>
      <point x="502" y="468" type="curve" smooth="yes"/>
      <point x="499" y="479"/>
      <point x="496" y="478"/>
      <point x="486" y="481" type="curve" smooth="yes"/>
      <point x="463" y="488"/>
      <point x="430" y="494"/>
      <point x="406" y="494" type="curve" smooth="yes"/>
      <point x="307" y="494"/>
      <point x="214" y="427"/>
      <point x="214" y="328" type="curve" smooth="yes"/>
      <point x="214" y="239"/>
      <point x="290" y="154"/>
    </contour>
    <contour>
      <point x="371" y="58" type="curve" smooth="yes"/>
      <point x="225" y="58"/>
      <point x="109" y="181"/>
      <point x="109" y="327" type="curve" smooth="yes"/>
      <point x="109" y="472"/>
      <point x="227" y="590"/>
      <point x="372" y="590" type="curve" smooth="yes"/>
      <point x="517" y="590"/>
      <point x="635" y="472"/>
      <point x="635" y="327" type="curve" smooth="yes"/>
      <point x="635" y="180"/>
      <point x="518" y="58"/>
    </contour>
  </outline>
</glyph>
<glyph name="ordfeminine" format="2">
  <advance width="293"/>
  <unicode hex="00AA"/>
  <note>
ordfeminine
</note>
  <outline>
    <contour>
      <point x="44" y="161" type="curve" smooth="yes"/>
      <point x="216" y="161" type="line" smooth="yes"/>
      <point x="229" y="161"/>
      <point x="250" y="171"/>
      <point x="250" y="182" type="curve" smooth="yes"/>
      <point x="250" y="191"/>
      <point x="249" y="196"/>
      <point x="243" y="196" type="curve" smooth="yes"/>
      <point x="63" y="196" type="line" smooth="yes"/>
      <point x="52" y="196"/>
      <point x="35" y="181"/>
      <point x="35" y="172" type="curve" smooth="yes"/>
      <point x="35" y="166"/>
      <point x="38" y="161"/>
    </contour>
    <component base="a.ordn" xOffset="-2" yOffset="-7"/>
  </outline>
</glyph>
<glyph name="logicalnot" format="2">
  <advance width="600"/>
  <unicode hex="00AC"/>
  <note>
logicalnot
</note>
  <outline>
    <contour>
      <point x="502" y="43" type="curve" smooth="yes"/>
      <point x="511" y="43"/>
      <point x="550" y="46"/>
      <point x="550" y="67" type="curve" smooth="yes"/>
      <point x="550" y="368" type="line" smooth="yes"/>
      <point x="550" y="375"/>
      <point x="544" y="382"/>
      <point x="537" y="382" type="curve" smooth="yes"/>
      <point x="74" y="382" type="line" smooth="yes"/>
      <point x="53" y="382"/>
      <point x="50" y="343"/>
      <point x="50" y="334" type="curve" smooth="yes"/>
      <point x="50" y="328"/>
      <point x="57" y="322"/>
      <point x="64" y="322" type="curve" smooth="yes"/>
      <point x="476" y="322" type="line" smooth="yes"/>
      <point x="486" y="322"/>
      <point x="490" y="314"/>
      <point x="490" y="304" type="curve" smooth="yes"/>
      <point x="490" y="57" type="line" smooth="yes"/>
      <point x="490" y="50"/>
      <point x="496" y="43"/>
    </contour>
  </outline>
</glyph>
<glyph name="registered" format="2">
  <advance width="665"/>
  <unicode hex="00AE"/>
  <note>
registered
</note>
  <outline>
    <contour>
      <point x="371" y="24" type="curve" smooth="yes"/>
      <point x="538" y="24"/>
      <point x="675" y="160"/>
      <point x="675" y="327" type="curve" smooth="yes"/>
      <point x="675" y="494"/>
      <point x="539" y="630"/>
      <point x="372" y="630" type="curve" smooth="yes"/>
      <point x="205" y="630"/>
      <point x="69" y="494"/>
      <point x="69" y="327" type="curve" smooth="yes"/>
      <point x="69" y="160"/>
      <point x="204" y="24"/>
    </contour>
    <contour>
      <point x="371" y="58" type="curve" smooth="yes"/>
      <point x="225" y="58"/>
      <point x="109" y="181"/>
      <point x="109" y="327" type="curve" smooth="yes"/>
      <point x="109" y="472"/>
      <point x="227" y="590"/>
      <point x="372" y="590" type="curve" smooth="yes"/>
      <point x="517" y="590"/>
      <point x="635" y="472"/>
      <point x="635" y="327" type="curve" smooth="yes"/>
      <point x="635" y="180"/>
      <point x="518" y="58"/>
    </contour>
    <contour>
      <point x="509" y="173" type="curve" smooth="yes"/>
      <point x="528" y="173"/>
      <point x="553" y="182"/>
      <point x="553" y="200" type="curve" smooth="yes"/>
      <point x="553" y="208"/>
      <point x="541" y="204"/>
      <point x="537" y="204" type="curve" smooth="yes"/>
      <point x="509" y="204"/>
      <point x="454" y="268"/>
      <point x="434" y="320" type="curve" smooth="yes"/>
      <point x="431" y="327"/>
      <point x="425" y="334"/>
      <point x="434" y="337" type="curve" smooth="yes"/>
      <point x="464" y="348"/>
      <point x="496" y="376"/>
      <point x="496" y="417" type="curve" smooth="yes"/>
      <point x="496" y="470"/>
      <point x="444" y="498"/>
      <point x="392" y="496" type="curve" smooth="yes"/>
      <point x="361" y="495"/>
      <point x="331" y="491"/>
      <point x="300" y="491" type="curve" smooth="yes"/>
      <point x="283" y="491"/>
      <point x="265" y="495"/>
      <point x="248" y="496" type="curve" smooth="yes"/>
      <point x="235" y="497"/>
      <point x="228" y="492"/>
      <point x="228" y="484" type="curve" smooth="yes"/>
      <point x="228" y="476"/>
      <point x="233" y="472"/>
      <point x="247" y="468" type="curve" smooth="yes"/>
      <point x="267" y="462"/>
      <point x="270" y="467"/>
      <point x="270" y="426" type="curve" smooth="yes"/>
      <point x="270" y="231" type="line" smooth="yes"/>
      <point x="270" y="209"/>
      <point x="261" y="204"/>
      <point x="245" y="199" type="curve" smooth="yes"/>
      <point x="236" y="196"/>
      <point x="226" y="191"/>
      <point x="226" y="183" type="curve" smooth="yes"/>
      <point x="226" y="177"/>
      <point x="236" y="172"/>
      <point x="242" y="172" type="curve" smooth="yes"/>
      <point x="274" y="172"/>
      <point x="275" y="176"/>
      <point x="303" y="176" type="curve" smooth="yes"/>
      <point x="331" y="176"/>
      <point x="336" y="172"/>
      <point x="368" y="172" type="curve" smooth="yes"/>
      <point x="374" y="172"/>
      <point x="384" y="177"/>
      <point x="384" y="183" type="curve" smooth="yes"/>
      <point x="384" y="191"/>
      <point x="374" y="196"/>
      <point x="365" y="199" type="curve" smooth="yes"/>
      <point x="349" y="204"/>
      <point x="331" y="209"/>
      <point x="331" y="231" type="curve"/>
      <point x="330" y="309" type="line"/>
      <point x="330" y="316"/>
      <point x="338" y="320"/>
      <point x="346" y="320" type="curve" smooth="yes"/>
      <point x="371" y="320"/>
      <point x="381" y="312"/>
      <point x="384" y="304" type="curve" smooth="yes"/>
      <point x="401" y="260"/>
      <point x="457" y="173"/>
    </contour>
    <contour>
      <point x="357" y="347" type="curve" smooth="yes"/>
      <point x="343" y="347"/>
      <point x="330" y="348"/>
      <point x="330" y="367" type="curve" smooth="yes"/>
      <point x="330" y="437" type="line" smooth="yes"/>
      <point x="330" y="455"/>
      <point x="338" y="467"/>
      <point x="368" y="467" type="curve" smooth="yes"/>
      <point x="403" y="467"/>
      <point x="432" y="445"/>
      <point x="432" y="413" type="curve" smooth="yes"/>
      <point x="432" y="374"/>
      <point x="396" y="347"/>
    </contour>
  </outline>
</glyph>
<glyph name="degree" format="2">
  <advance width="290"/>
  <unicode hex="00B0"/>
  <note>
degree
</note>
  <outline>
    <contour>
      <point x="246" y="402" type="curve" smooth="yes"/>
      <point x="309" y="402"/>
      <point x="366" y="464"/>
      <point x="366" y="528" type="curve" smooth="yes"/>
      <point x="366" y="592"/>
      <point x="309" y="645"/>
      <point x="246" y="645" type="curve" smooth="yes"/>
      <point x="183" y="645"/>
      <point x="126" y="590"/>
      <point x="126" y="526" type="curve" smooth="yes"/>
      <point x="126" y="462"/>
      <point x="183" y="402"/>
    </contour>
    <contour>
      <point x="246" y="444" type="curve" smooth="yes"/>
      <point x="204" y="444"/>
      <point x="169" y="481"/>
      <point x="169" y="523" type="curve" smooth="yes"/>
      <point x="169" y="567"/>
      <point x="204" y="602"/>
      <point x="246" y="602" type="curve" smooth="yes"/>
      <point x="288" y="602"/>
      <point x="323" y="567"/>
      <point x="323" y="523" type="curve" smooth="yes"/>
      <point x="323" y="481"/>
      <point x="288" y="444"/>
    </contour>
  </outline>
</glyph>
<glyph name="plusminus" format="2">
  <advance width="590"/>
  <unicode hex="00B1"/>
  <note>
plusminus
</note>
  <outline>
    <contour>
      <point x="282" y="121" type="curve" smooth="yes"/>
      <point x="291" y="121"/>
      <point x="320" y="127"/>
      <point x="320" y="145" type="curve" smooth="yes"/>
      <point x="320" y="347" type="line" smooth="yes"/>
      <point x="320" y="350"/>
      <point x="321" y="351"/>
      <point x="324" y="351" type="curve" smooth="yes"/>
      <point x="509" y="351" type="line" smooth="yes"/>
      <point x="528" y="351"/>
      <point x="534" y="370"/>
      <point x="540" y="387" type="curve"/>
      <point x="543" y="394"/>
      <point x="534" y="401"/>
      <point x="527" y="401" type="curve" smooth="yes"/>
      <point x="324" y="401" type="line" smooth="yes"/>
      <point x="321" y="401"/>
      <point x="320" y="400"/>
      <point x="320" y="407" type="curve" smooth="yes"/>
      <point x="320" y="598" type="line" smooth="yes"/>
      <point x="320" y="605"/>
      <point x="313" y="611"/>
      <point x="306" y="611" type="curve" smooth="yes"/>
      <point x="300" y="611"/>
      <point x="270" y="599"/>
      <point x="270" y="580" type="curve" smooth="yes"/>
      <point x="270" y="409" type="line" smooth="yes"/>
      <point x="270" y="403"/>
      <point x="269" y="401"/>
      <point x="263" y="401" type="curve" smooth="yes"/>
      <point x="74" y="401" type="line" smooth="yes"/>
      <point x="56" y="401"/>
      <point x="50" y="372"/>
      <point x="50" y="363" type="curve" smooth="yes"/>
      <point x="50" y="357"/>
      <point x="57" y="351"/>
      <point x="64" y="351" type="curve" smooth="yes"/>
      <point x="266" y="351" type="line" smooth="yes"/>
      <point x="269" y="351"/>
      <point x="270" y="349"/>
      <point x="270" y="346" type="curve" smooth="yes"/>
      <point x="270" y="135" type="line" smooth="yes"/>
      <point x="270" y="128"/>
      <point x="276" y="121"/>
    </contour>
    <contour>
      <point x="64" y="38" type="curve" smooth="yes"/>
      <point x="509" y="38" type="line" smooth="yes"/>
      <point x="528" y="38"/>
      <point x="534" y="57"/>
      <point x="540" y="74" type="curve"/>
      <point x="543" y="81"/>
      <point x="534" y="88"/>
      <point x="527" y="88" type="curve" smooth="yes"/>
      <point x="74" y="88" type="line" smooth="yes"/>
      <point x="56" y="88"/>
      <point x="50" y="59"/>
      <point x="50" y="50" type="curve" smooth="yes"/>
      <point x="50" y="44"/>
      <point x="57" y="38"/>
    </contour>
  </outline>
</glyph>
<glyph name="mu" format="2">
  <advance width="502"/>
  <unicode hex="00B5"/>
  <note>
mu
</note>
  <outline>
    <contour>
      <point x="6" y="-285" type="curve" smooth="yes"/>
      <point x="24" y="-285"/>
      <point x="80" y="-240"/>
      <point x="80" y="-219" type="curve" smooth="yes"/>
      <point x="80" y="-212"/>
      <point x="70" y="-206"/>
      <point x="59" y="-193" type="curve" smooth="yes"/>
      <point x="48" y="-178"/>
      <point x="34" y="-156"/>
      <point x="34" y="-116" type="curve" smooth="yes"/>
      <point x="34" y="-79"/>
      <point x="53" y="10"/>
      <point x="63" y="39" type="curve" smooth="yes"/>
      <point x="70" y="60"/>
      <point x="79" y="77"/>
      <point x="86" y="77" type="curve" smooth="yes"/>
      <point x="93" y="77"/>
      <point x="96" y="68"/>
      <point x="99" y="60" type="curve" smooth="yes"/>
      <point x="112" y="25"/>
      <point x="128" y="-14"/>
      <point x="167" y="-14" type="curve" smooth="yes"/>
      <point x="217" y="-14"/>
      <point x="294" y="99"/>
      <point x="306" y="115" type="curve"/>
      <point x="308" y="115" type="line"/>
      <point x="301" y="98"/>
      <point x="294" y="77"/>
      <point x="293" y="60" type="curve" smooth="yes"/>
      <point x="291" y="18"/>
      <point x="306" y="-14"/>
      <point x="346" y="-14" type="curve" smooth="yes"/>
      <point x="392" y="-14"/>
      <point x="449" y="34"/>
      <point x="478" y="106" type="curve" smooth="yes"/>
      <point x="480" y="111"/>
      <point x="475" y="115"/>
      <point x="470" y="115" type="curve" smooth="yes"/>
      <point x="462" y="115"/>
      <point x="415" y="62"/>
      <point x="378" y="62" type="curve" smooth="yes"/>
      <point x="333" y="62"/>
      <point x="316" y="100"/>
      <point x="328" y="137" type="curve"/>
      <point x="368" y="190"/>
      <point x="448" y="333"/>
      <point x="461" y="370" type="curve" smooth="yes"/>
      <point x="466" y="384"/>
      <point x="433" y="414"/>
      <point x="407" y="414" type="curve" smooth="yes"/>
      <point x="399" y="414"/>
      <point x="391" y="413"/>
      <point x="386" y="402" type="curve" smooth="yes"/>
      <point x="346" y="314"/>
      <point x="321" y="250"/>
      <point x="295" y="176" type="curve"/>
      <point x="223" y="81"/>
      <point x="189" y="52"/>
      <point x="163" y="52" type="curve" smooth="yes"/>
      <point x="135" y="52"/>
      <point x="111" y="74"/>
      <point x="111" y="105" type="curve" smooth="yes"/>
      <point x="111" y="116"/>
      <point x="111" y="132"/>
      <point x="119" y="150" type="curve"/>
      <point x="184" y="274"/>
      <point x="234" y="343"/>
      <point x="234" y="382" type="curve" smooth="yes"/>
      <point x="234" y="394"/>
      <point x="203" y="414"/>
      <point x="170" y="414" type="curve" smooth="yes"/>
      <point x="156" y="414"/>
      <point x="150" y="405"/>
      <point x="145" y="390" type="curve" smooth="yes"/>
      <point x="126" y="332"/>
      <point x="69" y="125"/>
      <point x="59" y="92" type="curve" smooth="yes"/>
      <point x="49" y="60"/>
      <point x="29" y="17"/>
      <point x="23" y="0" type="curve" smooth="yes"/>
      <point x="0" y="-75"/>
      <point x="-34" y="-169"/>
      <point x="-34" y="-234" type="curve" smooth="yes"/>
      <point x="-34" y="-265"/>
      <point x="-15" y="-285"/>
    </contour>
  </outline>
</glyph>
<glyph name="paragraph" format="2">
  <advance width="589"/>
  <unicode hex="00B6"/>
  <note>
paragraph
</note>
  <outline>
    <contour>
      <point x="142" y="-288" type="curve" smooth="yes"/>
      <point x="231" y="-288"/>
      <point x="306" y="-245"/>
      <point x="351" y="-98" type="curve" smooth="yes"/>
      <point x="560" y="589" type="line" smooth="yes"/>
      <point x="564" y="602"/>
      <point x="573" y="607"/>
      <point x="582" y="607" type="curve" smooth="yes"/>
      <point x="587" y="607"/>
      <point x="665" y="603"/>
      <point x="671" y="603" type="curve" smooth="yes"/>
      <point x="681" y="603"/>
      <point x="685" y="614"/>
      <point x="686" y="624" type="curve" smooth="yes"/>
      <point x="687" y="633"/>
      <point x="684" y="641"/>
      <point x="675" y="642" type="curve" smooth="yes"/>
      <point x="652" y="645"/>
      <point x="608" y="645"/>
      <point x="580" y="645" type="curve" smooth="yes"/>
      <point x="319" y="645"/>
      <point x="101" y="578"/>
      <point x="101" y="322" type="curve" smooth="yes"/>
      <point x="101" y="194"/>
      <point x="197" y="119"/>
      <point x="354" y="119" type="curve" smooth="yes"/>
      <point x="363" y="119"/>
      <point x="365" y="111"/>
      <point x="362" y="100" type="curve" smooth="yes"/>
      <point x="295" y="-120" type="line" smooth="yes"/>
      <point x="269" y="-206"/>
      <point x="208" y="-246"/>
      <point x="140" y="-246" type="curve" smooth="yes"/>
      <point x="92" y="-246"/>
      <point x="45" y="-221"/>
      <point x="45" y="-162" type="curve" smooth="yes"/>
      <point x="45" y="-146"/>
      <point x="54" y="-123"/>
      <point x="67" y="-123" type="curve" smooth="yes"/>
      <point x="76" y="-123"/>
      <point x="86" y="-132"/>
      <point x="97" y="-140" type="curve" smooth="yes"/>
      <point x="108" y="-149"/>
      <point x="121" y="-157"/>
      <point x="135" y="-157" type="curve" smooth="yes"/>
      <point x="174" y="-157"/>
      <point x="194" y="-135"/>
      <point x="194" y="-101" type="curve" smooth="yes"/>
      <point x="194" y="-71"/>
      <point x="169" y="-48"/>
      <point x="126" y="-48" type="curve" smooth="yes"/>
      <point x="56" y="-48"/>
      <point x="4" y="-104"/>
      <point x="4" y="-177" type="curve" smooth="yes"/>
      <point x="4" y="-245"/>
      <point x="62" y="-288"/>
    </contour>
    <contour>
      <point x="358" y="156" type="curve" smooth="yes"/>
      <point x="324" y="156"/>
      <point x="307" y="176"/>
      <point x="307" y="224" type="curve" smooth="yes"/>
      <point x="307" y="261"/>
      <point x="318" y="316"/>
      <point x="341" y="392" type="curve" smooth="yes"/>
      <point x="399" y="582"/>
      <point x="441" y="593"/>
      <point x="487" y="593" type="curve" smooth="yes"/>
      <point x="493" y="593"/>
      <point x="502" y="591"/>
      <point x="502" y="586" type="curve" smooth="yes"/>
      <point x="502" y="585"/>
      <point x="502" y="585"/>
      <point x="502" y="584" type="curve" smooth="yes"/>
      <point x="371" y="169" type="line" smooth="yes"/>
      <point x="368" y="160"/>
      <point x="363" y="156"/>
    </contour>
  </outline>
</glyph>
<glyph name="ordmasculine" format="2">
  <advance width="307"/>
  <unicode hex="00BA"/>
  <note>
ordmasculine
</note>
  <outline>
    <contour>
      <point x="49" y="161" type="curve" smooth="yes"/>
      <point x="236" y="161" type="line" smooth="yes"/>
      <point x="249" y="161"/>
      <point x="271" y="173"/>
      <point x="271" y="183" type="curve" smooth="yes"/>
      <point x="271" y="192"/>
      <point x="268" y="196"/>
      <point x="262" y="196" type="curve" smooth="yes"/>
      <point x="68" y="196" type="line" smooth="yes"/>
      <point x="57" y="196"/>
      <point x="41" y="182"/>
      <point x="41" y="173" type="curve" smooth="yes"/>
      <point x="41" y="167"/>
      <point x="43" y="161"/>
    </contour>
    <component base="o.ordn" xOffset="-2" yOffset="-7"/>
  </outline>
</glyph>
<glyph name="AE" format="2">
  <advance width="800"/>
  <unicode hex="00C6"/>
  <guideline x="489" y="322" angle="0"/>
  <guideline x="479" y="289" angle="0"/>
  <anchor x="670" y="675" name="top.cap"/>
  <note>
AE
</note>
  <outline>
    <contour>
      <point x="-38" y="-5" type="curve" smooth="yes"/>
      <point x="-7" y="-5"/>
      <point x="39" y="1"/>
      <point x="81" y="1" type="curve" smooth="yes"/>
      <point x="115" y="1"/>
      <point x="152" y="-1"/>
      <point x="169" y="-1" type="curve" smooth="yes"/>
      <point x="185" y="-1"/>
      <point x="197" y="2"/>
      <point x="199" y="10" type="curve" smooth="yes"/>
      <point x="201" y="19"/>
      <point x="195" y="24"/>
      <point x="175" y="30" type="curve" smooth="yes"/>
      <point x="143" y="40"/>
      <point x="105" y="58"/>
      <point x="148" y="112" type="curve" smooth="yes"/>
      <point x="197" y="174"/>
      <point x="234" y="220"/>
      <point x="269" y="266" type="curve" smooth="yes"/>
      <point x="279" y="279"/>
      <point x="290" y="289"/>
      <point x="304" y="289" type="curve" smooth="yes"/>
      <point x="428" y="289" type="line" smooth="yes"/>
      <point x="447" y="289"/>
      <point x="446" y="281"/>
      <point x="443" y="271" type="curve" smooth="yes"/>
      <point x="430" y="228"/>
      <point x="411" y="154"/>
      <point x="395" y="99" type="curve" smooth="yes"/>
      <point x="381" y="51"/>
      <point x="352" y="33"/>
      <point x="303" y="24" type="curve" smooth="yes"/>
      <point x="280" y="20"/>
      <point x="270" y="15"/>
      <point x="267" y="6" type="curve"/>
      <point x="265" y="-2"/>
      <point x="274" y="-5"/>
      <point x="290" y="-5" type="curve" smooth="yes"/>
      <point x="340" y="-5"/>
      <point x="357" y="1"/>
      <point x="399" y="1" type="curve" smooth="yes"/>
      <point x="481" y="1"/>
      <point x="593" y="-5"/>
      <point x="698" y="-5" type="curve" smooth="yes"/>
      <point x="707" y="-5"/>
      <point x="713" y="4"/>
      <point x="717" y="12" type="curve" smooth="yes"/>
      <point x="734" y="44"/>
      <point x="749" y="74"/>
      <point x="766" y="123" type="curve" smooth="yes"/>
      <point x="768" y="130"/>
      <point x="766" y="139"/>
      <point x="758" y="139" type="curve" smooth="yes"/>
      <point x="751" y="139"/>
      <point x="744" y="132"/>
      <point x="739" y="124" type="curve" smooth="yes"/>
      <point x="724" y="99"/>
      <point x="710" y="78"/>
      <point x="691" y="62" type="curve" smooth="yes"/>
      <point x="670" y="45"/>
      <point x="644" y="35"/>
      <point x="605" y="35" type="curve" smooth="yes"/>
      <point x="508" y="35" type="line" smooth="yes"/>
      <point x="466" y="35"/>
      <point x="461" y="72"/>
      <point x="473" y="113" type="curve" smooth="yes"/>
      <point x="489" y="170"/>
      <point x="497" y="203"/>
      <point x="512" y="251" type="curve" smooth="yes"/>
      <point x="521" y="282"/>
      <point x="532" y="290"/>
      <point x="545" y="290" type="curve" smooth="yes"/>
      <point x="579" y="290"/>
      <point x="603" y="289"/>
      <point x="641" y="288" type="curve" smooth="yes"/>
      <point x="656" y="288"/>
      <point x="673" y="272"/>
      <point x="673" y="241" type="curve" smooth="yes"/>
      <point x="673" y="234"/>
      <point x="675" y="218"/>
      <point x="687" y="218" type="curve" smooth="yes"/>
      <point x="694" y="218"/>
      <point x="698" y="226"/>
      <point x="701" y="235" type="curve" smooth="yes"/>
      <point x="714" y="286"/>
      <point x="719" y="331"/>
      <point x="742" y="382" type="curve" smooth="yes"/>
      <point x="746" y="391"/>
      <point x="740" y="398"/>
      <point x="735" y="398" type="curve" smooth="yes"/>
      <point x="727" y="398"/>
      <point x="717" y="391"/>
      <point x="712" y="381" type="curve" smooth="yes"/>
      <point x="706" y="367"/>
      <point x="700" y="355"/>
      <point x="690" y="345" type="curve" smooth="yes"/>
      <point x="680" y="336"/>
      <point x="667" y="329"/>
      <point x="647" y="326" type="curve" smooth="yes"/>
      <point x="623" y="322"/>
      <point x="597" y="323"/>
      <point x="552" y="323" type="curve" smooth="yes"/>
      <point x="541" y="323"/>
      <point x="539" y="334"/>
      <point x="547" y="364" type="curve" smooth="yes"/>
      <point x="562" y="418"/>
      <point x="598" y="534"/>
      <point x="627" y="592" type="curve" smooth="yes"/>
      <point x="633" y="604"/>
      <point x="643" y="618"/>
      <point x="658" y="618" type="curve" smooth="yes"/>
      <point x="780" y="618" type="line" smooth="yes"/>
      <point x="803" y="618"/>
      <point x="823" y="612"/>
      <point x="833" y="593" type="curve" smooth="yes"/>
      <point x="839" y="581"/>
      <point x="841" y="552"/>
      <point x="841" y="530" type="curve" smooth="yes"/>
      <point x="841" y="523"/>
      <point x="841" y="520"/>
      <point x="848" y="520" type="curve" smooth="yes"/>
      <point x="854" y="520"/>
      <point x="862" y="523"/>
      <point x="866" y="538" type="curve" smooth="yes"/>
      <point x="874" y="566"/>
      <point x="885" y="614"/>
      <point x="888" y="648" type="curve" smooth="yes"/>
      <point x="889" y="659"/>
      <point x="881" y="661"/>
      <point x="874" y="661" type="curve" smooth="yes"/>
      <point x="849" y="661"/>
      <point x="820" y="650"/>
      <point x="735" y="650" type="curve" smooth="yes"/>
      <point x="684" y="650"/>
      <point x="628" y="648"/>
      <point x="581" y="648" type="curve" smooth="yes"/>
      <point x="518" y="648"/>
      <point x="452" y="651"/>
      <point x="413" y="651" type="curve" smooth="yes"/>
      <point x="402" y="651"/>
      <point x="392" y="644"/>
      <point x="392" y="637" type="curve" smooth="yes"/>
      <point x="392" y="632"/>
      <point x="396" y="628"/>
      <point x="405" y="626" type="curve" smooth="yes"/>
      <point x="481" y="613" type="line" smooth="yes"/>
      <point x="499" y="610"/>
      <point x="503" y="602"/>
      <point x="495" y="593" type="curve" smooth="yes"/>
      <point x="102" y="126" type="line" smooth="yes"/>
      <point x="62" y="78"/>
      <point x="11" y="38"/>
      <point x="-24" y="28" type="curve" smooth="yes"/>
      <point x="-47" y="21"/>
      <point x="-59" y="15"/>
      <point x="-62" y="6" type="curve"/>
      <point x="-64" y="-2"/>
      <point x="-54" y="-5"/>
    </contour>
    <contour>
      <point x="337" y="322" type="line" smooth="yes"/>
      <point x="321" y="322"/>
      <point x="321" y="324"/>
      <point x="331" y="337" type="curve" smooth="yes"/>
      <point x="527" y="587" type="line" smooth="yes"/>
      <point x="531" y="592"/>
      <point x="535" y="596"/>
      <point x="538" y="596" type="curve" smooth="yes"/>
      <point x="541" y="596"/>
      <point x="541" y="592"/>
      <point x="539" y="586" type="curve" smooth="yes"/>
      <point x="462" y="337" type="line" smooth="yes"/>
      <point x="457" y="322"/>
      <point x="457" y="322"/>
      <point x="443" y="322" type="curve" smooth="yes"/>
    </contour>
  </outline>
</glyph>
